IBM Plex Serif-Thin Italic.ufo
<glyph name="exclam" format="1">
  <advance width="236"/>
  <unicode hex="0021"/>
  <outline>
    <contour>
      <point x="59" y="-5" type="curve" smooth="yes" name="hr00"/>
      <point x="73" y="-5"/>
      <point x="82" y="3"/>
      <point x="86" y="11" type="curve" smooth="yes"/>
      <point x="89" y="17"/>
      <point x="90" y="23"/>
      <point x="90" y="30" type="curve" smooth="yes"/>
      <point x="90" y="41"/>
      <point x="82" y="51"/>
      <point x="66" y="51" type="curve" smooth="yes"/>
      <point x="52" y="51"/>
      <point x="43" y="43"/>
      <point x="39" y="35" type="curve" smooth="yes"/>
      <point x="36" y="29"/>
      <point x="35" y="23"/>
      <point x="35" y="16" type="curve" smooth="yes"/>
      <point x="35" y="5"/>
      <point x="43" y="-5"/>
    </contour>
    <contour>
      <point x="93" y="176" type="line"/>
      <point x="105" y="176" type="line"/>
      <point x="170" y="415" type="line"/>
      <point x="240" y="698" type="line"/>
      <point x="218" y="698" type="line"/>
      <point x="148" y="415" type="line"/>
    </contour>
  </outline>
</glyph>
<glyph name="numbersign" format="1">
  <advance width="680"/>
  <unicode hex="0023"/>
  <outline>
    <contour>
      <point x="97" y="0" type="line" name="hr00"/>
      <point x="118" y="0" type="line"/>
      <point x="209" y="220" type="line"/>
      <point x="385" y="220" type="line"/>
      <point x="294" y="0" type="line"/>
      <point x="315" y="0" type="line"/>
      <point x="406" y="220" type="line"/>
      <point x="548" y="220" type="line"/>
      <point x="552" y="236" type="line"/>
      <point x="413" y="236" type="line"/>
      <point x="507" y="462" type="line"/>
      <point x="647" y="462" type="line"/>
      <point x="651" y="478" type="line"/>
      <point x="514" y="478" type="line"/>
      <point x="605" y="698" type="line"/>
      <point x="584" y="698" type="line"/>
      <point x="493" y="478" type="line"/>
      <point x="317" y="478" type="line"/>
      <point x="408" y="698" type="line"/>
      <point x="387" y="698" type="line"/>
      <point x="296" y="478" type="line"/>
      <point x="154" y="478" type="line"/>
      <point x="150" y="462" type="line"/>
      <point x="289" y="462" type="line"/>
      <point x="195" y="236" type="line"/>
      <point x="55" y="236" type="line"/>
      <point x="51" y="220" type="line"/>
      <point x="188" y="220" type="line"/>
    </contour>
    <contour>
      <point x="310" y="462" type="line"/>
      <point x="486" y="462" type="line"/>
      <point x="392" y="236" type="line"/>
      <point x="216" y="236" type="line"/>
    </contour>
  </outline>
</glyph>
<glyph name="dollar" format="1">
  <advance width="566"/>
  <unicode hex="0024"/>
  <outline>
    <contour>
      <point x="188" y="-82" type="line" name="hr00"/>
      <point x="206" y="-82" type="line"/>
      <point x="226" y="0" type="line"/>
      <point x="230" y="0"/>
      <point x="234" y="0"/>
      <point x="238" y="0" type="curve" smooth="yes"/>
      <point x="394" y="0"/>
      <point x="477" y="92"/>
      <point x="477" y="205" type="curve" smooth="yes"/>
      <point x="477" y="275"/>
      <point x="443" y="324"/>
      <point x="354" y="360" type="curve" smooth="yes"/>
      <point x="319" y="374" type="line"/>
      <point x="395" y="679" type="line"/>
      <point x="453" y="675"/>
      <point x="494" y="657"/>
      <point x="516" y="633" type="curve"/>
      <point x="516" y="631" type="line"/>
      <point x="495" y="628"/>
      <point x="482" y="616"/>
      <point x="482" y="599" type="curve" smooth="yes"/>
      <point x="482" y="583"/>
      <point x="493" y="572"/>
      <point x="508" y="572" type="curve" smooth="yes"/>
      <point x="525" y="572"/>
      <point x="535" y="583"/>
      <point x="535" y="603" type="curve" smooth="yes"/>
      <point x="535" y="649"/>
      <point x="478" y="688"/>
      <point x="399" y="696" type="curve"/>
      <point x="420" y="780" type="line"/>
      <point x="402" y="780" type="line"/>
      <point x="381" y="698" type="line"/>
      <point x="377" y="698"/>
      <point x="373" y="698"/>
      <point x="368" y="698" type="curve" smooth="yes"/>
      <point x="251" y="698"/>
      <point x="157" y="631"/>
      <point x="157" y="523" type="curve" smooth="yes"/>
      <point x="157" y="448"/>
      <point x="199" y="400"/>
      <point x="270" y="372" type="curve" smooth="yes"/>
      <point x="297" y="361" type="line"/>
      <point x="212" y="19" type="line"/>
      <point x="151" y="23"/>
      <point x="106" y="40"/>
      <point x="83" y="65" type="curve"/>
      <point x="83" y="67" type="line"/>
      <point x="104" y="70"/>
      <point x="117" y="82"/>
      <point x="117" y="99" type="curve" smooth="yes"/>
      <point x="117" y="115"/>
      <point x="106" y="126"/>
      <point x="91" y="126" type="curve" smooth="yes"/>
      <point x="74" y="126"/>
      <point x="64" y="115"/>
      <point x="64" y="95" type="curve" smooth="yes"/>
      <point x="64" y="48"/>
      <point x="125" y="9"/>
      <point x="208" y="1" type="curve"/>
    </contour>
    <contour>
      <point x="314" y="355" type="line"/>
      <point x="340" y="344" type="line" smooth="yes"/>
      <point x="415" y="314"/>
      <point x="456" y="280"/>
      <point x="456" y="205" type="curve" smooth="yes"/>
      <point x="456" y="97"/>
      <point x="372" y="18"/>
      <point x="240" y="18" type="curve" smooth="yes"/>
      <point x="237" y="18"/>
      <point x="233" y="18"/>
      <point x="230" y="18" type="curve"/>
    </contour>
    <contour>
      <point x="284" y="387" type="line"/>
      <point x="217" y="414"/>
      <point x="178" y="451"/>
      <point x="178" y="524" type="curve" smooth="yes"/>
      <point x="178" y="606"/>
      <point x="244" y="680"/>
      <point x="366" y="680" type="curve" smooth="yes"/>
      <point x="370" y="680"/>
      <point x="373" y="680"/>
      <point x="377" y="680" type="curve"/>
      <point x="302" y="380" type="line"/>
    </contour>
  </outline>
</glyph>
<glyph name="percent" format="1">
  <advance width="827"/>
  <unicode hex="0025"/>
  <outline>
    <contour>
      <point x="212" y="342" type="curve"/>
      <point x="168" y="342"/>
      <point x="132" y="370"/>
      <point x="132" y="438" type="curve" smooth="yes"/>
      <point x="132" y="463"/>
      <point x="135" y="492"/>
      <point x="143" y="525" type="curve" smooth="yes"/>
      <point x="176" y="655"/>
      <point x="239" y="694"/>
      <point x="296" y="694" type="curve"/>
      <point x="340" y="694"/>
      <point x="376" y="666"/>
      <point x="376" y="598" type="curve" smooth="yes"/>
      <point x="376" y="573"/>
      <point x="373" y="544"/>
      <point x="365" y="511" type="curve" smooth="yes"/>
      <point x="332" y="381"/>
      <point x="269" y="342"/>
    </contour>
    <contour>
      <point x="569" y="4" type="curve"/>
      <point x="525" y="4"/>
      <point x="489" y="32"/>
      <point x="489" y="100" type="curve" smooth="yes"/>
      <point x="489" y="125"/>
      <point x="492" y="154"/>
      <point x="500" y="187" type="curve" smooth="yes"/>
      <point x="533" y="317"/>
      <point x="596" y="356"/>
      <point x="653" y="356" type="curve"/>
      <point x="697" y="356"/>
      <point x="733" y="328"/>
      <point x="733" y="260" type="curve" smooth="yes"/>
      <point x="733" y="235"/>
      <point x="730" y="206"/>
      <point x="722" y="173" type="curve" smooth="yes"/>
      <point x="689" y="43"/>
      <point x="626" y="4"/>
    </contour>
    <contour>
      <point x="212" y="326" type="curve"/>
      <point x="319" y="326"/>
      <point x="396" y="444"/>
      <point x="396" y="594" type="curve" smooth="yes"/>
      <point x="396" y="674"/>
      <point x="353" y="710"/>
      <point x="296" y="710" type="curve"/>
      <point x="189" y="710"/>
      <point x="112" y="592"/>
      <point x="112" y="442" type="curve" smooth="yes"/>
      <point x="112" y="362"/>
      <point x="155" y="326"/>
    </contour>
    <contour>
      <point x="569" y="-12" type="curve"/>
      <point x="676" y="-12"/>
      <point x="753" y="106"/>
      <point x="753" y="256" type="curve" smooth="yes"/>
      <point x="753" y="336"/>
      <point x="710" y="372"/>
      <point x="653" y="372" type="curve"/>
      <point x="546" y="372"/>
      <point x="469" y="254"/>
      <point x="469" y="104" type="curve" smooth="yes"/>
      <point x="469" y="24"/>
      <point x="512" y="-12"/>
    </contour>
    <contour>
      <point x="112" y="0" type="line" name="hr01"/>
      <point x="135" y="0" type="line"/>
      <point x="753" y="698" type="line"/>
      <point x="730" y="698" type="line"/>
    </contour>
  </outline>
</glyph>
<glyph name="ampersand" format="1">
  <advance width="618"/>
  <unicode hex="0026"/>
  <outline>
    <contour>
      <point x="194" y="-12" type="curve" smooth="yes"/>
      <point x="266" y="-12"/>
      <point x="337" y="15"/>
      <point x="397" y="74" type="curve"/>
      <point x="409" y="53" type="line" smooth="yes"/>
      <point x="435" y="8"/>
      <point x="464" y="0"/>
      <point x="520" y="0" type="curve" smooth="yes" name="hr01"/>
      <point x="531" y="0" type="line"/>
      <point x="535" y="18" type="line"/>
      <point x="474" y="18"/>
      <point x="447" y="24"/>
      <point x="427" y="59" type="curve" smooth="yes"/>
      <point x="410" y="88" type="line"/>
      <point x="460" y="144"/>
      <point x="500" y="224"/>
      <point x="524" y="333" type="curve"/>
      <point x="612" y="333" type="line"/>
      <point x="615" y="349" type="line"/>
      <point x="419" y="349" type="line"/>
      <point x="415" y="333" type="line"/>
      <point x="504" y="333" type="line"/>
      <point x="483" y="237"/>
      <point x="447" y="160"/>
      <point x="400" y="105" type="curve"/>
      <point x="246" y="369" type="line"/>
      <point x="394" y="445"/>
      <point x="477" y="514"/>
      <point x="477" y="603" type="curve" smooth="yes"/>
      <point x="477" y="672"/>
      <point x="438" y="710"/>
      <point x="358" y="710" type="curve" smooth="yes"/>
      <point x="246" y="710"/>
      <point x="172" y="620"/>
      <point x="172" y="515" type="curve" smooth="yes"/>
      <point x="172" y="465"/>
      <point x="189" y="430"/>
      <point x="214" y="387" type="curve" smooth="yes"/>
      <point x="221" y="375" type="line"/>
      <point x="154" y="342"/>
      <point x="33" y="278"/>
      <point x="33" y="135" type="curve" smooth="yes"/>
      <point x="33" y="45"/>
      <point x="85" y="-12"/>
    </contour>
    <contour>
      <point x="238" y="383" type="curve"/>
      <point x="213" y="426"/>
      <point x="194" y="464"/>
      <point x="194" y="517" type="curve" smooth="yes"/>
      <point x="194" y="533"/>
      <point x="198" y="552"/>
      <point x="202" y="568" type="curve" smooth="yes"/>
      <point x="220" y="641"/>
      <point x="275" y="692"/>
      <point x="357" y="692" type="curve" smooth="yes"/>
      <point x="426" y="692"/>
      <point x="455" y="659"/>
      <point x="455" y="603" type="curve" smooth="yes"/>
      <point x="455" y="589"/>
      <point x="453" y="574"/>
      <point x="448" y="560" type="curve" smooth="yes"/>
      <point x="424" y="495"/>
      <point x="334" y="431"/>
    </contour>
    <contour>
      <point x="196" y="6" type="curve"/>
      <point x="117" y="6"/>
      <point x="55" y="40"/>
      <point x="55" y="135" type="curve" smooth="yes"/>
      <point x="55" y="150"/>
      <point x="61" y="178"/>
      <point x="64" y="192" type="curve" smooth="yes"/>
      <point x="83" y="284"/>
      <point x="166" y="328"/>
      <point x="229" y="360" type="curve"/>
      <point x="387" y="91" type="line"/>
      <point x="334" y="35"/>
      <point x="269" y="6"/>
    </contour>
  </outline>
</glyph>
<glyph name="quotesingle" format="1">
  <advance width="196"/>
  <unicode hex="0027"/>
  <outline>
    <contour>
      <point x="152" y="498" type="line" name="hr00"/>
      <point x="165" y="498" type="line"/>
      <point x="213" y="670" type="line"/>
      <point x="233" y="748" type="line"/>
      <point x="211" y="748" type="line"/>
      <point x="191" y="670" type="line"/>
    </contour>
  </outline>
</glyph>
<glyph name="parenleft" format="1">
  <advance width="273"/>
  <unicode hex="0028"/>
  <outline>
    <contour>
      <point x="152" y="-138" type="curve" name="hr00"/>
      <point x="170" y="-138" type="line"/>
      <point x="114" y="-76"/>
      <point x="76" y="35"/>
      <point x="76" y="153" type="curve" smooth="yes"/>
      <point x="76" y="191"/>
      <point x="82" y="236"/>
      <point x="98" y="300" type="curve" smooth="yes"/>
      <point x="106" y="331" type="line" smooth="yes"/>
      <point x="155" y="520"/>
      <point x="281" y="673"/>
      <point x="398" y="760" type="curve"/>
      <point x="376" y="760" type="line"/>
      <point x="241" y="661"/>
      <point x="125" y="498"/>
      <point x="78" y="316" type="curve" smooth="yes"/>
      <point x="65" y="262"/>
      <point x="57" y="207"/>
      <point x="57" y="151" type="curve" smooth="yes"/>
      <point x="57" y="22"/>
      <point x="102" y="-83"/>
    </contour>
  </outline>
</glyph>
<glyph name="parenright" format="1">
  <advance width="273"/>
  <unicode hex="0029"/>
  <outline>
    <contour>
      <point x="-98" y="-138" type="curve" name="hr00"/>
      <point x="-76" y="-138" type="line"/>
      <point x="59" y="-39"/>
      <point x="175" y="124"/>
      <point x="222" y="306" type="curve" smooth="yes"/>
      <point x="235" y="360"/>
      <point x="243" y="415"/>
      <point x="243" y="471" type="curve" smooth="yes"/>
      <point x="243" y="600"/>
      <point x="198" y="705"/>
      <point x="148" y="760" type="curve"/>
      <point x="130" y="760" type="line"/>
      <point x="186" y="698"/>
      <point x="224" y="587"/>
      <point x="224" y="469" type="curve" smooth="yes"/>
      <point x="224" y="431"/>
      <point x="218" y="386"/>
      <point x="202" y="322" type="curve" smooth="yes"/>
      <point x="194" y="291" type="line" smooth="yes"/>
      <point x="145" y="102"/>
      <point x="19" y="-51"/>
    </contour>
  </outline>
</glyph>
<glyph name="asterisk" format="1">
  <advance width="435"/>
  <unicode hex="002A"/>
  <outline>
    <contour>
      <point x="172" y="435" type="line" name="hr00"/>
      <point x="211" y="476" type="line"/>
      <point x="286" y="557" type="line"/>
      <point x="277" y="564" type="line"/>
      <point x="197" y="490" type="line"/>
      <point x="157" y="449" type="line"/>
    </contour>
    <contour>
      <point x="278" y="579" type="line"/>
      <point x="283" y="589" type="line"/>
      <point x="200" y="625" type="line"/>
      <point x="157" y="640" type="line"/>
      <point x="148" y="620" type="line"/>
      <point x="191" y="605" type="line"/>
    </contour>
    <contour>
      <point x="355" y="436" type="line"/>
      <point x="375" y="446" type="line"/>
      <point x="355" y="485" type="line"/>
      <point x="314" y="562" type="line"/>
      <point x="305" y="558" type="line"/>
      <point x="337" y="476" type="line"/>
    </contour>
    <contour>
      <point x="298" y="600" type="line"/>
      <point x="310" y="600" type="line"/>
      <point x="339" y="697" type="line"/>
      <point x="352" y="747" type="line"/>
      <point x="330" y="747" type="line"/>
      <point x="317" y="697" type="line"/>
    </contour>
    <contour>
      <point x="322" y="578" type="line"/>
      <point x="422" y="604" type="line"/>
      <point x="473" y="620" type="line"/>
      <point x="467" y="640" type="line"/>
      <point x="417" y="623" type="line"/>
      <point x="321" y="589" type="line"/>
    </contour>
  </outline>
</glyph>
<glyph name="plus" format="1">
  <advance width="550"/>
  <unicode hex="002B"/>
  <outline>
    <contour>
      <point x="217" y="63" type="line" name="hr00"/>
      <point x="237" y="63" type="line"/>
      <point x="296" y="298" type="line"/>
      <point x="524" y="298" type="line"/>
      <point x="528" y="314" type="line"/>
      <point x="300" y="314" type="line"/>
      <point x="359" y="549" type="line"/>
      <point x="339" y="549" type="line"/>
      <point x="280" y="314" type="line"/>
      <point x="52" y="314" type="line"/>
      <point x="48" y="298" type="line"/>
      <point x="276" y="298" type="line"/>
    </contour>
  </outline>
</glyph>
<glyph name="comma" format="1">
  <advance width="205"/>
  <unicode hex="002C"/>
  <outline>
    <contour>
      <point x="-59" y="-147" type="curve" name="hr00"/>
      <point x="-45" y="-147" type="line"/>
      <point x="-5" y="-123"/>
      <point x="39" y="-68"/>
      <point x="60" y="-20" type="curve" smooth="yes"/>
      <point x="68" y="-3"/>
      <point x="74" y="11"/>
      <point x="74" y="24" type="curve" smooth="yes"/>
      <point x="74" y="41"/>
      <point x="65" y="52"/>
      <point x="48" y="52" type="curve" smooth="yes"/>
      <point x="30" y="52"/>
      <point x="16" y="38"/>
      <point x="16" y="19" type="curve" smooth="yes"/>
      <point x="16" y="5"/>
      <point x="26" y="-4"/>
      <point x="41" y="-4" type="curve" smooth="yes"/>
      <point x="48" y="-4" type="line"/>
      <point x="34" y="-51"/>
      <point x="0" y="-102"/>
    </contour>
  </outline>
</glyph>
<glyph name="hyphen" format="1">
  <advance width="348"/>
  <unicode hex="002D"/>
  <outline>
    <contour>
      <point x="79" y="295" type="line" name="hr00"/>
      <point x="290" y="295" type="line"/>
      <point x="295" y="315" type="line"/>
      <point x="84" y="315" type="line"/>
    </contour>
  </outline>
</glyph>
<glyph name="period" format="1">
  <advance width="205"/>
  <unicode hex="002E"/>
  <outline>
    <contour>
      <point x="41" y="-5" type="curve" smooth="yes" name="hr00"/>
      <point x="54" y="-5"/>
      <point x="63" y="2"/>
      <point x="67" y="9" type="curve" smooth="yes"/>
      <point x="70" y="14"/>
      <point x="72" y="21"/>
      <point x="72" y="27" type="curve" smooth="yes"/>
      <point x="72" y="39"/>
      <point x="65" y="51"/>
      <point x="48" y="51" type="curve" smooth="yes"/>
      <point x="35" y="51"/>
      <point x="26" y="44"/>
      <point x="22" y="37" type="curve" smooth="yes"/>
      <point x="19" y="32"/>
      <point x="17" y="25"/>
      <point x="17" y="19" type="curve" smooth="yes"/>
      <point x="17" y="7"/>
      <point x="24" y="-5"/>
    </contour>
  </outline>
</glyph>
<glyph name="slash" format="1">
  <advance width="314"/>
  <unicode hex="002F"/>
  <outline>
    <contour>
      <point x="-83" y="-143" type="line" name="hr00"/>
      <point x="-63" y="-143" type="line"/>
      <point x="397" y="748" type="line"/>
      <point x="377" y="748" type="line"/>
    </contour>
  </outline>
</glyph>
<glyph name="zero" format="1">
  <advance width="550"/>
  <unicode hex="0030"/>
  <outline>
    <contour>
      <point x="221" y="6" type="curve" name="hr00"/>
      <point x="120" y="6"/>
      <point x="80" y="81"/>
      <point x="80" y="195" type="curve" smooth="yes"/>
      <point x="80" y="235"/>
      <point x="84" y="281"/>
      <point x="109" y="390" type="curve" smooth="yes"/>
      <point x="153" y="584"/>
      <point x="245" y="692"/>
      <point x="367" y="692" type="curve" smooth="yes"/>
      <point x="468" y="692"/>
      <point x="508" y="617"/>
      <point x="508" y="503" type="curve" smooth="yes"/>
      <point x="508" y="463"/>
      <point x="504" y="417"/>
      <point x="479" y="308" type="curve" smooth="yes"/>
      <point x="435" y="114"/>
      <point x="343" y="6"/>
    </contour>
    <contour>
      <point x="219" y="-12" type="curve" smooth="yes"/>
      <point x="440" y="-12"/>
      <point x="528" y="302"/>
      <point x="528" y="500" type="curve" smooth="yes"/>
      <point x="528" y="635"/>
      <point x="477" y="710"/>
      <point x="369" y="710" type="curve" smooth="yes"/>
      <point x="148" y="710"/>
      <point x="60" y="396"/>
      <point x="60" y="198" type="curve" smooth="yes"/>
      <point x="60" y="63"/>
      <point x="111" y="-12"/>
    </contour>
  </outline>
</glyph>
<glyph name="one" format="1">
  <advance width="550"/>
  <unicode hex="0031"/>
  <outline>
    <contour>
      <point x="52" y="0" type="line" name="hr00"/>
      <point x="394" y="0" type="line"/>
      <point x="398" y="18" type="line"/>
      <point x="233" y="18" type="line"/>
      <point x="402" y="698" type="line"/>
      <point x="380" y="698" type="line"/>
      <point x="189" y="602" type="line"/>
      <point x="191" y="583" type="line"/>
      <point x="374" y="673" type="line"/>
      <point x="211" y="18" type="line"/>
      <point x="56" y="18" type="line"/>
    </contour>
  </outline>
</glyph>
<glyph name="two" format="1">
  <advance width="550"/>
  <unicode hex="0032"/>
  <outline>
    <contour>
      <point x="21" y="0" type="line" name="hr00"/>
      <point x="403" y="0" type="line"/>
      <point x="435" y="128" type="line"/>
      <point x="415" y="128" type="line"/>
      <point x="387" y="18" type="line"/>
      <point x="51" y="18" type="line"/>
      <point x="50" y="20" type="line"/>
      <point x="336" y="273" type="line" smooth="yes"/>
      <point x="439" y="364"/>
      <point x="510" y="459"/>
      <point x="510" y="560" type="curve" smooth="yes"/>
      <point x="510" y="654"/>
      <point x="459" y="710"/>
      <point x="341" y="710" type="curve" smooth="yes"/>
      <point x="260" y="710"/>
      <point x="180" y="661"/>
      <point x="180" y="614" type="curve" smooth="yes"/>
      <point x="180" y="594"/>
      <point x="192" y="583"/>
      <point x="208" y="583" type="curve" smooth="yes"/>
      <point x="224" y="583"/>
      <point x="235" y="594"/>
      <point x="235" y="610" type="curve" smooth="yes"/>
      <point x="235" y="627"/>
      <point x="224" y="639"/>
      <point x="203" y="642" type="curve"/>
      <point x="203" y="645" type="line"/>
      <point x="235" y="674"/>
      <point x="285" y="692"/>
      <point x="338" y="692" type="curve" smooth="yes"/>
      <point x="444" y="692"/>
      <point x="488" y="647"/>
      <point x="488" y="561" type="curve" smooth="yes"/>
      <point x="488" y="549"/>
      <point x="487" y="534"/>
      <point x="474" y="486" type="curve" smooth="yes"/>
      <point x="454" y="413"/>
      <point x="401" y="356"/>
      <point x="323" y="286" type="curve" smooth="yes"/>
      <point x="25" y="18" type="line"/>
    </contour>
  </outline>
</glyph>
<glyph name="three" format="1">
  <advance width="550"/>
  <unicode hex="0033"/>
  <outline>
    <contour>
      <point x="203" y="-12" type="curve" smooth="yes" name="hr00"/>
      <point x="344" y="-12"/>
      <point x="438" y="84"/>
      <point x="438" y="222" type="curve" smooth="yes"/>
      <point x="438" y="305"/>
      <point x="383" y="355"/>
      <point x="323" y="363" type="curve"/>
      <point x="323" y="366" type="line"/>
      <point x="432" y="382"/>
      <point x="502" y="458"/>
      <point x="502" y="570" type="curve" smooth="yes"/>
      <point x="502" y="658"/>
      <point x="442" y="710"/>
      <point x="342" y="710" type="curve" smooth="yes"/>
      <point x="257" y="710"/>
      <point x="173" y="661"/>
      <point x="173" y="614" type="curve" smooth="yes"/>
      <point x="173" y="594"/>
      <point x="185" y="583"/>
      <point x="201" y="583" type="curve" smooth="yes"/>
      <point x="217" y="583"/>
      <point x="228" y="594"/>
      <point x="228" y="610" type="curve" smooth="yes"/>
      <point x="228" y="627"/>
      <point x="217" y="639"/>
      <point x="196" y="642" type="curve"/>
      <point x="196" y="645" type="line"/>
      <point x="229" y="675"/>
      <point x="283" y="692"/>
      <point x="339" y="692" type="curve" smooth="yes"/>
      <point x="435" y="692"/>
      <point x="480" y="646"/>
      <point x="480" y="574" type="curve" smooth="yes"/>
      <point x="480" y="549"/>
      <point x="473" y="518"/>
      <point x="467" y="494" type="curve" smooth="yes"/>
      <point x="448" y="418"/>
      <point x="368" y="375"/>
      <point x="277" y="375" type="curve" smooth="yes"/>
      <point x="223" y="375" type="line"/>
      <point x="219" y="357" type="line"/>
      <point x="264" y="357" type="line" smooth="yes"/>
      <point x="351" y="357"/>
      <point x="416" y="314"/>
      <point x="416" y="226" type="curve" smooth="yes"/>
      <point x="416" y="201"/>
      <point x="409" y="170"/>
      <point x="403" y="146" type="curve" smooth="yes"/>
      <point x="381" y="60"/>
      <point x="302" y="6"/>
      <point x="201" y="6" type="curve" smooth="yes"/>
      <point x="153" y="6"/>
      <point x="101" y="18"/>
      <point x="64" y="50" type="curve"/>
      <point x="64" y="54" type="line"/>
      <point x="86" y="58"/>
      <point x="100" y="72"/>
      <point x="100" y="89" type="curve" smooth="yes"/>
      <point x="100" y="103"/>
      <point x="92" y="113"/>
      <point x="74" y="113" type="curve" smooth="yes"/>
      <point x="55" y="113"/>
      <point x="42" y="97"/>
      <point x="42" y="77" type="curve" smooth="yes"/>
      <point x="42" y="40"/>
      <point x="109" y="-12"/>
    </contour>
  </outline>
</glyph>
<glyph name="four" format="1">
  <advance width="550"/>
  <unicode hex="0034"/>
  <outline>
    <contour>
      <point x="294" y="0" type="line" name="hr00"/>
      <point x="316" y="0" type="line"/>
      <point x="356" y="161" type="line"/>
      <point x="442" y="161" type="line"/>
      <point x="446" y="179" type="line"/>
      <point x="361" y="179" type="line"/>
      <point x="490" y="698" type="line"/>
      <point x="452" y="698" type="line"/>
      <point x="18" y="179" type="line"/>
      <point x="14" y="161" type="line"/>
      <point x="334" y="161" type="line"/>
    </contour>
    <contour>
      <point x="463" y="684" type="line"/>
      <point x="465" y="684" type="line"/>
      <point x="339" y="179" type="line"/>
      <point x="42" y="179" type="line"/>
    </contour>
  </outline>
</glyph>
<glyph name="five" format="1">
  <advance width="550"/>
  <unicode hex="0035"/>
  <outline>
    <contour>
      <point x="210" y="-12" type="curve" smooth="yes" name="hr00"/>
      <point x="370" y="-12"/>
      <point x="460" y="121"/>
      <point x="460" y="257" type="curve" smooth="yes"/>
      <point x="460" y="359"/>
      <point x="406" y="416"/>
      <point x="311" y="416" type="curve" smooth="yes"/>
      <point x="244" y="416"/>
      <point x="197" y="395"/>
      <point x="156" y="343" type="curve"/>
      <point x="153" y="344" type="line"/>
      <point x="248" y="680" type="line"/>
      <point x="535" y="680" type="line"/>
      <point x="539" y="698" type="line"/>
      <point x="233" y="698" type="line"/>
      <point x="127" y="327" type="line"/>
      <point x="151" y="321" type="line"/>
      <point x="192" y="373"/>
      <point x="240" y="398"/>
      <point x="307" y="398" type="curve" smooth="yes"/>
      <point x="386" y="398"/>
      <point x="438" y="359"/>
      <point x="438" y="257" type="curve" smooth="yes"/>
      <point x="438" y="232"/>
      <point x="431" y="200"/>
      <point x="425" y="177" type="curve" smooth="yes"/>
      <point x="397" y="70"/>
      <point x="315" y="6"/>
      <point x="208" y="6" type="curve" smooth="yes"/>
      <point x="163" y="6"/>
      <point x="116" y="20"/>
      <point x="83" y="50" type="curve"/>
      <point x="83" y="54" type="line"/>
      <point x="105" y="58"/>
      <point x="119" y="72"/>
      <point x="119" y="89" type="curve" smooth="yes"/>
      <point x="119" y="103"/>
      <point x="111" y="113"/>
      <point x="93" y="113" type="curve" smooth="yes"/>
      <point x="74" y="113"/>
      <point x="61" y="97"/>
      <point x="61" y="77" type="curve" smooth="yes"/>
      <point x="61" y="40"/>
      <point x="123" y="-12"/>
    </contour>
  </outline>
</glyph>
<glyph name="six" format="1">
  <advance width="550"/>
  <unicode hex="0036"/>
  <outline>
    <contour>
      <point x="223" y="-12" type="curve" smooth="yes" name="hr00"/>
      <point x="364" y="-12"/>
      <point x="463" y="109"/>
      <point x="463" y="257" type="curve" smooth="yes"/>
      <point x="463" y="363"/>
      <point x="405" y="416"/>
      <point x="312" y="416" type="curve" smooth="yes"/>
      <point x="219" y="416"/>
      <point x="161" y="374"/>
      <point x="117" y="288" type="curve"/>
      <point x="113" y="288" type="line"/>
      <point x="160" y="449"/>
      <point x="300" y="632"/>
      <point x="492" y="698" type="curve"/>
      <point x="485" y="710" type="line"/>
      <point x="215" y="626"/>
      <point x="71" y="334"/>
      <point x="71" y="154" type="curve" smooth="yes"/>
      <point x="71" y="46"/>
      <point x="127" y="-12"/>
    </contour>
    <contour>
      <point x="227" y="6" type="curve"/>
      <point x="146" y="6"/>
      <point x="94" y="45"/>
      <point x="94" y="147" type="curve" smooth="yes"/>
      <point x="94" y="172"/>
      <point x="100" y="205"/>
      <point x="106" y="228" type="curve" smooth="yes"/>
      <point x="134" y="334"/>
      <point x="210" y="398"/>
      <point x="308" y="398" type="curve" smooth="yes"/>
      <point x="390" y="398"/>
      <point x="441" y="352"/>
      <point x="441" y="257" type="curve" smooth="yes"/>
      <point x="441" y="232"/>
      <point x="435" y="199"/>
      <point x="429" y="176" type="curve" smooth="yes"/>
      <point x="401" y="70"/>
      <point x="325" y="6"/>
    </contour>
  </outline>
</glyph>
<glyph name="seven" format="1">
  <advance width="550"/>
  <unicode hex="0037"/>
  <outline>
    <contour>
      <point x="120" y="0" type="line" name="hr00"/>
      <point x="146" y="0" type="line"/>
      <point x="577" y="680" type="line"/>
      <point x="581" y="698" type="line"/>
      <point x="201" y="698" type="line"/>
      <point x="156" y="518" type="line"/>
      <point x="176" y="518" type="line"/>
      <point x="217" y="680" type="line"/>
      <point x="555" y="680" type="line"/>
    </contour>
  </outline>
</glyph>
<glyph name="eight" format="1">
  <advance width="550"/>
  <unicode hex="0038"/>
  <outline>
    <contour>
      <point x="219" y="-12" type="curve" smooth="yes" name="hr00"/>
      <point x="359" y="-12"/>
      <point x="465" y="86"/>
      <point x="465" y="216" type="curve" smooth="yes"/>
      <point x="465" y="291"/>
      <point x="421" y="340"/>
      <point x="362" y="361" type="curve"/>
      <point x="363" y="365" type="line"/>
      <point x="456" y="384"/>
      <point x="529" y="465"/>
      <point x="529" y="568" type="curve" smooth="yes"/>
      <point x="529" y="653"/>
      <point x="469" y="710"/>
      <point x="376" y="710" type="curve" smooth="yes"/>
      <point x="252" y="710"/>
      <point x="154" y="619"/>
      <point x="154" y="498" type="curve" smooth="yes"/>
      <point x="154" y="433"/>
      <point x="187" y="388"/>
      <point x="239" y="371" type="curve"/>
      <point x="238" y="367" type="line"/>
      <point x="126" y="350"/>
      <point x="44" y="261"/>
      <point x="44" y="146" type="curve" smooth="yes"/>
      <point x="44" y="52"/>
      <point x="112" y="-12"/>
    </contour>
    <contour>
      <point x="221" y="6" type="curve"/>
      <point x="127" y="6"/>
      <point x="66" y="61"/>
      <point x="66" y="142" type="curve" smooth="yes"/>
      <point x="66" y="157"/>
      <point x="67" y="166"/>
      <point x="75" y="198" type="curve" smooth="yes"/>
      <point x="99" y="295"/>
      <point x="181" y="356"/>
      <point x="288" y="356" type="curve" smooth="yes"/>
      <point x="382" y="356"/>
      <point x="443" y="301"/>
      <point x="443" y="220" type="curve" smooth="yes"/>
      <point x="443" y="205"/>
      <point x="442" y="196"/>
      <point x="434" y="164" type="curve" smooth="yes"/>
      <point x="410" y="67"/>
      <point x="328" y="6"/>
    </contour>
    <contour>
      <point x="310" y="374" type="curve"/>
      <point x="225" y="374"/>
      <point x="176" y="422"/>
      <point x="176" y="495" type="curve" smooth="yes"/>
      <point x="176" y="509"/>
      <point x="178" y="522"/>
      <point x="185" y="550" type="curve" smooth="yes"/>
      <point x="206" y="634"/>
      <point x="279" y="692"/>
      <point x="373" y="692" type="curve" smooth="yes"/>
      <point x="458" y="692"/>
      <point x="507" y="644"/>
      <point x="507" y="571" type="curve" smooth="yes"/>
      <point x="507" y="557"/>
      <point x="505" y="544"/>
      <point x="498" y="516" type="curve" smooth="yes"/>
      <point x="477" y="432"/>
      <point x="404" y="374"/>
    </contour>
  </outline>
</glyph>
<glyph name="nine" format="1">
  <advance width="550"/>
  <unicode hex="0039"/>
  <outline>
    <contour>
      <point x="113" y="-12" type="line" name="hr00"/>
      <point x="383" y="72"/>
      <point x="527" y="364"/>
      <point x="527" y="544" type="curve" smooth="yes"/>
      <point x="527" y="652"/>
      <point x="471" y="710"/>
      <point x="375" y="710" type="curve" smooth="yes"/>
      <point x="234" y="710"/>
      <point x="135" y="589"/>
      <point x="135" y="441" type="curve" smooth="yes"/>
      <point x="135" y="335"/>
      <point x="193" y="282"/>
      <point x="286" y="282" type="curve" smooth="yes"/>
      <point x="379" y="282"/>
      <point x="437" y="324"/>
      <point x="481" y="410" type="curve"/>
      <point x="485" y="410" type="line"/>
      <point x="438" y="249"/>
      <point x="298" y="66"/>
      <point x="106" y="0" type="curve"/>
    </contour>
    <contour>
      <point x="290" y="300" type="curve"/>
      <point x="208" y="300"/>
      <point x="157" y="346"/>
      <point x="157" y="441" type="curve" smooth="yes"/>
      <point x="157" y="466"/>
      <point x="163" y="499"/>
      <point x="169" y="522" type="curve" smooth="yes"/>
      <point x="197" y="628"/>
      <point x="273" y="692"/>
      <point x="371" y="692" type="curve" smooth="yes"/>
      <point x="452" y="692"/>
      <point x="504" y="653"/>
      <point x="504" y="551" type="curve" smooth="yes"/>
      <point x="504" y="526"/>
      <point x="498" y="493"/>
      <point x="492" y="470" type="curve" smooth="yes"/>
      <point x="464" y="364"/>
      <point x="388" y="300"/>
    </contour>
  </outline>
</glyph>
<glyph name="less" format="1">
  <advance width="550"/>
  <unicode hex="003C"/>
  <outline>
    <contour>
      <point x="403" y="38" type="line" name="hr00"/>
      <point x="408" y="58" type="line"/>
      <point x="111" y="301" type="line"/>
      <point x="111" y="303" type="line"/>
      <point x="530" y="548" type="line"/>
      <point x="536" y="572" type="line"/>
      <point x="90" y="311" type="line"/>
      <point x="87" y="298" type="line"/>
    </contour>
  </outline>
</glyph>
<glyph name="equal" format="1">
  <advance width="550"/>
  <unicode hex="003D"/>
  <outline>
    <contour>
      <point x="26" y="209" type="line" name="hr00"/>
      <point x="502" y="209" type="line"/>
      <point x="506" y="225" type="line"/>
      <point x="30" y="225" type="line"/>
    </contour>
    <contour>
      <point x="70" y="387" type="line"/>
      <point x="546" y="387" type="line"/>
      <point x="550" y="403" type="line"/>
      <point x="74" y="403" type="line"/>
    </contour>
  </outline>
</glyph>
<glyph name="greater" format="1">
  <advance width="550"/>
  <unicode hex="003E"/>
  <outline>
    <contour>
      <point x="39" y="38" type="line" name="hr00"/>
      <point x="485" y="299" type="line"/>
      <point x="488" y="312" type="line"/>
      <point x="172" y="572" type="line"/>
      <point x="167" y="552" type="line"/>
      <point x="464" y="309" type="line"/>
      <point x="464" y="307" type="line"/>
      <point x="45" y="62" type="line"/>
    </contour>
  </outline>
</glyph>
<glyph name="question" format="1">
  <advance width="487"/>
  <unicode hex="003F"/>
  <outline>
    <contour>
      <point x="161" y="176" type="line"/>
      <point x="178" y="176" type="line"/>
      <point x="218" y="335" type="line"/>
      <point x="378" y="354"/>
      <point x="465" y="459"/>
      <point x="465" y="580" type="curve" smooth="yes"/>
      <point x="465" y="655"/>
      <point x="417" y="710"/>
      <point x="316" y="710" type="curve" smooth="yes"/>
      <point x="224" y="710"/>
      <point x="146" y="657"/>
      <point x="146" y="609" type="curve" smooth="yes"/>
      <point x="146" y="594"/>
      <point x="156" y="582"/>
      <point x="173" y="582" type="curve" smooth="yes"/>
      <point x="190" y="582"/>
      <point x="200" y="594"/>
      <point x="200" y="609" type="curve" smooth="yes"/>
      <point x="200" y="625"/>
      <point x="191" y="637"/>
      <point x="171" y="640" type="curve"/>
      <point x="171" y="643" type="line"/>
      <point x="201" y="670"/>
      <point x="252" y="692"/>
      <point x="314" y="692" type="curve" smooth="yes"/>
      <point x="393" y="692"/>
      <point x="443" y="653"/>
      <point x="443" y="580" type="curve" smooth="yes"/>
      <point x="443" y="562"/>
      <point x="439" y="540"/>
      <point x="428" y="501" type="curve" smooth="yes"/>
      <point x="406" y="426"/>
      <point x="324" y="359"/>
      <point x="204" y="349" type="curve"/>
    </contour>
    <contour>
      <point x="129" y="-5" type="curve" smooth="yes"/>
      <point x="143" y="-5"/>
      <point x="152" y="3"/>
      <point x="156" y="11" type="curve" smooth="yes"/>
      <point x="159" y="17"/>
      <point x="160" y="23"/>
      <point x="160" y="30" type="curve" smooth="yes" name="hr01"/>
      <point x="160" y="41"/>
      <point x="152" y="51"/>
      <point x="136" y="51" type="curve" smooth="yes"/>
      <point x="122" y="51"/>
      <point x="113" y="43"/>
      <point x="109" y="35" type="curve" smooth="yes"/>
      <point x="106" y="29"/>
      <point x="105" y="23"/>
      <point x="105" y="16" type="curve" smooth="yes"/>
      <point x="105" y="5"/>
      <point x="113" y="-5"/>
    </contour>
  </outline>
</glyph>
<glyph name="at" format="1">
  <advance width="837"/>
  <unicode hex="0040"/>
  <outline>
    <contour>
      <point x="385" y="-121" type="curve" smooth="yes"/>
      <point x="416" y="-121"/>
      <point x="488" y="-118"/>
      <point x="533" y="-115" type="curve"/>
      <point x="536" y="-105" type="line"/>
      <point x="387" y="-105" type="line" smooth="yes"/>
      <point x="188" y="-105"/>
      <point x="87" y="1"/>
      <point x="87" y="187" type="curve" smooth="yes"/>
      <point x="87" y="230"/>
      <point x="91" y="277"/>
      <point x="104" y="328" type="curve" smooth="yes"/>
      <point x="162" y="561"/>
      <point x="329" y="694"/>
      <point x="519" y="694" type="curve" smooth="yes"/>
      <point x="678" y="694"/>
      <point x="761" y="594"/>
      <point x="761" y="434" type="curve" smooth="yes"/>
      <point x="761" y="396"/>
      <point x="756" y="352"/>
      <point x="744" y="302" type="curve" smooth="yes"/>
      <point x="706" y="143"/>
      <point x="627" y="83"/>
      <point x="560" y="83" type="curve" smooth="yes"/>
      <point x="520" y="83"/>
      <point x="503" y="112"/>
      <point x="503" y="160" type="curve" smooth="yes"/>
      <point x="503" y="179"/>
      <point x="508" y="198"/>
      <point x="513" y="220" type="curve" smooth="yes"/>
      <point x="581" y="494" type="line"/>
      <point x="572" y="494" type="line"/>
      <point x="555" y="452" type="line"/>
      <point x="551" y="452" type="line"/>
      <point x="546" y="491"/>
      <point x="511" y="506"/>
      <point x="472" y="506" type="curve" smooth="yes"/>
      <point x="338" y="506"/>
      <point x="265" y="324"/>
      <point x="265" y="181" type="curve" smooth="yes"/>
      <point x="265" y="118"/>
      <point x="279" y="69"/>
      <point x="331" y="69" type="curve" smooth="yes"/>
      <point x="409" y="69"/>
      <point x="469" y="177"/>
      <point x="497" y="253" type="curve"/>
      <point x="503" y="253" type="line"/>
      <point x="495" y="220" type="line" smooth="yes"/>
      <point x="490" y="201"/>
      <point x="487" y="180"/>
      <point x="487" y="160" type="curve" smooth="yes"/>
      <point x="487" y="113"/>
      <point x="504" y="69"/>
      <point x="563" y="69" type="curve" smooth="yes"/>
      <point x="693" y="69"/>
      <point x="780" y="262"/>
      <point x="780" y="428" type="curve" smooth="yes"/>
      <point x="780" y="608"/>
      <point x="685" y="710"/>
      <point x="519" y="710" type="curve" smooth="yes"/>
      <point x="261" y="710"/>
      <point x="66" y="471"/>
      <point x="66" y="191" type="curve" smooth="yes"/>
      <point x="66" y="-10"/>
      <point x="172" y="-121"/>
    </contour>
    <contour>
      <point x="336" y="85" type="curve" name="hr01"/>
      <point x="295" y="85"/>
      <point x="285" y="127"/>
      <point x="285" y="172" type="curve" smooth="yes"/>
      <point x="285" y="213"/>
      <point x="293" y="259"/>
      <point x="296" y="271" type="curve" smooth="yes"/>
      <point x="322" y="373"/>
      <point x="365" y="491"/>
      <point x="475" y="491" type="curve" smooth="yes"/>
      <point x="538" y="491"/>
      <point x="551" y="450"/>
      <point x="534" y="385" type="curve" smooth="yes"/>
      <point x="521" y="334" type="line" smooth="yes"/>
      <point x="506" y="276"/>
      <point x="422" y="85"/>
    </contour>
  </outline>
</glyph>
<glyph name="A" format="1">
  <advance width="651"/>
  <unicode hex="0041"/>
  <outline>
    <contour>
      <point x="-42" y="0" type="line" name="hr00"/>
      <point x="138" y="0" type="line"/>
      <point x="142" y="18" type="line"/>
      <point x="42" y="18" type="line"/>
      <point x="170" y="234" type="line"/>
      <point x="476" y="234" type="line"/>
      <point x="496" y="18" type="line"/>
      <point x="396" y="18" type="line"/>
      <point x="392" y="0" type="line"/>
      <point x="570" y="0" type="line"/>
      <point x="574" y="18" type="line"/>
      <point x="518" y="18" type="line"/>
      <point x="452" y="698" type="line"/>
      <point x="422" y="698" type="line"/>
      <point x="18" y="18" type="line"/>
      <point x="-38" y="18" type="line"/>
    </contour>
    <contour>
      <point x="432" y="678" type="line"/>
      <point x="434" y="678" type="line"/>
      <point x="474" y="252" type="line"/>
      <point x="180" y="252" type="line"/>
    </contour>
    <contour>
      <point x="263" y="0" type="move" name="bottom"/>
    </contour>
    <contour>
      <point x="569" y="0" type="move" name="bottomright"/>
    </contour>
    <contour>
      <point x="438" y="698" type="move" name="top"/>
    </contour>
  </outline>
</glyph>
<glyph name="B" format="1">
  <advance width="621"/>
  <unicode hex="0042"/>
  <outline>
    <contour>
      <point x="-3" y="0" type="line" name="hr00"/>
      <point x="302" y="0" type="line" smooth="yes"/>
      <point x="449" y="0"/>
      <point x="532" y="100"/>
      <point x="532" y="236" type="curve" smooth="yes"/>
      <point x="532" y="310"/>
      <point x="503" y="355"/>
      <point x="424" y="364" type="curve"/>
      <point x="424" y="367" type="line"/>
      <point x="521" y="381"/>
      <point x="591" y="464"/>
      <point x="591" y="570" type="curve" smooth="yes"/>
      <point x="591" y="653"/>
      <point x="546" y="698"/>
      <point x="447" y="698" type="curve" smooth="yes"/>
      <point x="170" y="698" type="line"/>
      <point x="166" y="680" type="line"/>
      <point x="246" y="680" type="line"/>
      <point x="81" y="18" type="line"/>
      <point x="1" y="18" type="line"/>
    </contour>
    <contour>
      <point x="187" y="356" type="line"/>
      <point x="378" y="356" type="line" smooth="yes"/>
      <point x="474" y="356"/>
      <point x="510" y="313"/>
      <point x="510" y="236" type="curve" smooth="yes"/>
      <point x="510" y="211"/>
      <point x="503" y="180"/>
      <point x="497" y="156" type="curve" smooth="yes"/>
      <point x="475" y="67"/>
      <point x="398" y="18"/>
      <point x="301" y="18" type="curve"/>
      <point x="103" y="18" type="line"/>
    </contour>
    <contour>
      <point x="268" y="680" type="line"/>
      <point x="449" y="680" type="line" smooth="yes"/>
      <point x="536" y="680"/>
      <point x="569" y="639"/>
      <point x="569" y="574" type="curve" smooth="yes"/>
      <point x="569" y="549"/>
      <point x="564" y="519"/>
      <point x="556" y="494" type="curve" smooth="yes"/>
      <point x="532" y="420"/>
      <point x="456" y="374"/>
      <point x="370" y="374" type="curve"/>
      <point x="192" y="374" type="line"/>
    </contour>
    <contour>
      <point x="208" y="0" type="move" name="bottom"/>
    </contour>
    <contour>
      <point x="383" y="698" type="move" name="top"/>
    </contour>
  </outline>
</glyph>
<glyph name="C" format="1">
  <advance width="603"/>
  <unicode hex="0043"/>
  <outline>
    <contour>
      <point x="292" y="-12" type="curve" smooth="yes"/>
      <point x="406" y="-12"/>
      <point x="476" y="56"/>
      <point x="526" y="141" type="curve"/>
      <point x="511" y="148" type="line"/>
      <point x="461" y="64"/>
      <point x="392" y="6"/>
      <point x="292" y="6" type="curve" smooth="yes"/>
      <point x="166" y="6"/>
      <point x="102" y="73"/>
      <point x="102" y="215" type="curve" smooth="yes"/>
      <point x="102" y="242"/>
      <point x="103" y="291"/>
      <point x="129" y="394" type="curve" smooth="yes"/>
      <point x="176" y="583"/>
      <point x="282" y="692"/>
      <point x="426" y="692" type="curve" smooth="yes"/>
      <point x="508" y="692"/>
      <point x="576" y="656"/>
      <point x="576" y="589" type="curve" smooth="yes"/>
      <point x="576" y="581"/>
      <point x="575" y="575"/>
      <point x="573" y="566" type="curve" smooth="yes"/>
      <point x="555" y="493" type="line"/>
      <point x="575" y="493" type="line"/>
      <point x="626" y="698" type="line" name="hr01"/>
      <point x="606" y="698" type="line"/>
      <point x="587" y="621" type="line"/>
      <point x="584" y="621" type="line"/>
      <point x="567" y="680"/>
      <point x="504" y="710"/>
      <point x="426" y="710" type="curve" smooth="yes" name="hr02"/>
      <point x="178" y="710"/>
      <point x="80" y="419"/>
      <point x="80" y="216" type="curve" smooth="yes"/>
      <point x="80" y="54"/>
      <point x="161" y="-12"/>
    </contour>
    <contour>
      <point x="292" y="0" type="move" name="bottom"/>
    </contour>
    <contour>
      <point x="425" y="698" type="move" name="top"/>
    </contour>
  </outline>
</glyph>
<glyph name="D" format="1">
  <advance width="675"/>
  <unicode hex="0044"/>
  <outline>
    <contour>
      <point x="-3" y="0" type="line" name="hr00"/>
      <point x="278" y="0" type="line" smooth="yes"/>
      <point x="523" y="0"/>
      <point x="634" y="264"/>
      <point x="634" y="482" type="curve" smooth="yes"/>
      <point x="634" y="635"/>
      <point x="549" y="698"/>
      <point x="412" y="698" type="curve" smooth="yes"/>
      <point x="170" y="698" type="line"/>
      <point x="166" y="680" type="line"/>
      <point x="246" y="680" type="line"/>
      <point x="81" y="18" type="line"/>
      <point x="1" y="18" type="line"/>
    </contour>
    <contour>
      <point x="268" y="680" type="line"/>
      <point x="412" y="680" type="line" smooth="yes"/>
      <point x="545" y="680"/>
      <point x="612" y="617"/>
      <point x="612" y="483" type="curve" smooth="yes"/>
      <point x="612" y="456"/>
      <point x="612" y="410"/>
      <point x="585" y="304" type="curve" smooth="yes"/>
      <point x="539" y="124"/>
      <point x="417" y="18"/>
      <point x="278" y="18" type="curve"/>
      <point x="103" y="18" type="line"/>
    </contour>
    <contour>
      <point x="208" y="0" type="move" name="bottom"/>
    </contour>
    <contour>
      <point x="383" y="698" type="move" name="top"/>
    </contour>
  </outline>
</glyph>
<glyph name="E" format="1">
  <advance width="581"/>
  <unicode hex="0045"/>
  <outline>
    <contour>
      <point x="-3" y="0" type="line" name="hr00"/>
      <point x="461" y="0" type="line"/>
      <point x="498" y="148" type="line"/>
      <point x="478" y="148" type="line"/>
      <point x="445" y="18" type="line"/>
      <point x="103" y="18" type="line"/>
      <point x="188" y="359" type="line"/>
      <point x="430" y="359" type="line"/>
      <point x="408" y="274" type="line"/>
      <point x="428" y="274" type="line"/>
      <point x="475" y="462" type="line"/>
      <point x="455" y="462" type="line"/>
      <point x="434" y="377" type="line"/>
      <point x="192" y="377" type="line"/>
      <point x="268" y="680" type="line"/>
      <point x="590" y="680" type="line"/>
      <point x="557" y="550" type="line"/>
      <point x="577" y="550" type="line"/>
      <point x="614" y="698" type="line"/>
      <point x="170" y="698" type="line"/>
      <point x="166" y="680" type="line"/>
      <point x="246" y="680" type="line"/>
      <point x="81" y="18" type="line"/>
      <point x="1" y="18" type="line"/>
    </contour>
    <contour>
      <point x="252" y="0" type="move" name="bottom"/>
    </contour>
    <contour>
      <point x="461" y="0" type="move" name="bottomright"/>
    </contour>
    <contour>
      <point x="404" y="698" type="move" name="top"/>
    </contour>
  </outline>
</glyph>
<glyph name="F" format="1">
  <advance width="548"/>
  <unicode hex="0046"/>
  <outline>
    <contour>
      <point x="-3" y="0" type="line" name="hr00"/>
      <point x="199" y="0" type="line"/>
      <point x="203" y="18" type="line"/>
      <point x="103" y="18" type="line"/>
      <point x="185" y="348" type="line"/>
      <point x="427" y="348" type="line"/>
      <point x="406" y="264" type="line"/>
      <point x="426" y="264" type="line"/>
      <point x="473" y="452" type="line"/>
      <point x="453" y="452" type="line"/>
      <point x="431" y="366" type="line"/>
      <point x="190" y="366" type="line"/>
      <point x="268" y="680" type="line"/>
      <point x="580" y="680" type="line"/>
      <point x="547" y="550" type="line"/>
      <point x="567" y="550" type="line"/>
      <point x="604" y="698" type="line"/>
      <point x="170" y="698" type="line"/>
      <point x="166" y="680" type="line"/>
      <point x="246" y="680" type="line"/>
      <point x="81" y="18" type="line"/>
      <point x="1" y="18" type="line"/>
    </contour>
    <contour>
      <point x="87" y="0" type="move" name="bottom"/>
    </contour>
    <contour>
      <point x="404" y="698" type="move" name="top"/>
    </contour>
  </outline>
</glyph>
<glyph name="G" format="1">
  <advance width="687"/>
  <unicode hex="0047"/>
  <outline>
    <contour>
      <point x="306" y="-12" type="curve" smooth="yes"/>
      <point x="392" y="-12"/>
      <point x="464" y="35"/>
      <point x="500" y="101" type="curve"/>
      <point x="503" y="101" type="line"/>
      <point x="481" y="0" type="line" name="hr01"/>
      <point x="497" y="0" type="line"/>
      <point x="572" y="302" type="line"/>
      <point x="645" y="302" type="line"/>
      <point x="649" y="320" type="line"/>
      <point x="424" y="320" type="line"/>
      <point x="420" y="302" type="line"/>
      <point x="552" y="302" type="line"/>
      <point x="518" y="162" type="line" smooth="yes"/>
      <point x="499" y="83"/>
      <point x="414" y="6"/>
      <point x="306" y="6" type="curve" smooth="yes" name="hr02"/>
      <point x="170" y="6"/>
      <point x="102" y="73"/>
      <point x="102" y="215" type="curve" smooth="yes"/>
      <point x="102" y="242"/>
      <point x="106" y="297"/>
      <point x="117" y="348" type="curve" smooth="yes"/>
      <point x="170" y="593"/>
      <point x="297" y="692"/>
      <point x="444" y="692" type="curve" smooth="yes"/>
      <point x="531" y="692"/>
      <point x="608" y="656"/>
      <point x="608" y="589" type="curve" smooth="yes"/>
      <point x="608" y="581"/>
      <point x="607" y="575"/>
      <point x="605" y="566" type="curve" smooth="yes"/>
      <point x="587" y="493" type="line"/>
      <point x="607" y="493" type="line"/>
      <point x="658" y="698" type="line" name="hr03"/>
      <point x="638" y="698" type="line"/>
      <point x="617" y="614" type="line"/>
      <point x="614" y="614" type="line"/>
      <point x="600" y="681"/>
      <point x="520" y="710"/>
      <point x="447" y="710" type="curve" smooth="yes" name="hr04"/>
      <point x="182" y="710"/>
      <point x="80" y="419"/>
      <point x="80" y="216" type="curve" smooth="yes"/>
      <point x="80" y="54"/>
      <point x="166" y="-12"/>
    </contour>
    <contour>
      <point x="305" y="0" type="move" name="bottom"/>
    </contour>
    <contour>
      <point x="446" y="698" type="move" name="top"/>
    </contour>
  </outline>
</glyph>
<glyph name="H" format="1">
  <advance width="726"/>
  <unicode hex="0048"/>
  <outline>
    <contour>
      <point x="-3" y="0" type="line" name="hr00"/>
      <point x="179" y="0" type="line"/>
      <point x="183" y="18" type="line"/>
      <point x="103" y="18" type="line"/>
      <point x="188" y="358" type="line"/>
      <point x="592" y="358" type="line"/>
      <point x="507" y="18" type="line"/>
      <point x="427" y="18" type="line"/>
      <point x="423" y="0" type="line"/>
      <point x="605" y="0" type="line"/>
      <point x="609" y="18" type="line"/>
      <point x="529" y="18" type="line"/>
      <point x="694" y="680" type="line"/>
      <point x="774" y="680" type="line"/>
      <point x="778" y="698" type="line"/>
      <point x="596" y="698" type="line"/>
      <point x="592" y="680" type="line"/>
      <point x="672" y="680" type="line"/>
      <point x="596" y="376" type="line"/>
      <point x="192" y="376" type="line"/>
      <point x="268" y="680" type="line"/>
      <point x="348" y="680" type="line"/>
      <point x="352" y="698" type="line"/>
      <point x="170" y="698" type="line"/>
      <point x="166" y="680" type="line"/>
      <point x="246" y="680" type="line"/>
      <point x="81" y="18" type="line"/>
      <point x="1" y="18" type="line"/>
    </contour>
    <contour>
      <point x="302" y="0" type="move" name="bottom"/>
    </contour>
    <contour>
      <point x="477" y="698" type="move" name="top"/>
    </contour>
  </outline>
</glyph>
<glyph name="I" format="1">
  <advance width="300"/>
  <unicode hex="0049"/>
  <outline>
    <contour>
      <point x="-3" y="0" type="line" name="hr00"/>
      <point x="179" y="0" type="line"/>
      <point x="183" y="18" type="line"/>
      <point x="103" y="18" type="line"/>
      <point x="268" y="680" type="line"/>
      <point x="348" y="680" type="line"/>
      <point x="352" y="698" type="line"/>
      <point x="170" y="698" type="line"/>
      <point x="166" y="680" type="line"/>
      <point x="246" y="680" type="line"/>
      <point x="81" y="18" type="line"/>
      <point x="1" y="18" type="line"/>
    </contour>
    <contour>
      <point x="87" y="0" type="move" name="bottom"/>
    </contour>
    <contour>
      <point x="178" y="0" type="move" name="bottomright"/>
    </contour>
    <contour>
      <point x="261" y="698" type="move" name="top"/>
    </contour>
  </outline>
</glyph>
<glyph name="J" format="1">
  <advance width="418"/>
  <unicode hex="004A"/>
  <outline>
    <contour>
      <point x="92" y="-12" type="curve" smooth="yes" name="hr00"/>
      <point x="174" y="-12"/>
      <point x="232" y="34"/>
      <point x="254" y="121" type="curve" smooth="yes"/>
      <point x="393" y="680" type="line"/>
      <point x="473" y="680" type="line"/>
      <point x="477" y="698" type="line"/>
      <point x="275" y="698" type="line"/>
      <point x="271" y="680" type="line"/>
      <point x="371" y="680" type="line"/>
      <point x="234" y="128" type="line" smooth="yes"/>
      <point x="214" y="47"/>
      <point x="163" y="4"/>
      <point x="88" y="4" type="curve" smooth="yes"/>
      <point x="55" y="4"/>
      <point x="25" y="11"/>
      <point x="13" y="22" type="curve"/>
      <point x="13" y="25" type="line"/>
      <point x="32" y="33"/>
      <point x="41" y="44"/>
      <point x="41" y="59" type="curve" smooth="yes"/>
      <point x="41" y="75"/>
      <point x="32" y="85"/>
      <point x="14" y="85" type="curve" smooth="yes"/>
      <point x="-3" y="85"/>
      <point x="-13" y="72"/>
      <point x="-13" y="56" type="curve" smooth="yes"/>
      <point x="-13" y="13"/>
      <point x="34" y="-12"/>
    </contour>
    <contour>
      <point x="95" y="0" type="move" name="bottom"/>
    </contour>
    <contour>
      <point x="376" y="698" type="move" name="top"/>
    </contour>
  </outline>
</glyph>
<glyph name="K" format="1">
  <advance width="643"/>
  <unicode hex="004B"/>
  <outline>
    <contour>
      <point x="-3" y="0" type="line" name="hr00"/>
      <point x="179" y="0" type="line"/>
      <point x="183" y="18" type="line"/>
      <point x="103" y="18" type="line"/>
      <point x="158" y="239" type="line"/>
      <point x="312" y="386" type="line"/>
      <point x="479" y="18" type="line"/>
      <point x="387" y="18" type="line"/>
      <point x="383" y="0" type="line"/>
      <point x="560" y="0" type="line"/>
      <point x="564" y="18" type="line"/>
      <point x="502" y="18" type="line"/>
      <point x="328" y="399" type="line"/>
      <point x="628" y="680" type="line"/>
      <point x="690" y="680" type="line"/>
      <point x="694" y="698" type="line"/>
      <point x="516" y="698" type="line"/>
      <point x="512" y="680" type="line"/>
      <point x="602" y="680" type="line"/>
      <point x="313" y="410" type="line"/>
      <point x="168" y="272" type="line"/>
      <point x="166" y="272" type="line"/>
      <point x="268" y="680" type="line"/>
      <point x="348" y="680" type="line"/>
      <point x="352" y="698" type="line"/>
      <point x="170" y="698" type="line"/>
      <point x="166" y="680" type="line"/>
      <point x="246" y="680" type="line"/>
      <point x="81" y="18" type="line"/>
      <point x="1" y="18" type="line"/>
    </contour>
    <contour>
      <point x="281" y="0" type="move" name="bottom"/>
    </contour>
    <contour>
      <point x="432" y="698" type="move" name="top"/>
    </contour>
  </outline>
</glyph>
<glyph name="L" format="1">
  <advance width="555"/>
  <unicode hex="004C"/>
  <outline>
    <contour>
      <point x="-3" y="0" type="line" name="hr00"/>
      <point x="432" y="0" type="line"/>
      <point x="469" y="149" type="line"/>
      <point x="449" y="149" type="line"/>
      <point x="416" y="18" type="line"/>
      <point x="103" y="18" type="line"/>
      <point x="268" y="680" type="line"/>
      <point x="348" y="680" type="line"/>
      <point x="352" y="698" type="line"/>
      <point x="170" y="698" type="line"/>
      <point x="166" y="680" type="line"/>
      <point x="246" y="680" type="line"/>
      <point x="81" y="18" type="line"/>
      <point x="1" y="18" type="line"/>
    </contour>
    <contour>
      <point x="254" y="0" type="move" name="bottom"/>
    </contour>
    <contour>
      <point x="262" y="698" type="move" name="top"/>
    </contour>
    <contour>
      <point x="409" y="740" type="move" name="topright"/>
    </contour>
  </outline>
</glyph>
<glyph name="M" format="1">
  <advance width="814"/>
  <unicode hex="004D"/>
  <outline>
    <contour>
      <point x="-3" y="0" type="line"/>
      <point x="179" y="0" type="line"/>
      <point x="183" y="18" type="line"/>
      <point x="103" y="18" type="line"/>
      <point x="266" y="675" type="line"/>
      <point x="269" y="675" type="line"/>
      <point x="322" y="502" type="line"/>
      <point x="405" y="236" type="line"/>
      <point x="616" y="502" type="line"/>
      <point x="756" y="678" type="line"/>
      <point x="759" y="678" type="line"/>
      <point x="595" y="18" type="line"/>
      <point x="515" y="18" type="line"/>
      <point x="511" y="0" type="line"/>
      <point x="693" y="0" type="line"/>
      <point x="697" y="18" type="line"/>
      <point x="617" y="18" type="line"/>
      <point x="782" y="680" type="line" name="hr01"/>
      <point x="862" y="680" type="line"/>
      <point x="866" y="698" type="line"/>
      <point x="748" y="698" type="line"/>
      <point x="415" y="278" type="line"/>
      <point x="412" y="278" type="line"/>
      <point x="283" y="698" type="line"/>
      <point x="170" y="698" type="line"/>
      <point x="166" y="680" type="line"/>
      <point x="246" y="680" type="line"/>
      <point x="81" y="18" type="line"/>
      <point x="1" y="18" type="line"/>
    </contour>
    <contour>
      <point x="345" y="0" type="move" name="bottom"/>
    </contour>
    <contour>
      <point x="518" y="698" type="move" name="top"/>
    </contour>
  </outline>
</glyph>
<glyph name="N" format="1">
  <advance width="744"/>
  <unicode hex="004E"/>
  <outline>
    <contour>
      <point x="-3" y="0" type="line"/>
      <point x="179" y="0" type="line"/>
      <point x="183" y="18" type="line"/>
      <point x="103" y="18" type="line"/>
      <point x="267" y="673" type="line"/>
      <point x="270" y="673" type="line"/>
      <point x="510" y="0" type="line"/>
      <point x="542" y="0" type="line"/>
      <point x="712" y="680" type="line" name="hr01"/>
      <point x="792" y="680" type="line"/>
      <point x="796" y="698" type="line"/>
      <point x="614" y="698" type="line"/>
      <point x="610" y="680" type="line"/>
      <point x="690" y="680" type="line"/>
      <point x="526" y="25" type="line"/>
      <point x="523" y="25" type="line"/>
      <point x="283" y="698" type="line"/>
      <point x="170" y="698" type="line"/>
      <point x="166" y="680" type="line"/>
      <point x="246" y="680" type="line"/>
      <point x="81" y="18" type="line" name="hr02"/>
      <point x="1" y="18" type="line"/>
    </contour>
    <contour>
      <point x="317" y="0" type="move" name="bottom"/>
    </contour>
    <contour>
      <point x="480" y="698" type="move" name="top"/>
    </contour>
  </outline>
</glyph>
<glyph name="O" format="1">
  <advance width="682"/>
  <unicode hex="004F"/>
  <outline>
    <contour>
      <point x="293" y="6" type="curve" name="hr00"/>
      <point x="169" y="6"/>
      <point x="102" y="78"/>
      <point x="102" y="215" type="curve" smooth="yes"/>
      <point x="102" y="242"/>
      <point x="103" y="287"/>
      <point x="129" y="394" type="curve" smooth="yes"/>
      <point x="174" y="581"/>
      <point x="282" y="692"/>
      <point x="427" y="692" type="curve" smooth="yes"/>
      <point x="551" y="692"/>
      <point x="618" y="620"/>
      <point x="618" y="483" type="curve" smooth="yes"/>
      <point x="618" y="456"/>
      <point x="617" y="411"/>
      <point x="591" y="304" type="curve" smooth="yes"/>
      <point x="546" y="117"/>
      <point x="438" y="6"/>
    </contour>
    <contour>
      <point x="293" y="-12" type="curve" smooth="yes"/>
      <point x="541" y="-12"/>
      <point x="640" y="279"/>
      <point x="640" y="482" type="curve" smooth="yes"/>
      <point x="640" y="630"/>
      <point x="565" y="710"/>
      <point x="427" y="710" type="curve" smooth="yes"/>
      <point x="179" y="710"/>
      <point x="80" y="419"/>
      <point x="80" y="216" type="curve" smooth="yes"/>
      <point x="80" y="68"/>
      <point x="155" y="-12"/>
    </contour>
    <contour>
      <point x="286" y="0" type="move" name="bottom"/>
    </contour>
    <contour>
      <point x="437" y="698" type="move" name="top"/>
    </contour>
  </outline>
</glyph>
<glyph name="P" format="1">
  <advance width="568"/>
  <unicode hex="0050"/>
  <outline>
    <contour>
      <point x="-3" y="0" type="line" name="hr00"/>
      <point x="199" y="0" type="line"/>
      <point x="203" y="18" type="line"/>
      <point x="103" y="18" type="line"/>
      <point x="181" y="332" type="line"/>
      <point x="375" y="332" type="line" smooth="yes"/>
      <point x="519" y="332"/>
      <point x="601" y="446"/>
      <point x="601" y="570" type="curve" smooth="yes"/>
      <point x="601" y="653"/>
      <point x="556" y="698"/>
      <point x="457" y="698" type="curve" smooth="yes"/>
      <point x="170" y="698" type="line"/>
      <point x="166" y="680" type="line"/>
      <point x="246" y="680" type="line"/>
      <point x="81" y="18" type="line"/>
      <point x="1" y="18" type="line"/>
    </contour>
    <contour>
      <point x="268" y="680" type="line"/>
      <point x="459" y="680" type="line" smooth="yes"/>
      <point x="546" y="680"/>
      <point x="579" y="639"/>
      <point x="579" y="574" type="curve" smooth="yes"/>
      <point x="579" y="549"/>
      <point x="572" y="518"/>
      <point x="566" y="494" type="curve" smooth="yes"/>
      <point x="543" y="402"/>
      <point x="469" y="350"/>
      <point x="374" y="350" type="curve" smooth="yes"/>
      <point x="186" y="350" type="line"/>
    </contour>
    <contour>
      <point x="87" y="0" type="move" name="bottom"/>
    </contour>
    <contour>
      <point x="389" y="698" type="move" name="top"/>
    </contour>
  </outline>
</glyph>
<glyph name="Q" format="1">
  <advance width="682"/>
  <unicode hex="0051"/>
  <outline>
    <contour>
      <point x="451" y="-146" type="curve" smooth="yes" name="hr00"/>
      <point x="461" y="-146" type="line"/>
      <point x="465" y="-128" type="line"/>
      <point x="455" y="-128" type="line" smooth="yes"/>
      <point x="408" y="-128"/>
      <point x="383" y="-119"/>
      <point x="365" y="-94" type="curve" smooth="yes"/>
      <point x="304" y="-12" type="line"/>
      <point x="544" y="-4"/>
      <point x="640" y="282"/>
      <point x="640" y="482" type="curve" smooth="yes"/>
      <point x="640" y="630"/>
      <point x="565" y="710"/>
      <point x="427" y="710" type="curve" smooth="yes"/>
      <point x="179" y="710"/>
      <point x="80" y="419"/>
      <point x="80" y="216" type="curve" smooth="yes"/>
      <point x="80" y="72"/>
      <point x="151" y="-7"/>
      <point x="281" y="-12" type="curve"/>
      <point x="346" y="-103" type="line" smooth="yes"/>
      <point x="369" y="-136"/>
      <point x="392" y="-146"/>
    </contour>
    <contour>
      <point x="293" y="6" type="curve"/>
      <point x="169" y="6"/>
      <point x="102" y="78"/>
      <point x="102" y="215" type="curve" smooth="yes"/>
      <point x="102" y="242"/>
      <point x="103" y="287"/>
      <point x="129" y="394" type="curve" smooth="yes"/>
      <point x="174" y="581"/>
      <point x="282" y="692"/>
      <point x="427" y="692" type="curve" smooth="yes"/>
      <point x="551" y="692"/>
      <point x="618" y="620"/>
      <point x="618" y="483" type="curve" smooth="yes"/>
      <point x="618" y="456"/>
      <point x="617" y="411"/>
      <point x="591" y="304" type="curve" smooth="yes"/>
      <point x="546" y="117"/>
      <point x="438" y="6"/>
    </contour>
    <contour>
      <point x="437.0" y="698.0" type="move" name="top"/>
    </contour>
  </outline>
</glyph>
<glyph name="R" format="1">
  <advance width="628"/>
  <unicode hex="0052"/>
  <outline>
    <contour>
      <point x="-3" y="0" type="line" name="hr00"/>
      <point x="179" y="0" type="line"/>
      <point x="183" y="18" type="line"/>
      <point x="103" y="18" type="line"/>
      <point x="181" y="332" type="line"/>
      <point x="363" y="332" type="line"/>
      <point x="433" y="60" type="line" smooth="yes"/>
      <point x="444" y="18"/>
      <point x="466" y="0"/>
      <point x="509" y="0" type="curve" smooth="yes"/>
      <point x="545" y="0" type="line"/>
      <point x="549" y="18" type="line"/>
      <point x="513" y="18" type="line" smooth="yes"/>
      <point x="483" y="18"/>
      <point x="464" y="31"/>
      <point x="456" y="60" type="curve" smooth="yes"/>
      <point x="385" y="332" type="line"/>
      <point x="523" y="337"/>
      <point x="601" y="449"/>
      <point x="601" y="570" type="curve" smooth="yes"/>
      <point x="601" y="653"/>
      <point x="556" y="698"/>
      <point x="457" y="698" type="curve" smooth="yes"/>
      <point x="170" y="698" type="line"/>
      <point x="166" y="680" type="line"/>
      <point x="246" y="680" type="line"/>
      <point x="81" y="18" type="line"/>
      <point x="1" y="18" type="line"/>
    </contour>
    <contour>
      <point x="268" y="680" type="line"/>
      <point x="459" y="680" type="line" smooth="yes"/>
      <point x="546" y="680"/>
      <point x="579" y="639"/>
      <point x="579" y="574" type="curve" smooth="yes"/>
      <point x="579" y="549"/>
      <point x="572" y="518"/>
      <point x="566" y="494" type="curve" smooth="yes"/>
      <point x="543" y="402"/>
      <point x="469" y="350"/>
      <point x="374" y="350" type="curve"/>
      <point x="186" y="350" type="line"/>
    </contour>
    <contour>
      <point x="288" y="0" type="move" name="bottom"/>
    </contour>
    <contour>
      <point x="388" y="698" type="move" name="top"/>
    </contour>
  </outline>
</glyph>
<glyph name="S" format="1">
  <advance width="567"/>
  <unicode hex="0053"/>
  <outline>
    <contour>
      <point x="240" y="-12" type="curve" smooth="yes"/>
      <point x="399" y="-12"/>
      <point x="484" y="82"/>
      <point x="484" y="199" type="curve" smooth="yes"/>
      <point x="484" y="272"/>
      <point x="449" y="323"/>
      <point x="356" y="360" type="curve" smooth="yes"/>
      <point x="283" y="389" type="line" smooth="yes"/>
      <point x="213" y="417"/>
      <point x="173" y="455"/>
      <point x="173" y="531" type="curve" smooth="yes"/>
      <point x="173" y="616"/>
      <point x="242" y="692"/>
      <point x="369" y="692" type="curve" smooth="yes"/>
      <point x="455" y="692"/>
      <point x="530" y="658"/>
      <point x="530" y="589" type="curve" smooth="yes"/>
      <point x="530" y="581"/>
      <point x="529" y="575"/>
      <point x="527" y="566" type="curve" smooth="yes"/>
      <point x="509" y="493" type="line"/>
      <point x="529" y="493" type="line"/>
      <point x="580" y="698" type="line" name="hr01"/>
      <point x="560" y="698" type="line"/>
      <point x="541" y="621" type="line"/>
      <point x="538" y="621" type="line"/>
      <point x="521" y="680"/>
      <point x="446" y="710"/>
      <point x="370" y="710" type="curve" smooth="yes" name="hr02"/>
      <point x="249" y="710"/>
      <point x="151" y="642"/>
      <point x="151" y="530" type="curve" smooth="yes"/>
      <point x="151" y="452"/>
      <point x="195" y="402"/>
      <point x="269" y="373" type="curve" smooth="yes"/>
      <point x="342" y="344" type="line" smooth="yes"/>
      <point x="420" y="313"/>
      <point x="462" y="277"/>
      <point x="462" y="199" type="curve" smooth="yes"/>
      <point x="462" y="88"/>
      <point x="376" y="6"/>
      <point x="241" y="6" type="curve" smooth="yes"/>
      <point x="151" y="6"/>
      <point x="73" y="40"/>
      <point x="73" y="109" type="curve" smooth="yes"/>
      <point x="73" y="117"/>
      <point x="74" y="123"/>
      <point x="76" y="132" type="curve" smooth="yes"/>
      <point x="97" y="215" type="line"/>
      <point x="77" y="215" type="line"/>
      <point x="23" y="0" type="line" name="hr03"/>
      <point x="43" y="0" type="line"/>
      <point x="62" y="77" type="line"/>
      <point x="65" y="77" type="line"/>
      <point x="82" y="18"/>
      <point x="161" y="-12"/>
    </contour>
    <contour>
      <point x="240" y="0" type="move" name="bottom"/>
    </contour>
    <contour>
      <point x="370" y="698" type="move" name="top"/>
    </contour>
  </outline>
</glyph>
<glyph name="T" format="1">
  <advance width="610"/>
  <unicode hex="0054"/>
  <outline>
    <contour>
      <point x="132" y="0" type="line" name="hr00"/>
      <point x="354" y="0" type="line"/>
      <point x="358" y="18" type="line"/>
      <point x="258" y="18" type="line"/>
      <point x="423" y="680" type="line"/>
      <point x="656" y="680" type="line"/>
      <point x="623" y="550" type="line"/>
      <point x="643" y="550" type="line"/>
      <point x="680" y="698" type="line"/>
      <point x="153" y="698" type="line"/>
      <point x="116" y="550" type="line"/>
      <point x="136" y="550" type="line"/>
      <point x="168" y="680" type="line"/>
      <point x="401" y="680" type="line"/>
      <point x="236" y="18" type="line"/>
      <point x="136" y="18" type="line"/>
    </contour>
    <contour>
      <point x="242" y="0" type="move" name="bottom"/>
    </contour>
    <contour>
      <point x="416" y="698" type="move" name="top"/>
    </contour>
  </outline>
</glyph>
<glyph name="U" format="1">
  <advance width="696"/>
  <unicode hex="0055"/>
  <outline>
    <contour>
      <point x="289" y="-12" type="curve" smooth="yes" name="hr00"/>
      <point x="436" y="-12"/>
      <point x="518" y="50"/>
      <point x="570" y="261" type="curve" smooth="yes"/>
      <point x="674" y="680" type="line"/>
      <point x="754" y="680" type="line"/>
      <point x="758" y="698" type="line"/>
      <point x="576" y="698" type="line"/>
      <point x="572" y="680" type="line"/>
      <point x="652" y="680" type="line"/>
      <point x="548" y="261" type="line" smooth="yes"/>
      <point x="502" y="76"/>
      <point x="436" y="6"/>
      <point x="289" y="6" type="curve" smooth="yes"/>
      <point x="181" y="6"/>
      <point x="132" y="55"/>
      <point x="132" y="132" type="curve" smooth="yes"/>
      <point x="132" y="169"/>
      <point x="141" y="209"/>
      <point x="154" y="261" type="curve" smooth="yes"/>
      <point x="258" y="680" type="line"/>
      <point x="338" y="680" type="line"/>
      <point x="342" y="698" type="line"/>
      <point x="160" y="698" type="line"/>
      <point x="156" y="680" type="line"/>
      <point x="236" y="680" type="line"/>
      <point x="132" y="261" type="line" smooth="yes"/>
      <point x="120" y="213"/>
      <point x="110" y="172"/>
      <point x="110" y="136" type="curve" smooth="yes"/>
      <point x="110" y="39"/>
      <point x="172" y="-12"/>
    </contour>
    <contour>
      <point x="288" y="0" type="move" name="bottom"/>
    </contour>
    <contour>
      <point x="384" y="0" type="move" name="bottomright"/>
    </contour>
    <contour>
      <point x="460" y="698" type="move" name="top"/>
    </contour>
  </outline>
</glyph>
<glyph name="V" format="1">
  <advance width="622"/>
  <unicode hex="0056"/>
  <outline>
    <contour>
      <point x="232" y="0" type="line" name="hr00"/>
      <point x="265" y="0" type="line"/>
      <point x="654" y="680" type="line"/>
      <point x="710" y="680" type="line"/>
      <point x="714" y="698" type="line"/>
      <point x="534" y="698" type="line"/>
      <point x="530" y="680" type="line"/>
      <point x="630" y="680" type="line"/>
      <point x="405" y="286" type="line"/>
      <point x="253" y="20" type="line"/>
      <point x="251" y="20" type="line"/>
      <point x="233" y="285" type="line"/>
      <point x="205" y="680" type="line"/>
      <point x="305" y="680" type="line"/>
      <point x="309" y="698" type="line"/>
      <point x="131" y="698" type="line"/>
      <point x="127" y="680" type="line"/>
      <point x="183" y="680" type="line"/>
    </contour>
    <contour>
      <point x="248" y="0" type="move" name="bottom"/>
    </contour>
    <contour>
      <point x="421" y="698" type="move" name="top"/>
    </contour>
  </outline>
</glyph>
<glyph name="W" format="1">
  <advance width="853"/>
  <unicode hex="0057"/>
  <outline>
    <contour>
      <point x="172" y="0" type="line" name="hr00"/>
      <point x="206" y="0" type="line"/>
      <point x="528" y="680" type="line"/>
      <point x="530" y="680" type="line"/>
      <point x="528" y="0" type="line"/>
      <point x="561" y="0" type="line"/>
      <point x="884" y="680" type="line"/>
      <point x="940" y="680" type="line"/>
      <point x="944" y="698" type="line"/>
      <point x="764" y="698" type="line"/>
      <point x="760" y="680" type="line"/>
      <point x="860" y="680" type="line"/>
      <point x="550" y="20" type="line"/>
      <point x="548" y="20" type="line"/>
      <point x="550" y="698" type="line"/>
      <point x="514" y="698" type="line"/>
      <point x="194" y="20" type="line"/>
      <point x="192" y="20" type="line"/>
      <point x="194" y="680" type="line"/>
      <point x="294" y="680" type="line"/>
      <point x="298" y="698" type="line"/>
      <point x="122" y="698" type="line"/>
      <point x="118" y="680" type="line"/>
      <point x="174" y="680" type="line"/>
    </contour>
    <contour>
      <point x="367" y="0" type="move" name="bottom"/>
    </contour>
    <contour>
      <point x="532" y="698" type="move" name="top"/>
    </contour>
  </outline>
</glyph>
<glyph name="X" format="1">
  <advance width="609"/>
  <unicode hex="0058"/>
  <outline>
    <contour>
      <point x="-43" y="0" type="line" name="hr00"/>
      <point x="131" y="0" type="line"/>
      <point x="135" y="18" type="line"/>
      <point x="44" y="18" type="line"/>
      <point x="327" y="339" type="line"/>
      <point x="330" y="339" type="line"/>
      <point x="452" y="18" type="line"/>
      <point x="362" y="18" type="line"/>
      <point x="358" y="0" type="line"/>
      <point x="530" y="0" type="line"/>
      <point x="534" y="18" type="line"/>
      <point x="474" y="18" type="line"/>
      <point x="345" y="353" type="line"/>
      <point x="639" y="680" type="line"/>
      <point x="699" y="680" type="line"/>
      <point x="703" y="698" type="line"/>
      <point x="527" y="698" type="line"/>
      <point x="523" y="680" type="line"/>
      <point x="615" y="680" type="line"/>
      <point x="338" y="373" type="line"/>
      <point x="335" y="373" type="line"/>
      <point x="216" y="680" type="line"/>
      <point x="306" y="680" type="line"/>
      <point x="310" y="698" type="line"/>
      <point x="138" y="698" type="line"/>
      <point x="134" y="680" type="line"/>
      <point x="194" y="680" type="line"/>
      <point x="320" y="359" type="line"/>
      <point x="19" y="18" type="line"/>
      <point x="-39" y="18" type="line"/>
    </contour>
    <contour>
      <point x="244" y="0" type="move" name="bottom"/>
    </contour>
    <contour>
      <point x="418" y="698" type="move" name="top"/>
    </contour>
  </outline>
</glyph>
<glyph name="Y" format="1">
  <advance width="599"/>
  <unicode hex="0059"/>
  <outline>
    <contour>
      <point x="127" y="0" type="line" name="hr00"/>
      <point x="349" y="0" type="line"/>
      <point x="353" y="18" type="line"/>
      <point x="253" y="18" type="line"/>
      <point x="319" y="284" type="line"/>
      <point x="627" y="680" type="line"/>
      <point x="683" y="680" type="line"/>
      <point x="687" y="698" type="line"/>
      <point x="504" y="698" type="line"/>
      <point x="500" y="680" type="line"/>
      <point x="603" y="680" type="line"/>
      <point x="314" y="306" type="line"/>
      <point x="312" y="306" type="line"/>
      <point x="208" y="680" type="line"/>
      <point x="309" y="680" type="line"/>
      <point x="313" y="698" type="line"/>
      <point x="135" y="698" type="line"/>
      <point x="131" y="680" type="line"/>
      <point x="187" y="680" type="line"/>
      <point x="297" y="285" type="line"/>
      <point x="231" y="18" type="line"/>
      <point x="131" y="18" type="line"/>
    </contour>
    <contour>
      <point x="237" y="0" type="move" name="bottom"/>
    </contour>
    <contour>
      <point x="411" y="698" type="move" name="top"/>
    </contour>
  </outline>
</glyph>
<glyph name="Z" format="1">
  <advance width="593"/>
  <unicode hex="005A"/>
  <outline>
    <contour>
      <point x="-3" y="0" type="line" name="hr00"/>
      <point x="463" y="0" type="line"/>
      <point x="500" y="148" type="line"/>
      <point x="480" y="148" type="line"/>
      <point x="447" y="18" type="line"/>
      <point x="27" y="18" type="line"/>
      <point x="612" y="680" type="line"/>
      <point x="616" y="698" type="line"/>
      <point x="181" y="698" type="line"/>
      <point x="144" y="550" type="line"/>
      <point x="164" y="550" type="line"/>
      <point x="197" y="680" type="line"/>
      <point x="586" y="680" type="line"/>
      <point x="1" y="18" type="line"/>
    </contour>
    <contour>
      <point x="234" y="0" type="move" name="bottom"/>
    </contour>
    <contour>
      <point x="390" y="698" type="move" name="top"/>
    </contour>
  </outline>
</glyph>
<glyph name="bracketleft" format="1">
  <advance width="270"/>
  <unicode hex="005B"/>
  <outline>
    <contour>
      <point x="-4" y="-138" type="line" name="hr00"/>
      <point x="122" y="-138" type="line"/>
      <point x="126" y="-121" type="line"/>
      <point x="21" y="-121" type="line"/>
      <point x="235" y="743" type="line"/>
      <point x="341" y="743" type="line"/>
      <point x="345" y="760" type="line"/>
      <point x="220" y="760" type="line"/>
    </contour>
  </outline>
</glyph>
<glyph name="backslash" format="1">
  <advance width="314"/>
  <unicode hex="005C"/>
  <outline>
    <contour>
      <point x="179" y="-143" type="line" name="hr00"/>
      <point x="197" y="-143" type="line"/>
      <point x="186" y="748" type="line"/>
      <point x="168" y="748" type="line"/>
    </contour>
  </outline>
</glyph>
<glyph name="bracketright" format="1">
  <advance width="270"/>
  <unicode hex="005D"/>
  <outline>
    <contour>
      <point x="-46" y="-138" type="line" name="hr00"/>
      <point x="79" y="-138" type="line"/>
      <point x="303" y="760" type="line"/>
      <point x="177" y="760" type="line"/>
      <point x="173" y="743" type="line"/>
      <point x="278" y="743" type="line"/>
      <point x="64" y="-121" type="line"/>
      <point x="-42" y="-121" type="line"/>
    </contour>
  </outline>
</glyph>
<glyph name="asciicircum" format="1">
  <advance width="550"/>
  <unicode hex="005E"/>
  <outline>
    <contour>
      <point x="73" y="322" type="line" name="hr00"/>
      <point x="374" y="678" type="line"/>
      <point x="377" y="678" type="line"/>
      <point x="505" y="322" type="line"/>
      <point x="522" y="329" type="line"/>
      <point x="389" y="698" type="line"/>
      <point x="369" y="698" type="line"/>
      <point x="59" y="334" type="line"/>
    </contour>
  </outline>
</glyph>
<glyph name="underscore" format="1">
  <advance width="541"/>
  <unicode hex="005F"/>
  <outline>
    <contour>
      <point x="-69" y="-141" type="line" name="hr00"/>
      <point x="414" y="-141" type="line"/>
      <point x="418" y="-123" type="line"/>
      <point x="-65" y="-123" type="line"/>
    </contour>
  </outline>
</glyph>
<glyph name="grave" format="1">
  <advance width="600"/>
  <unicode hex="0060"/>
  <outline>
    <contour>
      <point x="312" y="588" type="line" name="hr00"/>
      <point x="322" y="595" type="line"/>
      <point x="235" y="751" type="line"/>
      <point x="216" y="739" type="line"/>
    </contour>
    <contour>
      <point x="300" y="540" type="move" name="_top"/>
    </contour>
  </outline>
</glyph>
<glyph name="b" format="1">
  <advance width="484"/>
  <unicode hex="0062"/>
  <outline>
    <contour>
      <point x="175" y="-12" type="curve" smooth="yes"/>
      <point x="346" y="-12"/>
      <point x="433" y="210"/>
      <point x="433" y="389" type="curve" smooth="yes"/>
      <point x="433" y="456"/>
      <point x="415" y="518"/>
      <point x="343" y="518" type="curve" smooth="yes"/>
      <point x="245" y="518"/>
      <point x="178" y="373"/>
      <point x="142" y="288" type="curve"/>
      <point x="137" y="289" type="line"/>
      <point x="256" y="764" type="line"/>
      <point x="146" y="753" type="line"/>
      <point x="144" y="742" type="line"/>
      <point x="229" y="742" type="line"/>
      <point x="44" y="0" type="line" name="hr01"/>
      <point x="56" y="0" type="line"/>
      <point x="79" y="59" type="line"/>
      <point x="83" y="59" type="line"/>
      <point x="94" y="4"/>
      <point x="131" y="-12"/>
    </contour>
    <contour>
      <point x="174" y="5" type="curve"/>
      <point x="107" y="5"/>
      <point x="77" y="48"/>
      <point x="102" y="146" type="curve" smooth="yes"/>
      <point x="108" y="170" type="line" smooth="yes"/>
      <point x="130" y="256"/>
      <point x="191" y="383"/>
      <point x="254" y="455" type="curve" smooth="yes"/>
      <point x="283" y="488"/>
      <point x="316" y="500"/>
      <point x="339" y="500" type="curve" smooth="yes"/>
      <point x="400" y="500"/>
      <point x="411" y="449"/>
      <point x="411" y="389" type="curve" smooth="yes"/>
      <point x="411" y="351"/>
      <point x="407" y="308"/>
      <point x="392" y="246" type="curve" smooth="yes"/>
      <point x="358" y="107"/>
      <point x="285" y="5"/>
    </contour>
    <contour>
      <point x="176" y="0" type="move" name="bottom"/>
    </contour>
  </outline>
</glyph>
<glyph name="c" format="1">
  <advance width="395"/>
  <unicode hex="0063"/>
  <outline>
    <contour>
      <point x="152" y="-12" type="curve" smooth="yes" name="hr00"/>
      <point x="216" y="-12"/>
      <point x="278" y="33"/>
      <point x="341" y="156" type="curve"/>
      <point x="329" y="161" type="line"/>
      <point x="276" y="62"/>
      <point x="215" y="6"/>
      <point x="154" y="6" type="curve" smooth="yes"/>
      <point x="84" y="6"/>
      <point x="72" y="66"/>
      <point x="72" y="127" type="curve" smooth="yes"/>
      <point x="72" y="188"/>
      <point x="85" y="249"/>
      <point x="88" y="262" type="curve" smooth="yes"/>
      <point x="122" y="420"/>
      <point x="200" y="502"/>
      <point x="280" y="502" type="curve" smooth="yes"/>
      <point x="321" y="502"/>
      <point x="348" y="490"/>
      <point x="363" y="475" type="curve"/>
      <point x="363" y="472" type="line"/>
      <point x="344" y="469"/>
      <point x="330" y="459"/>
      <point x="330" y="442" type="curve" smooth="yes"/>
      <point x="330" y="428"/>
      <point x="341" y="418"/>
      <point x="355" y="418" type="curve" smooth="yes"/>
      <point x="369" y="418"/>
      <point x="381" y="428"/>
      <point x="381" y="446" type="curve" smooth="yes"/>
      <point x="381" y="485"/>
      <point x="341" y="518"/>
      <point x="280" y="518" type="curve" smooth="yes"/>
      <point x="114" y="518"/>
      <point x="50" y="269"/>
      <point x="50" y="127" type="curve" smooth="yes"/>
      <point x="50" y="34"/>
      <point x="80" y="-12"/>
    </contour>
    <contour>
      <point x="153" y="0" type="move" name="bottom"/>
    </contour>
    <contour>
      <point x="282" y="540" type="move" name="top"/>
    </contour>
  </outline>
</glyph>
<glyph name="d" format="1">
  <advance width="510"/>
  <unicode hex="0064"/>
  <outline>
    <contour>
      <point x="140" y="-12" type="curve" smooth="yes" name="hr00"/>
      <point x="238" y="-12"/>
      <point x="305" y="133"/>
      <point x="341" y="218" type="curve"/>
      <point x="346" y="217" type="line"/>
      <point x="301" y="40" type="line" smooth="yes"/>
      <point x="298" y="28"/>
      <point x="297" y="19"/>
      <point x="297" y="13" type="curve" smooth="yes"/>
      <point x="297" y="-8"/>
      <point x="314" y="-12"/>
      <point x="325" y="-12" type="curve" smooth="yes"/>
      <point x="339" y="-12"/>
      <point x="352" y="-5"/>
      <point x="387" y="28" type="curve" smooth="yes"/>
      <point x="476" y="111" type="line"/>
      <point x="469" y="119" type="line"/>
      <point x="334" y="6" type="line"/>
      <point x="316" y="14" type="line"/>
      <point x="504" y="764" type="line"/>
      <point x="394" y="753" type="line"/>
      <point x="392" y="742" type="line"/>
      <point x="477" y="742" type="line"/>
      <point x="404" y="447" type="line"/>
      <point x="400" y="447" type="line"/>
      <point x="389" y="502"/>
      <point x="352" y="518"/>
      <point x="308" y="518" type="curve" smooth="yes"/>
      <point x="137" y="518"/>
      <point x="50" y="296"/>
      <point x="50" y="117" type="curve" smooth="yes"/>
      <point x="50" y="50"/>
      <point x="68" y="-12"/>
    </contour>
    <contour>
      <point x="144" y="6" type="curve"/>
      <point x="83" y="6"/>
      <point x="72" y="57"/>
      <point x="72" y="117" type="curve" smooth="yes"/>
      <point x="72" y="155"/>
      <point x="76" y="198"/>
      <point x="91" y="260" type="curve" smooth="yes"/>
      <point x="125" y="399"/>
      <point x="198" y="501"/>
      <point x="309" y="501" type="curve" smooth="yes"/>
      <point x="376" y="501"/>
      <point x="406" y="458"/>
      <point x="381" y="360" type="curve" smooth="yes"/>
      <point x="375" y="336" type="line" smooth="yes"/>
      <point x="353" y="250"/>
      <point x="292" y="123"/>
      <point x="229" y="51" type="curve" smooth="yes"/>
      <point x="200" y="18"/>
      <point x="167" y="6"/>
    </contour>
    <contour>
      <point x="204" y="0" type="move" name="bottom"/>
    </contour>
    <contour>
      <point x="543" y="758" type="move" name="topright"/>
    </contour>
  </outline>
</glyph>
<glyph name="e" format="1">
  <advance width="424"/>
  <unicode hex="0065"/>
  <outline>
    <contour>
      <point x="153" y="-12" type="curve" smooth="yes" name="hr00"/>
      <point x="222" y="-12"/>
      <point x="293" y="31"/>
      <point x="357" y="156" type="curve"/>
      <point x="345" y="161" type="line"/>
      <point x="291" y="60"/>
      <point x="221" y="6"/>
      <point x="155" y="6" type="curve" smooth="yes"/>
      <point x="84" y="6"/>
      <point x="72" y="66"/>
      <point x="72" y="128" type="curve" smooth="yes"/>
      <point x="72" y="177"/>
      <point x="81" y="222"/>
      <point x="89" y="262" type="curve"/>
      <point x="305" y="281"/>
      <point x="392" y="336"/>
      <point x="392" y="426" type="curve" smooth="yes"/>
      <point x="392" y="495"/>
      <point x="342" y="518"/>
      <point x="290" y="518" type="curve" smooth="yes"/>
      <point x="118" y="518"/>
      <point x="50" y="268"/>
      <point x="50" y="128" type="curve" smooth="yes"/>
      <point x="50" y="34"/>
      <point x="80" y="-12"/>
    </contour>
    <contour>
      <point x="92" y="274" type="curve"/>
      <point x="127" y="425"/>
      <point x="207" y="502"/>
      <point x="292" y="502" type="curve" smooth="yes"/>
      <point x="353" y="502"/>
      <point x="371" y="462"/>
      <point x="371" y="424" type="curve" smooth="yes"/>
      <point x="371" y="332"/>
      <point x="265" y="293"/>
    </contour>
    <contour>
      <point x="155" y="0" type="move" name="bottom"/>
    </contour>
    <contour>
      <point x="214" y="0" type="move" name="bottomright"/>
    </contour>
    <contour>
      <point x="291" y="540" type="move" name="top"/>
    </contour>
  </outline>
</glyph>
<glyph name="f" format="1">
  <advance width="280"/>
  <unicode hex="0066"/>
  <outline>
    <contour>
      <point x="-62" y="-212" type="curve" smooth="yes" name="hr00"/>
      <point x="1" y="-212"/>
      <point x="40" y="-167"/>
      <point x="60" y="-87" type="curve" smooth="yes"/>
      <point x="203" y="489" type="line"/>
      <point x="332" y="489" type="line"/>
      <point x="336" y="506" type="line"/>
      <point x="208" y="506" type="line"/>
      <point x="238" y="628" type="line" smooth="yes"/>
      <point x="256" y="701"/>
      <point x="297" y="749"/>
      <point x="362" y="749" type="curve" smooth="yes"/>
      <point x="377" y="749" type="line"/>
      <point x="377" y="746" type="line"/>
      <point x="366" y="741"/>
      <point x="357" y="730"/>
      <point x="357" y="718" type="curve" smooth="yes"/>
      <point x="357" y="706"/>
      <point x="366" y="694"/>
      <point x="382" y="694" type="curve" smooth="yes"/>
      <point x="397" y="694"/>
      <point x="408" y="706"/>
      <point x="408" y="720" type="curve" smooth="yes"/>
      <point x="408" y="744"/>
      <point x="385" y="760"/>
      <point x="353" y="760" type="curve" smooth="yes"/>
      <point x="284" y="760"/>
      <point x="238" y="712"/>
      <point x="219" y="635" type="curve" smooth="yes"/>
      <point x="187" y="506" type="line"/>
      <point x="86" y="506" type="line"/>
      <point x="82" y="489" type="line"/>
      <point x="183" y="489" type="line"/>
      <point x="41" y="-80" type="line" smooth="yes"/>
      <point x="22" y="-157"/>
      <point x="-12" y="-201"/>
      <point x="-71" y="-201" type="curve" smooth="yes"/>
      <point x="-86" y="-201" type="line"/>
      <point x="-86" y="-198" type="line"/>
      <point x="-75" y="-193"/>
      <point x="-66" y="-182"/>
      <point x="-66" y="-170" type="curve" smooth="yes"/>
      <point x="-66" y="-158"/>
      <point x="-75" y="-146"/>
      <point x="-91" y="-146" type="curve" smooth="yes"/>
      <point x="-106" y="-146"/>
      <point x="-117" y="-158"/>
      <point x="-117" y="-172" type="curve" smooth="yes"/>
      <point x="-117" y="-196"/>
      <point x="-94" y="-212"/>
    </contour>
  </outline>
</glyph>
<glyph name="g" format="1">
  <advance width="454"/>
  <unicode hex="0067"/>
  <outline>
    <contour>
      <point x="137" y="-212" type="curve" smooth="yes"/>
      <point x="244" y="-212"/>
      <point x="365" y="-175"/>
      <point x="365" y="-74" type="curve" smooth="yes"/>
      <point x="365" y="-18"/>
      <point x="327" y="5"/>
      <point x="268" y="28" type="curve" smooth="yes"/>
      <point x="151" y="73" type="line" smooth="yes"/>
      <point x="105" y="91"/>
      <point x="93" y="105"/>
      <point x="93" y="125" type="curve" smooth="yes"/>
      <point x="93" y="176"/>
      <point x="157" y="193"/>
      <point x="178" y="194" type="curve"/>
      <point x="189" y="191"/>
      <point x="200" y="190"/>
      <point x="213" y="190" type="curve" smooth="yes"/>
      <point x="312" y="190"/>
      <point x="393" y="277"/>
      <point x="393" y="391" type="curve" smooth="yes"/>
      <point x="393" y="421"/>
      <point x="387" y="447"/>
      <point x="374" y="467" type="curve"/>
      <point x="406" y="539" type="line"/>
      <point x="409" y="539" type="line"/>
      <point x="409" y="522"/>
      <point x="421" y="513"/>
      <point x="431" y="513" type="curve" smooth="yes"/>
      <point x="448" y="513"/>
      <point x="458" y="524"/>
      <point x="458" y="539" type="curve" smooth="yes"/>
      <point x="458" y="554"/>
      <point x="448" y="565"/>
      <point x="431" y="565" type="curve" smooth="yes"/>
      <point x="413" y="565"/>
      <point x="399" y="555"/>
      <point x="390" y="532" type="curve" smooth="yes"/>
      <point x="369" y="476" type="line"/>
      <point x="349" y="503"/>
      <point x="319" y="518"/>
      <point x="278" y="518" type="curve" smooth="yes" name="hr01"/>
      <point x="179" y="518"/>
      <point x="98" y="431"/>
      <point x="98" y="317" type="curve" smooth="yes"/>
      <point x="98" y="262"/>
      <point x="117" y="219"/>
      <point x="159" y="200" type="curve"/>
      <point x="159" y="198" type="line"/>
      <point x="123" y="192"/>
      <point x="71" y="176"/>
      <point x="71" y="124" type="curve" smooth="yes"/>
      <point x="71" y="89"/>
      <point x="99" y="72"/>
      <point x="141" y="56" type="curve" smooth="yes"/>
      <point x="157" y="50" type="line"/>
      <point x="156" y="46" type="line"/>
      <point x="68" y="25"/>
      <point x="-37" y="-18"/>
      <point x="-37" y="-104" type="curve" smooth="yes"/>
      <point x="-37" y="-173"/>
      <point x="30" y="-212"/>
    </contour>
    <contour>
      <point x="217" y="207" type="curve"/>
      <point x="148" y="207"/>
      <point x="120" y="248"/>
      <point x="120" y="317" type="curve" smooth="yes"/>
      <point x="120" y="325"/>
      <point x="121" y="348"/>
      <point x="129" y="379" type="curve" smooth="yes"/>
      <point x="145" y="442"/>
      <point x="206" y="501"/>
      <point x="274" y="501" type="curve" smooth="yes"/>
      <point x="343" y="501"/>
      <point x="371" y="460"/>
      <point x="371" y="391" type="curve" smooth="yes"/>
      <point x="371" y="383"/>
      <point x="370" y="360"/>
      <point x="362" y="329" type="curve" smooth="yes"/>
      <point x="346" y="266"/>
      <point x="285" y="207"/>
    </contour>
    <contour>
      <point x="138" y="-195" type="curve"/>
      <point x="59" y="-195"/>
      <point x="-15" y="-167"/>
      <point x="-15" y="-102" type="curve" smooth="yes"/>
      <point x="-15" y="-30"/>
      <point x="75" y="15"/>
      <point x="174" y="44" type="curve"/>
      <point x="260" y="11" type="line" smooth="yes"/>
      <point x="305" y="-6"/>
      <point x="343" y="-24"/>
      <point x="343" y="-74" type="curve" smooth="yes"/>
      <point x="343" y="-169"/>
      <point x="217" y="-195"/>
    </contour>
    <contour>
      <point x="278" y="540" type="move" name="top"/>
    </contour>
  </outline>
</glyph>
<glyph name="h" format="1">
  <advance width="521"/>
  <unicode hex="0068"/>
  <outline>
    <contour>
      <point x="338" y="-12" type="curve" smooth="yes"/>
      <point x="352" y="-12"/>
      <point x="365" y="-5"/>
      <point x="400" y="28" type="curve" smooth="yes"/>
      <point x="489" y="111" type="line"/>
      <point x="482" y="119" type="line"/>
      <point x="347" y="6" type="line"/>
      <point x="329" y="14" type="line"/>
      <point x="438" y="425" type="line" smooth="yes"/>
      <point x="441" y="438"/>
      <point x="443" y="450"/>
      <point x="443" y="461" type="curve" smooth="yes"/>
      <point x="443" y="494"/>
      <point x="427" y="518"/>
      <point x="383" y="518" type="curve" smooth="yes"/>
      <point x="271" y="518"/>
      <point x="182" y="364"/>
      <point x="139" y="277" type="curve"/>
      <point x="134" y="278" type="line"/>
      <point x="256" y="764" type="line"/>
      <point x="146" y="753" type="line"/>
      <point x="144" y="742" type="line"/>
      <point x="229" y="742" type="line"/>
      <point x="44" y="0" type="line" name="hr01"/>
      <point x="65" y="0" type="line"/>
      <point x="107" y="169" type="line" smooth="yes"/>
      <point x="130" y="263"/>
      <point x="207" y="386"/>
      <point x="272" y="448" type="curve" smooth="yes"/>
      <point x="309" y="483"/>
      <point x="343" y="500"/>
      <point x="377" y="500" type="curve" smooth="yes"/>
      <point x="408" y="500"/>
      <point x="422" y="485"/>
      <point x="422" y="458" type="curve" smooth="yes"/>
      <point x="422" y="449"/>
      <point x="420" y="438"/>
      <point x="417" y="425" type="curve" smooth="yes"/>
      <point x="314" y="40" type="line" smooth="yes"/>
      <point x="311" y="28"/>
      <point x="310" y="19"/>
      <point x="310" y="13" type="curve" smooth="yes"/>
      <point x="310" y="-8"/>
      <point x="327" y="-12"/>
    </contour>
    <contour>
      <point x="191" y="0" type="move" name="bottom"/>
    </contour>
    <contour>
      <point x="234" y="718" type="move" name="top"/>
    </contour>
  </outline>
</glyph>
<glyph name="i" format="1">
  <advance width="271"/>
  <unicode hex="0069"/>
  <outline>
    <contour>
      <point x="90" y="-12" type="curve" smooth="yes" name="hr00"/>
      <point x="105" y="-12"/>
      <point x="118" y="-5"/>
      <point x="153" y="28" type="curve" smooth="yes"/>
      <point x="242" y="111" type="line"/>
      <point x="235" y="119" type="line"/>
      <point x="100" y="6" type="line"/>
      <point x="82" y="14" type="line"/>
      <point x="206" y="512" type="line"/>
      <point x="96" y="501" type="line"/>
      <point x="94" y="490" type="line"/>
      <point x="179" y="490" type="line"/>
      <point x="67" y="40" type="line" smooth="yes"/>
      <point x="64" y="28"/>
      <point x="63" y="19"/>
      <point x="63" y="13" type="curve" smooth="yes"/>
      <point x="63" y="-8"/>
      <point x="80" y="-12"/>
    </contour>
    <contour>
      <point x="238" y="670" type="curve" smooth="yes"/>
      <point x="249" y="670"/>
      <point x="257" y="675"/>
      <point x="261" y="681" type="curve" smooth="yes"/>
      <point x="265" y="687"/>
      <point x="266" y="694"/>
      <point x="266" y="699" type="curve" smooth="yes"/>
      <point x="266" y="710"/>
      <point x="259" y="720"/>
      <point x="244" y="720" type="curve" smooth="yes"/>
      <point x="233" y="720"/>
      <point x="225" y="715"/>
      <point x="221" y="709" type="curve" smooth="yes"/>
      <point x="217" y="703"/>
      <point x="216" y="696"/>
      <point x="216" y="691" type="curve" smooth="yes"/>
      <point x="216" y="680"/>
      <point x="223" y="670"/>
    </contour>
    <contour>
      <point x="89" y="0" type="move" name="bottom"/>
    </contour>
    <contour>
      <point x="120" y="0" type="move" name="bottomright"/>
    </contour>
  </outline>
</glyph>
<glyph name="j" format="1">
  <advance width="246"/>
  <unicode hex="006A"/>
  <outline>
    <contour>
      <point x="-66" y="-212" type="curve" smooth="yes" name="hr00"/>
      <point x="-3" y="-212"/>
      <point x="36" y="-167"/>
      <point x="56" y="-87" type="curve" smooth="yes"/>
      <point x="206" y="512" type="line"/>
      <point x="96" y="501" type="line"/>
      <point x="94" y="490" type="line"/>
      <point x="179" y="490" type="line"/>
      <point x="37" y="-80" type="line" smooth="yes"/>
      <point x="18" y="-157"/>
      <point x="-16" y="-201"/>
      <point x="-75" y="-201" type="curve" smooth="yes"/>
      <point x="-90" y="-201" type="line"/>
      <point x="-90" y="-198" type="line"/>
      <point x="-79" y="-193"/>
      <point x="-70" y="-182"/>
      <point x="-70" y="-170" type="curve" smooth="yes"/>
      <point x="-70" y="-158"/>
      <point x="-79" y="-146"/>
      <point x="-95" y="-146" type="curve" smooth="yes"/>
      <point x="-110" y="-146"/>
      <point x="-121" y="-158"/>
      <point x="-121" y="-172" type="curve" smooth="yes"/>
      <point x="-121" y="-196"/>
      <point x="-98" y="-212"/>
    </contour>
    <contour>
      <point x="238" y="670" type="curve" smooth="yes"/>
      <point x="249" y="670"/>
      <point x="257" y="675"/>
      <point x="261" y="681" type="curve" smooth="yes"/>
      <point x="265" y="687"/>
      <point x="266" y="694"/>
      <point x="266" y="699" type="curve" smooth="yes"/>
      <point x="266" y="710"/>
      <point x="259" y="720"/>
      <point x="244" y="720" type="curve" smooth="yes"/>
      <point x="233" y="720"/>
      <point x="225" y="715"/>
      <point x="221" y="709" type="curve" smooth="yes"/>
      <point x="217" y="703"/>
      <point x="216" y="696"/>
      <point x="216" y="691" type="curve" smooth="yes"/>
      <point x="216" y="680"/>
      <point x="223" y="670"/>
    </contour>
  </outline>
</glyph>
<glyph name="k" format="1">
  <advance width="494"/>
  <unicode hex="006B"/>
  <outline>
    <contour>
      <point x="309" y="-12" type="curve" smooth="yes"/>
      <point x="321" y="-12"/>
      <point x="335" y="-5"/>
      <point x="370" y="28" type="curve" smooth="yes"/>
      <point x="458" y="111" type="line"/>
      <point x="451" y="118" type="line"/>
      <point x="323" y="11" type="line"/>
      <point x="305" y="11" type="line"/>
      <point x="215" y="218" type="line"/>
      <point x="290" y="253"/>
      <point x="443" y="356"/>
      <point x="443" y="460" type="curve" smooth="yes"/>
      <point x="443" y="497"/>
      <point x="425" y="518"/>
      <point x="383" y="518" type="curve" smooth="yes"/>
      <point x="271" y="518"/>
      <point x="182" y="364"/>
      <point x="139" y="277" type="curve"/>
      <point x="134" y="278" type="line"/>
      <point x="257" y="764" type="line"/>
      <point x="147" y="753" type="line"/>
      <point x="145" y="742" type="line"/>
      <point x="230" y="742" type="line"/>
      <point x="44" y="0" type="line" name="hr01"/>
      <point x="65" y="0" type="line"/>
      <point x="107" y="169" type="line" smooth="yes"/>
      <point x="130" y="263"/>
      <point x="207" y="386"/>
      <point x="272" y="448" type="curve" smooth="yes"/>
      <point x="309" y="483"/>
      <point x="343" y="500"/>
      <point x="377" y="500" type="curve" smooth="yes"/>
      <point x="409" y="500"/>
      <point x="422" y="485"/>
      <point x="422" y="457" type="curve" smooth="yes"/>
      <point x="422" y="390"/>
      <point x="343" y="296"/>
      <point x="192" y="221" type="curve"/>
      <point x="283" y="9" type="line" smooth="yes"/>
      <point x="290" y="-6"/>
      <point x="297" y="-12"/>
    </contour>
    <contour>
      <point x="168" y="0" type="move" name="bottom"/>
    </contour>
  </outline>
</glyph>
<glyph name="l" format="1">
  <advance width="263"/>
  <unicode hex="006C"/>
  <outline>
    <contour>
      <point x="77" y="-12" type="curve" smooth="yes" name="hr00"/>
      <point x="92" y="-12"/>
      <point x="105" y="-5"/>
      <point x="140" y="28" type="curve" smooth="yes"/>
      <point x="229" y="111" type="line"/>
      <point x="222" y="119" type="line"/>
      <point x="87" y="6" type="line"/>
      <point x="69" y="14" type="line"/>
      <point x="257" y="764" type="line"/>
      <point x="147" y="753" type="line"/>
      <point x="145" y="742" type="line"/>
      <point x="230" y="742" type="line"/>
      <point x="54" y="40" type="line" smooth="yes"/>
      <point x="51" y="28"/>
      <point x="50" y="19"/>
      <point x="50" y="13" type="curve" smooth="yes"/>
      <point x="50" y="-8"/>
      <point x="67" y="-12"/>
    </contour>
    <contour>
      <point x="73" y="0" type="move" name="bottom"/>
    </contour>
    <contour>
      <point x="247" y="766" type="move" name="top"/>
    </contour>
    <contour>
      <point x="296" y="758" type="move" name="topright"/>
    </contour>
  </outline>
</glyph>
<glyph name="m" format="1">
  <advance width="800"/>
  <unicode hex="006D"/>
  <outline>
    <contour>
      <point x="617" y="-12" type="curve" smooth="yes"/>
      <point x="631" y="-12"/>
      <point x="644" y="-5"/>
      <point x="679" y="28" type="curve" smooth="yes"/>
      <point x="768" y="111" type="line"/>
      <point x="761" y="119" type="line"/>
      <point x="626" y="6" type="line"/>
      <point x="608" y="14" type="line"/>
      <point x="717" y="425" type="line" smooth="yes"/>
      <point x="720" y="438"/>
      <point x="722" y="450"/>
      <point x="722" y="461" type="curve" smooth="yes"/>
      <point x="722" y="494"/>
      <point x="706" y="518"/>
      <point x="661" y="518" type="curve" smooth="yes"/>
      <point x="549" y="518"/>
      <point x="458" y="358"/>
      <point x="418" y="277" type="curve"/>
      <point x="413" y="278" type="line"/>
      <point x="449" y="419" type="line" smooth="yes"/>
      <point x="453" y="432"/>
      <point x="455" y="446"/>
      <point x="455" y="458" type="curve" smooth="yes"/>
      <point x="455" y="492"/>
      <point x="439" y="518"/>
      <point x="395" y="518" type="curve" smooth="yes"/>
      <point x="283" y="518"/>
      <point x="192" y="359"/>
      <point x="152" y="277" type="curve"/>
      <point x="147" y="278" type="line"/>
      <point x="206" y="512" type="line" name="hr01"/>
      <point x="96" y="501" type="line"/>
      <point x="94" y="490" type="line"/>
      <point x="179" y="490" type="line"/>
      <point x="57" y="0" type="line"/>
      <point x="78" y="0" type="line"/>
      <point x="120" y="169" type="line" smooth="yes"/>
      <point x="143" y="263"/>
      <point x="220" y="386"/>
      <point x="285" y="448" type="curve" smooth="yes"/>
      <point x="322" y="483"/>
      <point x="356" y="500"/>
      <point x="390" y="500" type="curve" smooth="yes" name="hr02"/>
      <point x="421" y="500"/>
      <point x="434" y="484"/>
      <point x="434" y="457" type="curve" smooth="yes"/>
      <point x="434" y="447"/>
      <point x="432" y="436"/>
      <point x="429" y="423" type="curve" smooth="yes"/>
      <point x="323" y="0" type="line"/>
      <point x="344" y="0" type="line"/>
      <point x="386" y="169" type="line" smooth="yes"/>
      <point x="409" y="263"/>
      <point x="486" y="386"/>
      <point x="551" y="448" type="curve" smooth="yes"/>
      <point x="588" y="483"/>
      <point x="622" y="500"/>
      <point x="656" y="500" type="curve" smooth="yes"/>
      <point x="687" y="500"/>
      <point x="701" y="485"/>
      <point x="701" y="458" type="curve" smooth="yes"/>
      <point x="701" y="449"/>
      <point x="699" y="438"/>
      <point x="696" y="425" type="curve" smooth="yes"/>
      <point x="593" y="40" type="line" smooth="yes"/>
      <point x="590" y="28"/>
      <point x="589" y="19"/>
      <point x="589" y="13" type="curve" smooth="yes"/>
      <point x="589" y="-8"/>
      <point x="606" y="-12"/>
    </contour>
    <contour>
      <point x="333" y="0" type="move" name="bottom"/>
    </contour>
    <contour>
      <point x="471" y="540" type="move" name="top"/>
    </contour>
  </outline>
</glyph>
<glyph name="n" format="1">
  <advance width="534"/>
  <unicode hex="006E"/>
  <outline>
    <contour>
      <point x="351" y="-12" type="curve" smooth="yes"/>
      <point x="365" y="-12"/>
      <point x="378" y="-5"/>
      <point x="413" y="28" type="curve" smooth="yes"/>
      <point x="502" y="111" type="line"/>
      <point x="495" y="119" type="line"/>
      <point x="360" y="6" type="line"/>
      <point x="342" y="14" type="line"/>
      <point x="451" y="425" type="line" smooth="yes"/>
      <point x="454" y="438"/>
      <point x="456" y="450"/>
      <point x="456" y="461" type="curve" smooth="yes"/>
      <point x="456" y="494"/>
      <point x="440" y="518"/>
      <point x="396" y="518" type="curve" smooth="yes"/>
      <point x="284" y="518"/>
      <point x="195" y="364"/>
      <point x="152" y="277" type="curve"/>
      <point x="147" y="278" type="line"/>
      <point x="206" y="512" type="line" name="hr01"/>
      <point x="96" y="501" type="line"/>
      <point x="94" y="490" type="line"/>
      <point x="179" y="490" type="line"/>
      <point x="57" y="0" type="line"/>
      <point x="78" y="0" type="line"/>
      <point x="120" y="169" type="line" smooth="yes"/>
      <point x="143" y="263"/>
      <point x="220" y="386"/>
      <point x="285" y="448" type="curve" smooth="yes"/>
      <point x="322" y="483"/>
      <point x="356" y="500"/>
      <point x="390" y="500" type="curve" smooth="yes" name="hr02"/>
      <point x="421" y="500"/>
      <point x="435" y="485"/>
      <point x="435" y="458" type="curve" smooth="yes"/>
      <point x="435" y="449"/>
      <point x="433" y="438"/>
      <point x="430" y="425" type="curve" smooth="yes"/>
      <point x="327" y="40" type="line" smooth="yes"/>
      <point x="324" y="28"/>
      <point x="323" y="19"/>
      <point x="323" y="13" type="curve" smooth="yes"/>
      <point x="323" y="-8"/>
      <point x="340" y="-12"/>
    </contour>
    <contour>
      <point x="204" y="0" type="move" name="bottom"/>
    </contour>
    <contour>
      <point x="341" y="540" type="move" name="top"/>
    </contour>
  </outline>
</glyph>
<glyph name="o" format="1">
  <advance width="461"/>
  <unicode hex="006F"/>
  <outline>
    <contour>
      <point x="177" y="5" type="curve" name="hr00"/>
      <point x="95" y="5"/>
      <point x="72" y="63"/>
      <point x="72" y="149" type="curve" smooth="yes"/>
      <point x="72" y="178"/>
      <point x="73" y="203"/>
      <point x="85" y="254" type="curve" smooth="yes"/>
      <point x="116" y="384"/>
      <point x="182" y="501"/>
      <point x="284" y="501" type="curve" smooth="yes"/>
      <point x="366" y="501"/>
      <point x="389" y="443"/>
      <point x="389" y="357" type="curve" smooth="yes"/>
      <point x="389" y="328"/>
      <point x="388" y="303"/>
      <point x="376" y="252" type="curve" smooth="yes"/>
      <point x="345" y="122"/>
      <point x="279" y="5"/>
    </contour>
    <contour>
      <point x="177" y="-12" type="curve" smooth="yes"/>
      <point x="309" y="-12"/>
      <point x="411" y="176"/>
      <point x="411" y="357" type="curve" smooth="yes"/>
      <point x="411" y="455"/>
      <point x="375" y="518"/>
      <point x="284" y="518" type="curve" smooth="yes"/>
      <point x="152" y="518"/>
      <point x="50" y="330"/>
      <point x="50" y="149" type="curve" smooth="yes"/>
      <point x="50" y="51"/>
      <point x="86" y="-12"/>
    </contour>
    <contour>
      <point x="175" y="0" type="move" name="bottom"/>
    </contour>
    <contour>
      <point x="287" y="540" type="move" name="top"/>
    </contour>
  </outline>
</glyph>
<glyph name="p" format="1">
  <advance width="497"/>
  <unicode hex="0070"/>
  <outline>
    <contour>
      <point x="-66" y="-200" type="line"/>
      <point x="126" y="-200" type="line"/>
      <point x="130" y="-183" type="line"/>
      <point x="32" y="-183" type="line"/>
      <point x="92" y="59" type="line"/>
      <point x="96" y="59" type="line"/>
      <point x="107" y="4"/>
      <point x="144" y="-12"/>
      <point x="188" y="-12" type="curve" smooth="yes"/>
      <point x="359" y="-12"/>
      <point x="446" y="210"/>
      <point x="446" y="389" type="curve" smooth="yes"/>
      <point x="446" y="456"/>
      <point x="428" y="518"/>
      <point x="356" y="518" type="curve" smooth="yes"/>
      <point x="258" y="518"/>
      <point x="191" y="373"/>
      <point x="155" y="288" type="curve"/>
      <point x="150" y="289" type="line"/>
      <point x="206" y="512" type="line" name="hr01"/>
      <point x="96" y="501" type="line"/>
      <point x="94" y="490" type="line"/>
      <point x="179" y="490" type="line"/>
      <point x="11" y="-183" type="line"/>
      <point x="-62" y="-183" type="line"/>
    </contour>
    <contour>
      <point x="187" y="5" type="curve"/>
      <point x="120" y="5"/>
      <point x="90" y="48"/>
      <point x="115" y="146" type="curve" smooth="yes"/>
      <point x="121" y="170" type="line" smooth="yes"/>
      <point x="143" y="256"/>
      <point x="204" y="383"/>
      <point x="267" y="455" type="curve" smooth="yes"/>
      <point x="296" y="488"/>
      <point x="329" y="500"/>
      <point x="352" y="500" type="curve" smooth="yes" name="hr02"/>
      <point x="413" y="500"/>
      <point x="424" y="449"/>
      <point x="424" y="389" type="curve" smooth="yes"/>
      <point x="424" y="351"/>
      <point x="420" y="308"/>
      <point x="405" y="246" type="curve" smooth="yes"/>
      <point x="371" y="107"/>
      <point x="298" y="5"/>
    </contour>
    <contour>
      <point x="310" y="540" type="move" name="top"/>
    </contour>
  </outline>
</glyph>
<glyph name="q" format="1">
  <advance width="484"/>
  <unicode hex="0071"/>
  <outline>
    <contour>
      <point x="143" y="-200" type="line"/>
      <point x="335" y="-200" type="line"/>
      <point x="339" y="-183" type="line"/>
      <point x="266" y="-183" type="line"/>
      <point x="439" y="506" type="line"/>
      <point x="427" y="506" type="line"/>
      <point x="404" y="447" type="line"/>
      <point x="400" y="447" type="line"/>
      <point x="389" y="502"/>
      <point x="352" y="518"/>
      <point x="308" y="518" type="curve" smooth="yes" name="hr01"/>
      <point x="137" y="518"/>
      <point x="50" y="296"/>
      <point x="50" y="117" type="curve" smooth="yes"/>
      <point x="50" y="50"/>
      <point x="68" y="-12"/>
      <point x="140" y="-12" type="curve" smooth="yes"/>
      <point x="238" y="-12"/>
      <point x="305" y="133"/>
      <point x="341" y="218" type="curve"/>
      <point x="346" y="217" type="line"/>
      <point x="245" y="-183" type="line"/>
      <point x="147" y="-183" type="line"/>
    </contour>
    <contour>
      <point x="144" y="6" type="curve"/>
      <point x="83" y="6"/>
      <point x="72" y="57"/>
      <point x="72" y="117" type="curve" smooth="yes"/>
      <point x="72" y="155"/>
      <point x="76" y="198"/>
      <point x="91" y="260" type="curve" smooth="yes"/>
      <point x="125" y="399"/>
      <point x="198" y="501"/>
      <point x="309" y="501" type="curve" smooth="yes"/>
      <point x="376" y="501"/>
      <point x="406" y="458"/>
      <point x="381" y="360" type="curve" smooth="yes"/>
      <point x="375" y="336" type="line" smooth="yes"/>
      <point x="353" y="250"/>
      <point x="292" y="123"/>
      <point x="229" y="51" type="curve" smooth="yes"/>
      <point x="200" y="18"/>
      <point x="167" y="6"/>
    </contour>
    <contour>
      <point x="311" y="540" type="move" name="top"/>
    </contour>
  </outline>
</glyph>
<glyph name="r" format="1">
  <advance width="372"/>
  <unicode hex="0072"/>
  <outline>
    <contour>
      <point x="57" y="0" type="line"/>
      <point x="78" y="0" type="line"/>
      <point x="120" y="169" type="line" smooth="yes"/>
      <point x="145" y="268"/>
      <point x="223" y="411"/>
      <point x="270" y="460" type="curve" smooth="yes"/>
      <point x="303" y="494"/>
      <point x="330" y="507"/>
      <point x="354" y="507" type="curve" smooth="yes"/>
      <point x="369" y="507" type="line"/>
      <point x="369" y="504" type="line"/>
      <point x="358" y="499"/>
      <point x="349" y="488"/>
      <point x="349" y="476" type="curve" smooth="yes"/>
      <point x="349" y="464"/>
      <point x="358" y="452"/>
      <point x="374" y="452" type="curve" smooth="yes"/>
      <point x="389" y="452"/>
      <point x="400" y="464"/>
      <point x="400" y="481" type="curve" smooth="yes"/>
      <point x="400" y="502"/>
      <point x="383" y="518"/>
      <point x="351" y="518" type="curve" smooth="yes"/>
      <point x="258" y="518"/>
      <point x="191" y="370"/>
      <point x="155" y="289" type="curve"/>
      <point x="150" y="290" type="line"/>
      <point x="206" y="512" type="line" name="hr01"/>
      <point x="96" y="501" type="line"/>
      <point x="94" y="490" type="line"/>
      <point x="179" y="490" type="line"/>
    </contour>
    <contour>
      <point x="68" y="0" type="move" name="bottom"/>
    </contour>
    <contour>
      <point x="262" y="540" type="move" name="top"/>
    </contour>
  </outline>
</glyph>
<glyph name="s" format="1">
  <advance width="347"/>
  <unicode hex="0073"/>
  <outline>
    <contour>
      <point x="91" y="-12" type="curve" smooth="yes" name="hr00"/>
      <point x="182" y="-12"/>
      <point x="260" y="38"/>
      <point x="260" y="129" type="curve" smooth="yes"/>
      <point x="260" y="178"/>
      <point x="239" y="208"/>
      <point x="191" y="256" type="curve" smooth="yes"/>
      <point x="133" y="315"/>
      <point x="121" y="334"/>
      <point x="121" y="379" type="curve" smooth="yes"/>
      <point x="121" y="478"/>
      <point x="209" y="506"/>
      <point x="274" y="506" type="curve" smooth="yes"/>
      <point x="289" y="506"/>
      <point x="302" y="505"/>
      <point x="310" y="502" type="curve"/>
      <point x="310" y="499" type="line"/>
      <point x="299" y="494"/>
      <point x="290" y="483"/>
      <point x="290" y="471" type="curve" smooth="yes"/>
      <point x="290" y="459"/>
      <point x="299" y="447"/>
      <point x="315" y="447" type="curve" smooth="yes"/>
      <point x="330" y="447"/>
      <point x="341" y="459"/>
      <point x="341" y="473" type="curve" smooth="yes"/>
      <point x="341" y="502"/>
      <point x="310" y="518"/>
      <point x="261" y="518" type="curve" smooth="yes"/>
      <point x="174" y="518"/>
      <point x="100" y="469"/>
      <point x="100" y="377" type="curve" smooth="yes"/>
      <point x="100" y="325"/>
      <point x="124" y="295"/>
      <point x="169" y="250" type="curve" smooth="yes"/>
      <point x="226" y="193"/>
      <point x="239" y="172"/>
      <point x="239" y="127" type="curve" smooth="yes"/>
      <point x="239" y="28"/>
      <point x="144" y="0"/>
      <point x="81" y="0" type="curve" smooth="yes"/>
      <point x="65" y="0"/>
      <point x="51" y="1"/>
      <point x="42" y="4" type="curve"/>
      <point x="42" y="7" type="line"/>
      <point x="53" y="12"/>
      <point x="62" y="23"/>
      <point x="62" y="35" type="curve" smooth="yes"/>
      <point x="62" y="47"/>
      <point x="53" y="59"/>
      <point x="37" y="59" type="curve" smooth="yes"/>
      <point x="22" y="59"/>
      <point x="11" y="47"/>
      <point x="11" y="33" type="curve" smooth="yes"/>
      <point x="11" y="4"/>
      <point x="42" y="-12"/>
    </contour>
    <contour>
      <point x="104" y="0" type="move" name="bottom"/>
    </contour>
    <contour>
      <point x="243" y="540" type="move" name="top"/>
    </contour>
  </outline>
</glyph>
<glyph name="t" format="1">
  <advance width="315"/>
  <unicode hex="0074"/>
  <outline>
    <contour>
      <point x="82" y="-12" type="curve" smooth="yes" name="hr00"/>
      <point x="97" y="-12"/>
      <point x="107" y="-8"/>
      <point x="142" y="17" type="curve" smooth="yes"/>
      <point x="262" y="103" type="line"/>
      <point x="256" y="111" type="line"/>
      <point x="92" y="6" type="line"/>
      <point x="74" y="14" type="line"/>
      <point x="193" y="489" type="line"/>
      <point x="333" y="489" type="line"/>
      <point x="337" y="506" type="line"/>
      <point x="197" y="506" type="line"/>
      <point x="233" y="650" type="line"/>
      <point x="224" y="650" type="line"/>
      <point x="188" y="541" type="line" smooth="yes"/>
      <point x="179" y="513"/>
      <point x="163" y="506"/>
      <point x="131" y="506" type="curve" smooth="yes"/>
      <point x="96" y="506" type="line"/>
      <point x="92" y="489" type="line"/>
      <point x="171" y="489" type="line"/>
      <point x="59" y="40" type="line" smooth="yes"/>
      <point x="56" y="28"/>
      <point x="55" y="19"/>
      <point x="55" y="13" type="curve" smooth="yes"/>
      <point x="55" y="-8"/>
      <point x="72" y="-12"/>
    </contour>
    <contour>
      <point x="84" y="0" type="move" name="bottom"/>
    </contour>
    <contour>
      <point x="299" y="758" type="move" name="topright"/>
    </contour>
  </outline>
</glyph>
<glyph name="u" format="1">
  <advance width="527"/>
  <unicode hex="0075"/>
  <outline>
    <contour>
      <point x="124" y="-12" type="curve" smooth="yes"/>
      <point x="236" y="-12"/>
      <point x="324" y="142"/>
      <point x="367" y="229" type="curve"/>
      <point x="372" y="228" type="line"/>
      <point x="325" y="43" type="line" smooth="yes"/>
      <point x="322" y="31"/>
      <point x="320" y="19"/>
      <point x="320" y="13" type="curve" smooth="yes"/>
      <point x="320" y="-8"/>
      <point x="337" y="-12"/>
      <point x="348" y="-12" type="curve" smooth="yes"/>
      <point x="362" y="-12"/>
      <point x="375" y="-5"/>
      <point x="410" y="28" type="curve" smooth="yes"/>
      <point x="499" y="111" type="line"/>
      <point x="492" y="119" type="line"/>
      <point x="357" y="6" type="line"/>
      <point x="339" y="14" type="line"/>
      <point x="462" y="506" type="line"/>
      <point x="441" y="506" type="line"/>
      <point x="399" y="337" type="line" smooth="yes"/>
      <point x="376" y="243"/>
      <point x="299" y="120"/>
      <point x="234" y="58" type="curve" smooth="yes"/>
      <point x="197" y="23"/>
      <point x="163" y="6"/>
      <point x="129" y="6" type="curve" smooth="yes"/>
      <point x="98" y="6"/>
      <point x="84" y="21"/>
      <point x="84" y="48" type="curve" smooth="yes"/>
      <point x="84" y="57"/>
      <point x="86" y="68"/>
      <point x="89" y="81" type="curve" smooth="yes"/>
      <point x="204" y="512" type="line" name="hr01"/>
      <point x="94" y="501" type="line"/>
      <point x="92" y="490" type="line"/>
      <point x="177" y="490" type="line"/>
      <point x="68" y="81" type="line" smooth="yes"/>
      <point x="65" y="68"/>
      <point x="63" y="56"/>
      <point x="63" y="45" type="curve" smooth="yes"/>
      <point x="63" y="12"/>
      <point x="79" y="-12"/>
    </contour>
    <contour>
      <point x="214" y="0" type="move" name="bottom"/>
    </contour>
    <contour>
      <point x="377" y="0" type="move" name="bottomright"/>
    </contour>
    <contour>
      <point x="323" y="540" type="move" name="top"/>
    </contour>
  </outline>
</glyph>
<glyph name="v" format="1">
  <advance width="438"/>
  <unicode hex="0076"/>
  <outline>
    <contour>
      <point x="137" y="0" type="line" name="hr00"/>
      <point x="161" y="0" type="line"/>
      <point x="443" y="488" type="line"/>
      <point x="489" y="488" type="line"/>
      <point x="494" y="506" type="line"/>
      <point x="356" y="506" type="line"/>
      <point x="351" y="488" type="line"/>
      <point x="423" y="488" type="line"/>
      <point x="157" y="24" type="line"/>
      <point x="153" y="24" type="line"/>
      <point x="116" y="488" type="line"/>
      <point x="188" y="488" type="line"/>
      <point x="193" y="506" type="line"/>
      <point x="54" y="506" type="line"/>
      <point x="49" y="488" type="line"/>
      <point x="95" y="488" type="line"/>
    </contour>
    <contour>
      <point x="149" y="0" type="move" name="bottom"/>
    </contour>
    <contour>
      <point x="283" y="540" type="move" name="top"/>
    </contour>
  </outline>
</glyph>
<glyph name="w" format="1">
  <advance width="637"/>
  <unicode hex="0077"/>
  <outline>
    <contour>
      <point x="108" y="0" type="line"/>
      <point x="136" y="0" type="line"/>
      <point x="358" y="486" type="line"/>
      <point x="362" y="486" type="line"/>
      <point x="359" y="0" type="line"/>
      <point x="385" y="0" type="line"/>
      <point x="624" y="488" type="line" name="hr01"/>
      <point x="670" y="488" type="line"/>
      <point x="675" y="506" type="line"/>
      <point x="537" y="506" type="line"/>
      <point x="532" y="488" type="line"/>
      <point x="604" y="488" type="line"/>
      <point x="380" y="24" type="line"/>
      <point x="376" y="24" type="line"/>
      <point x="379" y="510" type="line" name="hr02"/>
      <point x="352" y="510" type="line"/>
      <point x="129" y="24" type="line"/>
      <point x="125" y="24" type="line"/>
      <point x="125" y="488" type="line" name="hr03"/>
      <point x="197" y="488" type="line"/>
      <point x="202" y="506" type="line"/>
      <point x="66" y="506" type="line"/>
      <point x="61" y="488" type="line"/>
      <point x="107" y="488" type="line"/>
    </contour>
    <contour>
      <point x="241" y="0" type="move" name="bottom"/>
    </contour>
    <contour>
      <point x="372" y="540" type="move" name="top"/>
    </contour>
  </outline>
</glyph>
<glyph name="x" format="1">
  <advance width="519"/>
  <unicode hex="0078"/>
  <outline>
    <contour>
      <point x="30" y="-12" type="curve" smooth="yes"/>
      <point x="70" y="-12"/>
      <point x="106" y="13"/>
      <point x="139" y="48" type="curve" smooth="yes"/>
      <point x="190" y="103"/>
      <point x="229" y="182"/>
      <point x="252" y="230" type="curve"/>
      <point x="256" y="230" type="line"/>
      <point x="297" y="9" type="line" smooth="yes"/>
      <point x="300" y="-8"/>
      <point x="312" y="-12"/>
      <point x="324" y="-12" type="curve" smooth="yes"/>
      <point x="337" y="-12"/>
      <point x="348" y="-5"/>
      <point x="383" y="28" type="curve" smooth="yes"/>
      <point x="472" y="111" type="line"/>
      <point x="465" y="118" type="line"/>
      <point x="336" y="11" type="line"/>
      <point x="317" y="11" type="line"/>
      <point x="269" y="253" type="line"/>
      <point x="357" y="439"/>
      <point x="436" y="506"/>
      <point x="498" y="506" type="curve" smooth="yes"/>
      <point x="512" y="506" type="line"/>
      <point x="512" y="503" type="line"/>
      <point x="502" y="500"/>
      <point x="491" y="490"/>
      <point x="491" y="475" type="curve" smooth="yes"/>
      <point x="491" y="463"/>
      <point x="501" y="451"/>
      <point x="516" y="451" type="curve" smooth="yes"/>
      <point x="531" y="451"/>
      <point x="542" y="462"/>
      <point x="542" y="479" type="curve" smooth="yes"/>
      <point x="542" y="503"/>
      <point x="521" y="518"/>
      <point x="490" y="518" type="curve" smooth="yes"/>
      <point x="450" y="518"/>
      <point x="414" y="493"/>
      <point x="381" y="458" type="curve" smooth="yes"/>
      <point x="330" y="403"/>
      <point x="291" y="324"/>
      <point x="268" y="276" type="curve"/>
      <point x="264" y="276" type="line"/>
      <point x="223" y="497" type="line" smooth="yes"/>
      <point x="220" y="514"/>
      <point x="208" y="518"/>
      <point x="196" y="518" type="curve" smooth="yes"/>
      <point x="183" y="518"/>
      <point x="172" y="511"/>
      <point x="137" y="478" type="curve" smooth="yes"/>
      <point x="48" y="395" type="line"/>
      <point x="55" y="388" type="line"/>
      <point x="184" y="495" type="line" name="hr01"/>
      <point x="203" y="495" type="line"/>
      <point x="251" y="253" type="line"/>
      <point x="163" y="67"/>
      <point x="84" y="0"/>
      <point x="22" y="0" type="curve" smooth="yes"/>
      <point x="8" y="0" type="line"/>
      <point x="8" y="3" type="line"/>
      <point x="18" y="6"/>
      <point x="29" y="16"/>
      <point x="29" y="31" type="curve" smooth="yes"/>
      <point x="29" y="43"/>
      <point x="19" y="55"/>
      <point x="4" y="55" type="curve" smooth="yes"/>
      <point x="-11" y="55"/>
      <point x="-22" y="44"/>
      <point x="-22" y="27" type="curve" smooth="yes"/>
      <point x="-22" y="3"/>
      <point x="-1" y="-12"/>
    </contour>
    <contour>
      <point x="198" y="0" type="move" name="bottom"/>
    </contour>
    <contour>
      <point x="330" y="540" type="move" name="top"/>
    </contour>
  </outline>
</glyph>
<glyph name="y" format="1">
  <advance width="439"/>
  <unicode hex="0079"/>
  <outline>
    <contour>
      <point x="-61" y="-212" type="curve" smooth="yes" name="hr00"/>
      <point x="11" y="-212"/>
      <point x="62" y="-174"/>
      <point x="110" y="-91" type="curve" smooth="yes"/>
      <point x="445" y="488" type="line"/>
      <point x="491" y="488" type="line"/>
      <point x="496" y="506" type="line"/>
      <point x="358" y="506" type="line"/>
      <point x="353" y="488" type="line"/>
      <point x="425" y="488" type="line"/>
      <point x="158" y="21" type="line"/>
      <point x="153" y="21" type="line"/>
      <point x="116" y="488" type="line"/>
      <point x="188" y="488" type="line"/>
      <point x="193" y="506" type="line"/>
      <point x="54" y="506" type="line"/>
      <point x="49" y="488" type="line"/>
      <point x="95" y="488" type="line"/>
      <point x="137" y="-7" type="line"/>
      <point x="94" y="-82" type="line" smooth="yes"/>
      <point x="46" y="-166"/>
      <point x="-1" y="-201"/>
      <point x="-73" y="-201" type="curve"/>
      <point x="-85" y="-201" type="line"/>
      <point x="-85" y="-198" type="line"/>
      <point x="-71" y="-193"/>
      <point x="-64" y="-185"/>
      <point x="-64" y="-172" type="curve" smooth="yes"/>
      <point x="-64" y="-157"/>
      <point x="-73" y="-146"/>
      <point x="-90" y="-146" type="curve" smooth="yes"/>
      <point x="-107" y="-146"/>
      <point x="-116" y="-157"/>
      <point x="-116" y="-172" type="curve" smooth="yes"/>
      <point x="-116" y="-196"/>
      <point x="-94" y="-212"/>
    </contour>
    <contour>
      <point x="279" y="0" type="move" name="bottom"/>
    </contour>
    <contour>
      <point x="284" y="540" type="move" name="top"/>
    </contour>
  </outline>
</glyph>
<glyph name="z" format="1">
  <advance width="469"/>
  <unicode hex="007A"/>
  <outline>
    <contour>
      <point x="332" y="-12" type="curve" smooth="yes"/>
      <point x="357" y="-12"/>
      <point x="367" y="-3"/>
      <point x="372" y="18" type="curve" smooth="yes"/>
      <point x="404" y="154" type="line"/>
      <point x="394" y="156" type="line"/>
      <point x="351" y="13" type="line"/>
      <point x="335" y="5" type="line"/>
      <point x="43" y="56" type="line"/>
      <point x="414" y="421" type="line" smooth="yes"/>
      <point x="426" y="432"/>
      <point x="437" y="443"/>
      <point x="442" y="462" type="curve" smooth="yes"/>
      <point x="453" y="506" type="line"/>
      <point x="434" y="506" type="line"/>
      <point x="423" y="461" type="line"/>
      <point x="304" y="490"/>
      <point x="197" y="518"/>
      <point x="168" y="518" type="curve" smooth="yes" name="hr01"/>
      <point x="143" y="518"/>
      <point x="133" y="509"/>
      <point x="128" y="488" type="curve" smooth="yes"/>
      <point x="96" y="352" type="line"/>
      <point x="106" y="350" type="line"/>
      <point x="149" y="493" type="line"/>
      <point x="165" y="501" type="line"/>
      <point x="420" y="450" type="line"/>
      <point x="49" y="85" type="line" smooth="yes"/>
      <point x="37" y="74"/>
      <point x="26" y="63"/>
      <point x="21" y="44" type="curve"/>
      <point x="10" y="0" type="line"/>
      <point x="29" y="0" type="line"/>
      <point x="40" y="45" type="line"/>
      <point x="175" y="16"/>
      <point x="300" y="-12"/>
    </contour>
    <contour>
      <point x="191" y="0" type="move" name="bottom"/>
    </contour>
    <contour>
      <point x="301" y="540" type="move" name="top"/>
    </contour>
  </outline>
</glyph>
<glyph name="braceleft" format="1">
  <advance width="304"/>
  <unicode hex="007B"/>
  <outline>
    <contour>
      <point x="56" y="-138" type="curve" smooth="yes" name="hr00"/>
      <point x="151" y="-138" type="line"/>
      <point x="155" y="-121" type="line"/>
      <point x="55" y="-121" type="line"/>
      <point x="135" y="201" type="line" smooth="yes"/>
      <point x="137" y="211"/>
      <point x="139" y="220"/>
      <point x="139" y="229" type="curve" smooth="yes"/>
      <point x="139" y="273"/>
      <point x="107" y="299"/>
      <point x="60" y="303" type="curve"/>
      <point x="64" y="319" type="line"/>
      <point x="131" y="319"/>
      <point x="172" y="351"/>
      <point x="189" y="421" type="curve" smooth="yes"/>
      <point x="269" y="743" type="line"/>
      <point x="371" y="743" type="line"/>
      <point x="375" y="760" type="line"/>
      <point x="276" y="760" type="line" smooth="yes"/>
      <point x="259" y="760"/>
      <point x="253" y="756"/>
      <point x="249" y="740" type="curve" smooth="yes"/>
      <point x="169" y="420" type="line" smooth="yes"/>
      <point x="153" y="355"/>
      <point x="114" y="333"/>
      <point x="51" y="333" type="curve"/>
      <point x="39" y="289" type="line"/>
      <point x="88" y="289"/>
      <point x="119" y="271"/>
      <point x="119" y="229" type="curve" smooth="yes"/>
      <point x="119" y="221"/>
      <point x="117" y="212"/>
      <point x="115" y="202" type="curve" smooth="yes"/>
      <point x="36" y="-114" type="line" smooth="yes"/>
      <point x="35" y="-118"/>
      <point x="34" y="-122"/>
      <point x="34" y="-125" type="curve" smooth="yes"/>
      <point x="34" y="-135"/>
      <point x="41" y="-138"/>
    </contour>
  </outline>
</glyph>
<glyph name="bar" format="1">
  <advance width="322"/>
  <unicode hex="007C"/>
  <outline>
    <contour>
      <point x="55" y="-138" type="line" name="hr00"/>
      <point x="73" y="-138" type="line"/>
      <point x="297" y="760" type="line"/>
      <point x="279" y="760" type="line"/>
    </contour>
  </outline>
</glyph>
<glyph name="braceright" format="1">
  <advance width="305"/>
  <unicode hex="007D"/>
  <outline>
    <contour>
      <point x="-38" y="-138" type="line" name="hr00"/>
      <point x="61" y="-138" type="line" smooth="yes"/>
      <point x="78" y="-138"/>
      <point x="84" y="-134"/>
      <point x="88" y="-118" type="curve" smooth="yes"/>
      <point x="168" y="202" type="line" smooth="yes"/>
      <point x="184" y="267"/>
      <point x="223" y="289"/>
      <point x="286" y="289" type="curve"/>
      <point x="298" y="333" type="line"/>
      <point x="249" y="333"/>
      <point x="218" y="351"/>
      <point x="218" y="393" type="curve" smooth="yes"/>
      <point x="218" y="401"/>
      <point x="220" y="410"/>
      <point x="222" y="420" type="curve" smooth="yes"/>
      <point x="301" y="736" type="line" smooth="yes"/>
      <point x="302" y="740"/>
      <point x="303" y="744"/>
      <point x="303" y="747" type="curve" smooth="yes"/>
      <point x="303" y="757"/>
      <point x="296" y="760"/>
      <point x="281" y="760" type="curve" smooth="yes"/>
      <point x="186" y="760" type="line"/>
      <point x="182" y="743" type="line"/>
      <point x="282" y="743" type="line"/>
      <point x="202" y="421" type="line" smooth="yes"/>
      <point x="200" y="411"/>
      <point x="198" y="402"/>
      <point x="198" y="393" type="curve" smooth="yes"/>
      <point x="198" y="348"/>
      <point x="229" y="323"/>
      <point x="277" y="319" type="curve"/>
      <point x="273" y="303" type="line"/>
      <point x="206" y="303"/>
      <point x="165" y="271"/>
      <point x="148" y="201" type="curve" smooth="yes"/>
      <point x="68" y="-121" type="line"/>
      <point x="-34" y="-121" type="line"/>
    </contour>
  </outline>
</glyph>
<glyph name="asciitilde" format="1">
  <advance width="550"/>
  <unicode hex="007E"/>
  <outline>
    <contour>
      <point x="409" y="257" type="curve" smooth="yes" name="hr00"/>
      <point x="451" y="257"/>
      <point x="486" y="270"/>
      <point x="521" y="304" type="curve"/>
      <point x="510" y="317" type="line"/>
      <point x="476" y="285"/>
      <point x="448" y="275"/>
      <point x="409" y="275" type="curve" smooth="yes"/>
      <point x="375" y="275"/>
      <point x="356" y="282"/>
      <point x="291" y="312" type="curve" smooth="yes"/>
      <point x="222" y="344"/>
      <point x="194" y="351"/>
      <point x="163" y="351" type="curve" smooth="yes"/>
      <point x="121" y="351"/>
      <point x="86" y="338"/>
      <point x="51" y="304" type="curve"/>
      <point x="62" y="291" type="line"/>
      <point x="97" y="324"/>
      <point x="125" y="333"/>
      <point x="163" y="333" type="curve" smooth="yes"/>
      <point x="197" y="333"/>
      <point x="216" y="326"/>
      <point x="281" y="296" type="curve" smooth="yes"/>
      <point x="350" y="264"/>
      <point x="378" y="257"/>
    </contour>
  </outline>
</glyph>
<glyph name="exclamdown" format="1">
  <advance width="236"/>
  <unicode hex="00A1"/>
  <outline>
    <contour>
      <point x="171" y="455" type="curve" smooth="yes" name="hr00"/>
      <point x="185" y="455"/>
      <point x="194" y="463"/>
      <point x="198" y="471" type="curve" smooth="yes"/>
      <point x="201" y="477"/>
      <point x="202" y="483"/>
      <point x="202" y="490" type="curve" smooth="yes"/>
      <point x="202" y="501"/>
      <point x="194" y="511"/>
      <point x="178" y="511" type="curve" smooth="yes"/>
      <point x="164" y="511"/>
      <point x="155" y="503"/>
      <point x="151" y="495" type="curve" smooth="yes"/>
      <point x="148" y="489"/>
      <point x="147" y="483"/>
      <point x="147" y="476" type="curve" smooth="yes"/>
      <point x="147" y="465"/>
      <point x="155" y="455"/>
    </contour>
    <contour>
      <point x="-3" y="-192" type="line"/>
      <point x="19" y="-192" type="line"/>
      <point x="89" y="91" type="line"/>
      <point x="144" y="330" type="line"/>
      <point x="132" y="330" type="line"/>
      <point x="67" y="91" type="line"/>
    </contour>
  </outline>
</glyph>
<glyph name="cent" format="1">
  <advance width="395"/>
  <unicode hex="00A2"/>
  <outline>
    <contour>
      <point x="117" y="-114" type="line" name="hr00"/>
      <point x="135" y="-114" type="line"/>
      <point x="161" y="-12" type="line"/>
      <point x="222" y="-8"/>
      <point x="281" y="39"/>
      <point x="341" y="156" type="curve"/>
      <point x="331" y="161" type="line"/>
      <point x="280" y="68"/>
      <point x="223" y="13"/>
      <point x="165" y="7" type="curve"/>
      <point x="289" y="502" type="line"/>
      <point x="325" y="500"/>
      <point x="349" y="489"/>
      <point x="363" y="475" type="curve"/>
      <point x="363" y="472" type="line"/>
      <point x="344" y="469"/>
      <point x="330" y="459"/>
      <point x="330" y="442" type="curve" smooth="yes"/>
      <point x="330" y="428"/>
      <point x="341" y="418"/>
      <point x="355" y="418" type="curve" smooth="yes"/>
      <point x="369" y="418"/>
      <point x="381" y="428"/>
      <point x="381" y="446" type="curve" smooth="yes"/>
      <point x="381" y="482"/>
      <point x="347" y="513"/>
      <point x="293" y="517" type="curve"/>
      <point x="319" y="620" type="line"/>
      <point x="301" y="620" type="line"/>
      <point x="275" y="518" type="line"/>
      <point x="114" y="518"/>
      <point x="50" y="269"/>
      <point x="50" y="127" type="curve" smooth="yes"/>
      <point x="50" y="38"/>
      <point x="77" y="-8"/>
      <point x="143" y="-12" type="curve"/>
    </contour>
    <contour>
      <point x="147" y="6" type="line"/>
      <point x="83" y="10"/>
      <point x="72" y="68"/>
      <point x="72" y="127" type="curve" smooth="yes"/>
      <point x="72" y="188"/>
      <point x="85" y="249"/>
      <point x="88" y="262" type="curve" smooth="yes"/>
      <point x="121" y="414"/>
      <point x="194" y="496"/>
      <point x="271" y="502" type="curve"/>
    </contour>
  </outline>
</glyph>
<glyph name="sterling" format="1">
  <advance width="540"/>
  <unicode hex="00A3"/>
  <outline>
    <contour>
      <point x="1" y="0" type="line" name="hr00"/>
      <point x="410" y="0" type="line"/>
      <point x="447" y="148" type="line"/>
      <point x="426" y="148" type="line"/>
      <point x="394" y="18" type="line"/>
      <point x="22" y="18" type="line"/>
      <point x="22" y="20" type="line"/>
      <point x="123" y="77"/>
      <point x="183" y="160"/>
      <point x="183" y="291" type="curve" smooth="yes"/>
      <point x="183" y="298"/>
      <point x="183" y="305"/>
      <point x="183" y="313" type="curve"/>
      <point x="376" y="313" type="line"/>
      <point x="380" y="330" type="line"/>
      <point x="182" y="330" type="line"/>
      <point x="179" y="384"/>
      <point x="172" y="448"/>
      <point x="172" y="493" type="curve" smooth="yes"/>
      <point x="172" y="592"/>
      <point x="223" y="692"/>
      <point x="361" y="692" type="curve" smooth="yes"/>
      <point x="429" y="692"/>
      <point x="477" y="672"/>
      <point x="501" y="645" type="curve"/>
      <point x="501" y="643" type="line"/>
      <point x="480" y="640"/>
      <point x="467" y="628"/>
      <point x="467" y="611" type="curve" smooth="yes"/>
      <point x="467" y="595"/>
      <point x="478" y="584"/>
      <point x="493" y="584" type="curve" smooth="yes"/>
      <point x="510" y="584"/>
      <point x="520" y="595"/>
      <point x="520" y="615" type="curve" smooth="yes"/>
      <point x="520" y="667"/>
      <point x="451" y="710"/>
      <point x="363" y="710" type="curve" smooth="yes"/>
      <point x="202" y="710"/>
      <point x="149" y="595"/>
      <point x="149" y="488" type="curve" smooth="yes"/>
      <point x="149" y="443"/>
      <point x="156" y="383"/>
      <point x="159" y="330" type="curve"/>
      <point x="71" y="330" type="line"/>
      <point x="67" y="313" type="line"/>
      <point x="160" y="313" type="line"/>
      <point x="161" y="302"/>
      <point x="161" y="292"/>
      <point x="161" y="282" type="curve" smooth="yes"/>
      <point x="161" y="152"/>
      <point x="93" y="79"/>
      <point x="8" y="25" type="curve"/>
    </contour>
  </outline>
</glyph>
<glyph name="currency" format="1">
  <advance width="573"/>
  <unicode hex="00A4"/>
  <outline>
    <contour>
      <point x="262" y="130" type="curve" smooth="yes" name="hr00"/>
      <point x="316" y="130"/>
      <point x="363" y="152"/>
      <point x="401" y="187" type="curve"/>
      <point x="473" y="78" type="line"/>
      <point x="488" y="89" type="line"/>
      <point x="414" y="201" type="line"/>
      <point x="464" y="256"/>
      <point x="493" y="337"/>
      <point x="493" y="422" type="curve" smooth="yes"/>
      <point x="493" y="447"/>
      <point x="489" y="470"/>
      <point x="481" y="489" type="curve"/>
      <point x="614" y="603" type="line"/>
      <point x="602" y="617" type="line"/>
      <point x="472" y="505" type="line"/>
      <point x="448" y="546"/>
      <point x="403" y="568"/>
      <point x="349" y="568" type="curve" smooth="yes"/>
      <point x="295" y="568"/>
      <point x="248" y="546"/>
      <point x="210" y="511" type="curve"/>
      <point x="138" y="620" type="line"/>
      <point x="123" y="609" type="line"/>
      <point x="197" y="497" type="line"/>
      <point x="147" y="442"/>
      <point x="118" y="361"/>
      <point x="118" y="276" type="curve" smooth="yes"/>
      <point x="118" y="251"/>
      <point x="122" y="228"/>
      <point x="130" y="209" type="curve"/>
      <point x="-3" y="95" type="line"/>
      <point x="9" y="81" type="line"/>
      <point x="139" y="193" type="line"/>
      <point x="163" y="152"/>
      <point x="208" y="130"/>
    </contour>
    <contour>
      <point x="263" y="147" type="curve" smooth="yes"/>
      <point x="181" y="147"/>
      <point x="137" y="201"/>
      <point x="137" y="273" type="curve" smooth="yes"/>
      <point x="137" y="293"/>
      <point x="138" y="315"/>
      <point x="156" y="385" type="curve" smooth="yes"/>
      <point x="179" y="476"/>
      <point x="252" y="551"/>
      <point x="348" y="551" type="curve" smooth="yes"/>
      <point x="430" y="551"/>
      <point x="474" y="497"/>
      <point x="474" y="425" type="curve" smooth="yes"/>
      <point x="474" y="405"/>
      <point x="473" y="383"/>
      <point x="455" y="313" type="curve" smooth="yes"/>
      <point x="432" y="222"/>
      <point x="359" y="147"/>
    </contour>
  </outline>
</glyph>
<glyph name="yen" format="1">
  <advance width="599"/>
  <unicode hex="00A5"/>
  <outline>
    <contour>
      <point x="127" y="0" type="line" name="hr00"/>
      <point x="349" y="0" type="line"/>
      <point x="353" y="18" type="line"/>
      <point x="253" y="18" type="line"/>
      <point x="290" y="169" type="line"/>
      <point x="461" y="169" type="line"/>
      <point x="465" y="186" type="line"/>
      <point x="294" y="186" type="line"/>
      <point x="329" y="326" type="line"/>
      <point x="500" y="326" type="line"/>
      <point x="504" y="343" type="line"/>
      <point x="343" y="343" type="line"/>
      <point x="627" y="680" type="line"/>
      <point x="683" y="680" type="line"/>
      <point x="687" y="698" type="line"/>
      <point x="504" y="698" type="line"/>
      <point x="500" y="680" type="line"/>
      <point x="603" y="680" type="line"/>
      <point x="324" y="347" type="line"/>
      <point x="322" y="347" type="line"/>
      <point x="208" y="680" type="line"/>
      <point x="309" y="680" type="line"/>
      <point x="313" y="698" type="line"/>
      <point x="135" y="698" type="line"/>
      <point x="131" y="680" type="line"/>
      <point x="187" y="680" type="line"/>
      <point x="302" y="343" type="line"/>
      <point x="141" y="343" type="line"/>
      <point x="137" y="326" type="line"/>
      <point x="307" y="326" type="line"/>
      <point x="272" y="186" type="line"/>
      <point x="102" y="186" type="line"/>
      <point x="98" y="169" type="line"/>
      <point x="268" y="169" type="line"/>
      <point x="231" y="18" type="line"/>
      <point x="131" y="18" type="line"/>
    </contour>
  </outline>
</glyph>
<glyph name="brokenbar" format="1">
  <advance width="322"/>
  <unicode hex="00A6"/>
  <outline>
    <contour>
      <point x="55" y="-138" type="line" name="hr00"/>
      <point x="73" y="-138" type="line"/>
      <point x="160" y="210" type="line"/>
      <point x="142" y="210" type="line"/>
    </contour>
    <contour>
      <point x="192" y="412" type="line"/>
      <point x="210" y="412" type="line"/>
      <point x="297" y="760" type="line"/>
      <point x="279" y="760" type="line"/>
    </contour>
  </outline>
</glyph>
<glyph name="section" format="1">
  <advance width="506"/>
  <unicode hex="00A7"/>
  <outline>
    <contour>
      <point x="159" y="-154" type="curve" smooth="yes"/>
      <point x="245" y="-154"/>
      <point x="319" y="-100"/>
      <point x="319" y="-8" type="curve" smooth="yes"/>
      <point x="319" y="28"/>
      <point x="306" y="57"/>
      <point x="282" y="86" type="curve"/>
      <point x="282" y="91" type="line"/>
      <point x="369" y="112"/>
      <point x="424" y="168"/>
      <point x="424" y="243" type="curve" smooth="yes"/>
      <point x="424" y="299"/>
      <point x="389" y="342"/>
      <point x="350" y="381" type="curve" smooth="yes"/>
      <point x="273" y="459" type="line" smooth="yes"/>
      <point x="239" y="494"/>
      <point x="220" y="521"/>
      <point x="220" y="563" type="curve" smooth="yes"/>
      <point x="220" y="643"/>
      <point x="280" y="694"/>
      <point x="364" y="694" type="curve" smooth="yes"/>
      <point x="405" y="694"/>
      <point x="432" y="686"/>
      <point x="446" y="672" type="curve"/>
      <point x="446" y="669" type="line"/>
      <point x="428" y="666"/>
      <point x="414" y="656"/>
      <point x="414" y="639" type="curve" smooth="yes" name="hr01"/>
      <point x="414" y="625"/>
      <point x="425" y="615"/>
      <point x="439" y="615" type="curve" smooth="yes"/>
      <point x="453" y="615"/>
      <point x="465" y="625"/>
      <point x="465" y="643" type="curve" smooth="yes"/>
      <point x="465" y="682"/>
      <point x="423" y="710"/>
      <point x="359" y="710" type="curve" smooth="yes"/>
      <point x="273" y="710"/>
      <point x="199" y="656"/>
      <point x="199" y="564" type="curve" smooth="yes"/>
      <point x="199" y="528"/>
      <point x="212" y="499"/>
      <point x="236" y="470" type="curve"/>
      <point x="236" y="465" type="line"/>
      <point x="149" y="444"/>
      <point x="94" y="388"/>
      <point x="94" y="313" type="curve" smooth="yes"/>
      <point x="94" y="257"/>
      <point x="129" y="214"/>
      <point x="168" y="175" type="curve" smooth="yes"/>
      <point x="245" y="97" type="line" smooth="yes"/>
      <point x="279" y="62"/>
      <point x="298" y="35"/>
      <point x="298" y="-7" type="curve" smooth="yes"/>
      <point x="298" y="-87"/>
      <point x="238" y="-138"/>
      <point x="154" y="-138" type="curve" smooth="yes"/>
      <point x="113" y="-138"/>
      <point x="86" y="-130"/>
      <point x="72" y="-116" type="curve"/>
      <point x="72" y="-113" type="line"/>
      <point x="90" y="-110"/>
      <point x="104" y="-100"/>
      <point x="104" y="-83" type="curve" smooth="yes" name="hr02"/>
      <point x="104" y="-69"/>
      <point x="93" y="-59"/>
      <point x="79" y="-59" type="curve" smooth="yes"/>
      <point x="65" y="-59"/>
      <point x="53" y="-69"/>
      <point x="53" y="-87" type="curve" smooth="yes"/>
      <point x="53" y="-126"/>
      <point x="95" y="-154"/>
    </contour>
    <contour>
      <point x="116" y="314" type="curve" smooth="yes" name="hr03"/>
      <point x="116" y="387"/>
      <point x="168" y="433"/>
      <point x="247" y="457" type="curve"/>
      <point x="251" y="453"/>
      <point x="256" y="448"/>
      <point x="260" y="444" type="curve" smooth="yes"/>
      <point x="337" y="367" type="line" smooth="yes"/>
      <point x="367" y="337"/>
      <point x="402" y="299"/>
      <point x="402" y="242" type="curve" smooth="yes"/>
      <point x="402" y="169"/>
      <point x="350" y="123"/>
      <point x="271" y="99" type="curve"/>
      <point x="267" y="103"/>
      <point x="262" y="108"/>
      <point x="258" y="112" type="curve" smooth="yes"/>
      <point x="181" y="189" type="line" smooth="yes"/>
      <point x="151" y="219"/>
      <point x="116" y="257"/>
    </contour>
  </outline>
</glyph>
<glyph name="dieresis" format="1">
  <advance width="600"/>
  <unicode hex="00A8"/>
  <outline>
    <contour>
      <point x="237" y="642" type="curve" smooth="yes" name="hr00"/>
      <point x="249" y="642"/>
      <point x="256" y="649"/>
      <point x="260" y="655" type="curve" smooth="yes"/>
      <point x="263" y="660"/>
      <point x="264" y="665"/>
      <point x="264" y="670" type="curve" smooth="yes"/>
      <point x="264" y="681"/>
      <point x="257" y="690"/>
      <point x="243" y="690" type="curve" smooth="yes"/>
      <point x="231" y="690"/>
      <point x="224" y="683"/>
      <point x="220" y="677" type="curve" smooth="yes"/>
      <point x="217" y="672"/>
      <point x="216" y="667"/>
      <point x="216" y="662" type="curve" smooth="yes"/>
      <point x="216" y="651"/>
      <point x="223" y="642"/>
    </contour>
    <contour>
      <point x="419" y="642" type="curve" smooth="yes"/>
      <point x="431" y="642"/>
      <point x="438" y="649"/>
      <point x="442" y="655" type="curve" smooth="yes"/>
      <point x="445" y="660"/>
      <point x="446" y="665"/>
      <point x="446" y="670" type="curve" smooth="yes"/>
      <point x="446" y="681"/>
      <point x="439" y="690"/>
      <point x="425" y="690" type="curve" smooth="yes"/>
      <point x="413" y="690"/>
      <point x="406" y="683"/>
      <point x="402" y="677" type="curve" smooth="yes"/>
      <point x="399" y="672"/>
      <point x="398" y="667"/>
      <point x="398" y="662" type="curve" smooth="yes"/>
      <point x="398" y="651"/>
      <point x="405" y="642"/>
    </contour>
    <contour>
      <point x="300" y="540" type="move" name="_top"/>
    </contour>
  </outline>
</glyph>
<glyph name="copyright" format="1">
  <advance width="730"/>
  <unicode hex="00A9"/>
  <outline>
    <contour>
      <point x="321" y="149" type="curve" smooth="yes" name="hr00"/>
      <point x="368" y="149"/>
      <point x="422" y="180"/>
      <point x="471" y="274" type="curve"/>
      <point x="464" y="278" type="line"/>
      <point x="423" y="203"/>
      <point x="370" y="165"/>
      <point x="325" y="165" type="curve" smooth="yes"/>
      <point x="277" y="165"/>
      <point x="268" y="208"/>
      <point x="268" y="251" type="curve" smooth="yes"/>
      <point x="268" y="278"/>
      <point x="270" y="296"/>
      <point x="284" y="356" type="curve" smooth="yes"/>
      <point x="312" y="475"/>
      <point x="369" y="529"/>
      <point x="439" y="529" type="curve" smooth="yes"/>
      <point x="467" y="529"/>
      <point x="482" y="522"/>
      <point x="495" y="511" type="curve"/>
      <point x="495" y="508" type="line"/>
      <point x="479" y="506"/>
      <point x="468" y="496"/>
      <point x="468" y="484" type="curve" smooth="yes"/>
      <point x="468" y="472"/>
      <point x="477" y="464"/>
      <point x="488" y="464" type="curve" smooth="yes"/>
      <point x="499" y="464"/>
      <point x="510" y="472"/>
      <point x="510" y="488" type="curve" smooth="yes"/>
      <point x="510" y="516"/>
      <point x="482" y="543"/>
      <point x="435" y="543" type="curve" smooth="yes"/>
      <point x="302" y="543"/>
      <point x="248" y="357"/>
      <point x="248" y="254" type="curve" smooth="yes"/>
      <point x="248" y="185"/>
      <point x="272" y="149"/>
    </contour>
    <contour>
      <point x="314" y="3" type="curve"/>
      <point x="169" y="3"/>
      <point x="90" y="91"/>
      <point x="90" y="232" type="curve" smooth="yes"/>
      <point x="90" y="255"/>
      <point x="92" y="290"/>
      <point x="105" y="346" type="curve" smooth="yes"/>
      <point x="155" y="560"/>
      <point x="279" y="695"/>
      <point x="457" y="695" type="curve"/>
      <point x="602" y="695"/>
      <point x="681" y="607"/>
      <point x="681" y="466" type="curve" smooth="yes"/>
      <point x="681" y="443"/>
      <point x="679" y="408"/>
      <point x="666" y="352" type="curve" smooth="yes"/>
      <point x="616" y="138"/>
      <point x="492" y="3"/>
    </contour>
    <contour>
      <point x="310" y="-12" type="curve"/>
      <point x="583" y="-12"/>
      <point x="700" y="275"/>
      <point x="700" y="460" type="curve" smooth="yes"/>
      <point x="700" y="614"/>
      <point x="619" y="710"/>
      <point x="461" y="710" type="curve"/>
      <point x="188" y="710"/>
      <point x="71" y="423"/>
      <point x="71" y="238" type="curve" smooth="yes"/>
      <point x="71" y="84"/>
      <point x="152" y="-12"/>
    </contour>
  </outline>
</glyph>
<glyph name="ordfeminine" format="1">
  <advance width="361"/>
  <unicode hex="00AA"/>
  <outline>
    <contour>
      <point x="142" y="354" type="curve" smooth="yes"/>
      <point x="206" y="354"/>
      <point x="264" y="426"/>
      <point x="287" y="476" type="curve"/>
      <point x="292" y="476" type="line"/>
      <point x="267" y="391" type="line" smooth="yes"/>
      <point x="264" y="381"/>
      <point x="263" y="373"/>
      <point x="263" y="369" type="curve" smooth="yes"/>
      <point x="263" y="360"/>
      <point x="269" y="354"/>
      <point x="282" y="354" type="curve" smooth="yes"/>
      <point x="291" y="354"/>
      <point x="299" y="357"/>
      <point x="313" y="371" type="curve" smooth="yes"/>
      <point x="386" y="443" type="line"/>
      <point x="381" y="449" type="line"/>
      <point x="288" y="367" type="line"/>
      <point x="280" y="372" type="line"/>
      <point x="335" y="584" type="line" smooth="yes"/>
      <point x="339" y="598"/>
      <point x="344" y="616"/>
      <point x="344" y="635" type="curve" smooth="yes"/>
      <point x="344" y="676"/>
      <point x="320" y="704"/>
      <point x="258" y="704" type="curve" smooth="yes"/>
      <point x="194" y="704"/>
      <point x="154" y="673"/>
      <point x="154" y="648" type="curve" smooth="yes"/>
      <point x="154" y="634"/>
      <point x="162" y="627"/>
      <point x="174" y="627" type="curve" smooth="yes"/>
      <point x="186" y="627"/>
      <point x="194" y="634"/>
      <point x="194" y="646" type="curve" smooth="yes"/>
      <point x="194" y="657"/>
      <point x="187" y="665"/>
      <point x="174" y="668" type="curve"/>
      <point x="174" y="670" type="line"/>
      <point x="195" y="685"/>
      <point x="222" y="691"/>
      <point x="254" y="691" type="curve" smooth="yes"/>
      <point x="303" y="691"/>
      <point x="325" y="670"/>
      <point x="325" y="635" type="curve" smooth="yes"/>
      <point x="325" y="620"/>
      <point x="319" y="598"/>
      <point x="316" y="584" type="curve" smooth="yes"/>
      <point x="307" y="544" type="line"/>
      <point x="175" y="530"/>
      <point x="88" y="480"/>
      <point x="88" y="409" type="curve" smooth="yes"/>
      <point x="88" y="380"/>
      <point x="104" y="354"/>
    </contour>
    <contour>
      <point x="145" y="368" type="curve" name="hr01"/>
      <point x="117" y="368"/>
      <point x="106" y="387"/>
      <point x="106" y="410" type="curve" smooth="yes"/>
      <point x="106" y="467"/>
      <point x="177" y="517"/>
      <point x="304" y="531" type="curve"/>
      <point x="303" y="526" type="line" smooth="yes"/>
      <point x="293" y="477"/>
      <point x="212" y="368"/>
    </contour>
  </outline>
</glyph>
<glyph name="logicalnot" format="1">
  <advance width="550"/>
  <unicode hex="00AC"/>
  <outline>
    <contour>
      <point x="441" y="104" type="line" name="hr00"/>
      <point x="461" y="104" type="line"/>
      <point x="513" y="314" type="line"/>
      <point x="53" y="314" type="line"/>
      <point x="49" y="298" type="line"/>
      <point x="489" y="298" type="line"/>
    </contour>
  </outline>
</glyph>
<glyph name="registered" format="1">
  <advance width="465"/>
  <unicode hex="00AE"/>
  <outline>
    <contour>
      <point x="181" y="398" type="line" name="hr00"/>
      <point x="248" y="398" type="line"/>
      <point x="251" y="410" type="line"/>
      <point x="224" y="410" type="line"/>
      <point x="246" y="496" type="line"/>
      <point x="289" y="496" type="line"/>
      <point x="311" y="425" type="line" smooth="yes"/>
      <point x="317" y="406"/>
      <point x="324" y="398"/>
      <point x="342" y="398" type="curve" smooth="yes"/>
      <point x="359" y="398" type="line"/>
      <point x="362" y="410" type="line"/>
      <point x="355" y="410" type="line" smooth="yes"/>
      <point x="339" y="410"/>
      <point x="331" y="414"/>
      <point x="327" y="426" type="curve" smooth="yes"/>
      <point x="305" y="496" type="line"/>
      <point x="351" y="501"/>
      <point x="376" y="528"/>
      <point x="376" y="568" type="curve" smooth="yes"/>
      <point x="376" y="592"/>
      <point x="358" y="610"/>
      <point x="324" y="610" type="curve" smooth="yes"/>
      <point x="234" y="610" type="line"/>
      <point x="231" y="598" type="line"/>
      <point x="255" y="598" type="line"/>
      <point x="208" y="410" type="line"/>
      <point x="184" y="410" type="line"/>
    </contour>
    <contour>
      <point x="255" y="311" type="curve"/>
      <point x="178" y="311"/>
      <point x="110" y="351"/>
      <point x="110" y="450" type="curve" smooth="yes"/>
      <point x="110" y="467"/>
      <point x="113" y="494"/>
      <point x="120" y="522" type="curve" smooth="yes"/>
      <point x="152" y="650"/>
      <point x="252" y="697"/>
      <point x="327" y="697" type="curve" smooth="yes"/>
      <point x="404" y="697"/>
      <point x="472" y="657"/>
      <point x="472" y="558" type="curve" smooth="yes"/>
      <point x="472" y="541"/>
      <point x="469" y="514"/>
      <point x="462" y="486" type="curve" smooth="yes"/>
      <point x="430" y="358"/>
      <point x="330" y="311"/>
    </contour>
    <contour>
      <point x="254" y="298" type="curve" smooth="yes"/>
      <point x="396" y="298"/>
      <point x="490" y="421"/>
      <point x="490" y="553" type="curve" smooth="yes"/>
      <point x="490" y="660"/>
      <point x="422" y="710"/>
      <point x="328" y="710" type="curve" smooth="yes"/>
      <point x="186" y="710"/>
      <point x="92" y="587"/>
      <point x="92" y="455" type="curve" smooth="yes"/>
      <point x="92" y="348"/>
      <point x="160" y="298"/>
    </contour>
    <contour>
      <point x="271" y="598" type="line"/>
      <point x="321" y="598" type="line" smooth="yes"/>
      <point x="348" y="598"/>
      <point x="359" y="585"/>
      <point x="359" y="569" type="curve" smooth="yes"/>
      <point x="359" y="566"/>
      <point x="358" y="560"/>
      <point x="354" y="545" type="curve" smooth="yes"/>
      <point x="348" y="522"/>
      <point x="327" y="508"/>
      <point x="299" y="508" type="curve"/>
      <point x="249" y="508" type="line"/>
    </contour>
  </outline>
</glyph>
<glyph name="macron" format="1">
  <advance width="600"/>
  <unicode hex="00AF"/>
  <outline>
    <contour>
      <point x="200" y="659" type="line" name="hr00"/>
      <point x="458" y="659" type="line"/>
      <point x="462" y="676" type="line"/>
      <point x="204" y="676" type="line"/>
    </contour>
    <contour>
      <point x="300" y="540" type="move" name="_top"/>
    </contour>
  </outline>
</glyph>
<glyph name="degree" format="1">
  <advance width="470"/>
  <unicode hex="00B0"/>
  <outline>
    <contour>
      <point x="285" y="374" type="curve" smooth="yes" name="hr00"/>
      <point x="391" y="374"/>
      <point x="464" y="458"/>
      <point x="464" y="563" type="curve" smooth="yes"/>
      <point x="464" y="652"/>
      <point x="404" y="710"/>
      <point x="323" y="710" type="curve" smooth="yes"/>
      <point x="217" y="710"/>
      <point x="144" y="626"/>
      <point x="144" y="521" type="curve" smooth="yes"/>
      <point x="144" y="432"/>
      <point x="204" y="374"/>
    </contour>
    <contour>
      <point x="288" y="390" type="curve"/>
      <point x="215" y="390"/>
      <point x="163" y="439"/>
      <point x="163" y="519" type="curve" smooth="yes"/>
      <point x="163" y="617"/>
      <point x="228" y="694"/>
      <point x="320" y="694" type="curve" smooth="yes"/>
      <point x="393" y="694"/>
      <point x="445" y="645"/>
      <point x="445" y="565" type="curve" smooth="yes"/>
      <point x="445" y="467"/>
      <point x="380" y="390"/>
    </contour>
  </outline>
</glyph>
<glyph name="plusminus" format="1">
  <advance width="550"/>
  <unicode hex="00B1"/>
  <outline>
    <contour>
      <point x="231" y="116" type="line" name="hr00"/>
      <point x="251" y="116" type="line"/>
      <point x="309" y="351" type="line"/>
      <point x="537" y="351" type="line"/>
      <point x="541" y="367" type="line"/>
      <point x="313" y="367" type="line"/>
      <point x="372" y="602" type="line"/>
      <point x="352" y="602" type="line"/>
      <point x="293" y="367" type="line"/>
      <point x="65" y="367" type="line"/>
      <point x="61" y="351" type="line"/>
      <point x="289" y="351" type="line"/>
    </contour>
    <contour>
      <point x="-26" y="0" type="line"/>
      <point x="449" y="0" type="line"/>
      <point x="453" y="16" type="line"/>
      <point x="-22" y="16" type="line"/>
    </contour>
  </outline>
</glyph>
<glyph name="twosuperior" format="1">
  <advance width="336"/>
  <unicode hex="00B2"/>
  <outline>
    <contour>
      <point x="62" y="329" type="line" name="hr00"/>
      <point x="309" y="329" type="line"/>
      <point x="330" y="414" type="line"/>
      <point x="311" y="414" type="line"/>
      <point x="294" y="346" type="line"/>
      <point x="86" y="346" type="line"/>
      <point x="87" y="349" type="line"/>
      <point x="229" y="452" type="line" smooth="yes"/>
      <point x="315" y="514"/>
      <point x="356" y="569"/>
      <point x="356" y="628" type="curve" smooth="yes"/>
      <point x="356" y="673"/>
      <point x="319" y="704"/>
      <point x="254" y="704" type="curve" smooth="yes"/>
      <point x="180" y="704"/>
      <point x="135" y="666"/>
      <point x="135" y="637" type="curve" smooth="yes"/>
      <point x="135" y="621"/>
      <point x="145" y="612"/>
      <point x="159" y="612" type="curve" smooth="yes"/>
      <point x="172" y="612"/>
      <point x="181" y="621"/>
      <point x="181" y="634" type="curve" smooth="yes"/>
      <point x="181" y="648"/>
      <point x="172" y="657"/>
      <point x="157" y="661" type="curve"/>
      <point x="157" y="663" type="line"/>
      <point x="181" y="680"/>
      <point x="214" y="688"/>
      <point x="250" y="688" type="curve" smooth="yes"/>
      <point x="310" y="688"/>
      <point x="337" y="666"/>
      <point x="337" y="625" type="curve" smooth="yes"/>
      <point x="337" y="615"/>
      <point x="336" y="603"/>
      <point x="332" y="590" type="curve" smooth="yes"/>
      <point x="320" y="551"/>
      <point x="286" y="514"/>
      <point x="220" y="464" type="curve" smooth="yes"/>
      <point x="67" y="349" type="line"/>
    </contour>
  </outline>
</glyph>
<glyph name="threesuperior" format="1">
  <advance width="339"/>
  <unicode hex="00B3"/>
  <outline>
    <contour>
      <point x="182" y="324" type="curve" smooth="yes" name="hr00"/>
      <point x="256" y="324"/>
      <point x="330" y="372"/>
      <point x="330" y="454" type="curve" smooth="yes"/>
      <point x="330" y="491"/>
      <point x="304" y="512"/>
      <point x="268" y="518" type="curve"/>
      <point x="269" y="521" type="line"/>
      <point x="315" y="529"/>
      <point x="364" y="565"/>
      <point x="364" y="628" type="curve" smooth="yes"/>
      <point x="364" y="673"/>
      <point x="327" y="704"/>
      <point x="262" y="704" type="curve" smooth="yes"/>
      <point x="188" y="704"/>
      <point x="143" y="666"/>
      <point x="143" y="637" type="curve" smooth="yes"/>
      <point x="143" y="621"/>
      <point x="153" y="612"/>
      <point x="167" y="612" type="curve" smooth="yes"/>
      <point x="180" y="612"/>
      <point x="189" y="621"/>
      <point x="189" y="634" type="curve" smooth="yes"/>
      <point x="189" y="648"/>
      <point x="180" y="657"/>
      <point x="165" y="661" type="curve"/>
      <point x="165" y="663" type="line"/>
      <point x="189" y="680"/>
      <point x="222" y="688"/>
      <point x="258" y="688" type="curve" smooth="yes"/>
      <point x="318" y="688"/>
      <point x="345" y="666"/>
      <point x="345" y="625" type="curve" smooth="yes"/>
      <point x="345" y="617"/>
      <point x="344" y="610"/>
      <point x="342" y="602" type="curve" smooth="yes"/>
      <point x="329" y="554"/>
      <point x="295" y="529"/>
      <point x="221" y="529" type="curve" smooth="yes"/>
      <point x="183" y="529" type="line"/>
      <point x="179" y="513" type="line"/>
      <point x="218" y="513" type="line" smooth="yes"/>
      <point x="281" y="513"/>
      <point x="311" y="492"/>
      <point x="311" y="454" type="curve" smooth="yes"/>
      <point x="311" y="446"/>
      <point x="310" y="433"/>
      <point x="307" y="423" type="curve" smooth="yes"/>
      <point x="290" y="365"/>
      <point x="235" y="340"/>
      <point x="178" y="340" type="curve" smooth="yes"/>
      <point x="149" y="340"/>
      <point x="115" y="346"/>
      <point x="93" y="364" type="curve"/>
      <point x="93" y="366" type="line"/>
      <point x="111" y="370"/>
      <point x="123" y="382"/>
      <point x="123" y="395" type="curve" smooth="yes"/>
      <point x="123" y="407"/>
      <point x="115" y="415"/>
      <point x="101" y="415" type="curve" smooth="yes"/>
      <point x="85" y="415"/>
      <point x="75" y="402"/>
      <point x="75" y="385" type="curve" smooth="yes"/>
      <point x="75" y="359"/>
      <point x="112" y="324"/>
    </contour>
  </outline>
</glyph>
<glyph name="acute" format="1">
  <advance width="600"/>
  <unicode hex="00B4"/>
  <outline>
    <contour>
      <point x="312" y="588" type="line" name="hr00"/>
      <point x="445" y="739" type="line"/>
      <point x="429" y="751" type="line"/>
      <point x="303" y="595" type="line"/>
    </contour>
    <contour>
      <point x="300" y="540" type="move" name="_top"/>
    </contour>
  </outline>
</glyph>
<glyph name="paragraph" format="1">
  <advance width="557"/>
  <unicode hex="00B6"/>
  <outline>
    <contour>
      <point x="189" y="-152" type="curve" smooth="yes" name="hr00"/>
      <point x="282" y="-152"/>
      <point x="331" y="-98"/>
      <point x="357" y="6" type="curve" smooth="yes"/>
      <point x="525" y="680" type="line"/>
      <point x="606" y="680" type="line"/>
      <point x="610" y="698" type="line"/>
      <point x="401" y="698" type="line" smooth="yes"/>
      <point x="235" y="698"/>
      <point x="136" y="604"/>
      <point x="136" y="473" type="curve" smooth="yes"/>
      <point x="136" y="382"/>
      <point x="209" y="330"/>
      <point x="309" y="330" type="curve"/>
      <point x="193" y="-137" type="line"/>
      <point x="192" y="-137"/>
      <point x="190" y="-137"/>
      <point x="189" y="-137" type="curve" smooth="yes"/>
      <point x="135" y="-137"/>
      <point x="97" y="-120"/>
      <point x="76" y="-91" type="curve"/>
      <point x="76" y="-88" type="line"/>
      <point x="100" y="-86"/>
      <point x="112" y="-73"/>
      <point x="112" y="-57" type="curve" smooth="yes"/>
      <point x="112" y="-43"/>
      <point x="104" y="-33"/>
      <point x="88" y="-33" type="curve" smooth="yes"/>
      <point x="71" y="-33"/>
      <point x="61" y="-46"/>
      <point x="61" y="-64" type="curve" smooth="yes"/>
      <point x="61" y="-117"/>
      <point x="116" y="-152"/>
    </contour>
    <contour>
      <point x="415" y="680" type="line"/>
      <point x="506" y="680" type="line"/>
      <point x="338" y="6" type="line" smooth="yes"/>
      <point x="317" y="-78"/>
      <point x="277" y="-127"/>
      <point x="212" y="-136" type="curve"/>
    </contour>
  </outline>
</glyph>
<glyph name="periodcentered" format="1">
  <advance width="203"/>
  <unicode hex="00B7"/>
  <outline>
    <contour>
      <point x="111" y="278" type="curve" smooth="yes" name="hr00"/>
      <point x="124" y="278"/>
      <point x="133" y="285"/>
      <point x="137" y="292" type="curve" smooth="yes"/>
      <point x="140" y="297"/>
      <point x="142" y="304"/>
      <point x="142" y="310" type="curve" smooth="yes"/>
      <point x="142" y="322"/>
      <point x="135" y="334"/>
      <point x="118" y="334" type="curve" smooth="yes"/>
      <point x="105" y="334"/>
      <point x="96" y="327"/>
      <point x="92" y="320" type="curve" smooth="yes"/>
      <point x="89" y="315"/>
      <point x="87" y="308"/>
      <point x="87" y="302" type="curve" smooth="yes"/>
      <point x="87" y="290"/>
      <point x="94" y="278"/>
    </contour>
  </outline>
</glyph>
<glyph name="cedilla" format="1">
  <advance width="600"/>
  <unicode hex="00B8"/>
  <outline>
    <contour>
      <point x="258" y="-202" type="curve" smooth="yes" name="hr00"/>
      <point x="318" y="-202"/>
      <point x="359" y="-160"/>
      <point x="359" y="-120" type="curve" smooth="yes"/>
      <point x="359" y="-92"/>
      <point x="338" y="-72"/>
      <point x="305" y="-72" type="curve" smooth="yes"/>
      <point x="296" y="-72"/>
      <point x="284" y="-73"/>
      <point x="274" y="-75" type="curve"/>
      <point x="273" y="-73" type="line"/>
      <point x="311" y="3" type="line"/>
      <point x="293" y="3" type="line"/>
      <point x="250" y="-83" type="line"/>
      <point x="283" y="-84" type="line" smooth="yes"/>
      <point x="321" y="-85"/>
      <point x="338" y="-96"/>
      <point x="338" y="-121" type="curve" smooth="yes"/>
      <point x="338" y="-154"/>
      <point x="306" y="-187"/>
      <point x="259" y="-187" type="curve" smooth="yes"/>
      <point x="230" y="-187"/>
      <point x="206" y="-177"/>
      <point x="196" y="-161" type="curve"/>
      <point x="188" y="-169" type="line"/>
      <point x="196" y="-185"/>
      <point x="221" y="-202"/>
    </contour>
    <contour>
      <point x="300" y="0" type="move" name="_bottom"/>
    </contour>
  </outline>
</glyph>
<glyph name="onesuperior" format="1">
  <advance width="355"/>
  <unicode hex="00B9"/>
  <outline>
    <contour>
      <point x="79" y="330" type="line" name="hr00"/>
      <point x="335" y="330" type="line"/>
      <point x="339" y="346" type="line"/>
      <point x="226" y="346" type="line"/>
      <point x="314" y="698" type="line"/>
      <point x="298" y="698" type="line"/>
      <point x="141" y="631" type="line"/>
      <point x="145" y="617" type="line"/>
      <point x="289" y="676" type="line"/>
      <point x="207" y="346" type="line"/>
      <point x="83" y="346" type="line"/>
    </contour>
  </outline>
</glyph>
<glyph name="ordmasculine" format="1">
  <advance width="356"/>
  <unicode hex="00BA"/>
  <outline>
    <contour>
      <point x="211" y="367" type="curve" name="hr00"/>
      <point x="152" y="367"/>
      <point x="125" y="411"/>
      <point x="125" y="469" type="curve" smooth="yes"/>
      <point x="125" y="485"/>
      <point x="125" y="502"/>
      <point x="139" y="558" type="curve" smooth="yes"/>
      <point x="157" y="631"/>
      <point x="211" y="691"/>
      <point x="281" y="691" type="curve" smooth="yes"/>
      <point x="340" y="691"/>
      <point x="367" y="647"/>
      <point x="367" y="589" type="curve" smooth="yes"/>
      <point x="367" y="573"/>
      <point x="367" y="556"/>
      <point x="353" y="500" type="curve" smooth="yes"/>
      <point x="335" y="427"/>
      <point x="281" y="367"/>
    </contour>
    <contour>
      <point x="211" y="354" type="curve" smooth="yes"/>
      <point x="315" y="354"/>
      <point x="384" y="465"/>
      <point x="384" y="583" type="curve" smooth="yes"/>
      <point x="384" y="663"/>
      <point x="349" y="704"/>
      <point x="281" y="704" type="curve" smooth="yes"/>
      <point x="177" y="704"/>
      <point x="108" y="593"/>
      <point x="108" y="475" type="curve" smooth="yes"/>
      <point x="108" y="395"/>
      <point x="143" y="354"/>
    </contour>
  </outline>
</glyph>
<glyph name="questiondown" format="1">
  <advance width="487"/>
  <unicode hex="00BF"/>
  <outline>
    <contour>
      <point x="170" y="-204" type="curve" smooth="yes"/>
      <point x="262" y="-204"/>
      <point x="340" y="-151"/>
      <point x="340" y="-103" type="curve" smooth="yes"/>
      <point x="340" y="-88"/>
      <point x="330" y="-76"/>
      <point x="313" y="-76" type="curve" smooth="yes"/>
      <point x="296" y="-76"/>
      <point x="286" y="-88"/>
      <point x="286" y="-103" type="curve" smooth="yes"/>
      <point x="286" y="-119"/>
      <point x="295" y="-131"/>
      <point x="315" y="-134" type="curve"/>
      <point x="315" y="-137" type="line"/>
      <point x="285" y="-164"/>
      <point x="234" y="-186"/>
      <point x="172" y="-186" type="curve" smooth="yes"/>
      <point x="93" y="-186"/>
      <point x="43" y="-147"/>
      <point x="43" y="-74" type="curve" smooth="yes"/>
      <point x="43" y="-56"/>
      <point x="47" y="-34"/>
      <point x="58" y="5" type="curve" smooth="yes"/>
      <point x="80" y="80"/>
      <point x="162" y="147"/>
      <point x="282" y="157" type="curve"/>
      <point x="325" y="330" type="line"/>
      <point x="308" y="330" type="line"/>
      <point x="268" y="171" type="line"/>
      <point x="108" y="152"/>
      <point x="21" y="47"/>
      <point x="21" y="-74" type="curve" smooth="yes"/>
      <point x="21" y="-149"/>
      <point x="69" y="-204"/>
    </contour>
    <contour>
      <point x="350" y="455" type="curve" smooth="yes"/>
      <point x="364" y="455"/>
      <point x="373" y="463"/>
      <point x="377" y="471" type="curve" smooth="yes"/>
      <point x="380" y="477"/>
      <point x="381" y="483"/>
      <point x="381" y="490" type="curve" smooth="yes" name="hr01"/>
      <point x="381" y="501"/>
      <point x="373" y="511"/>
      <point x="357" y="511" type="curve" smooth="yes"/>
      <point x="343" y="511"/>
      <point x="334" y="503"/>
      <point x="330" y="495" type="curve" smooth="yes"/>
      <point x="327" y="489"/>
      <point x="326" y="483"/>
      <point x="326" y="476" type="curve" smooth="yes"/>
      <point x="326" y="465"/>
      <point x="334" y="455"/>
    </contour>
  </outline>
</glyph>
<glyph name="AE" format="1">
  <advance width="911"/>
  <unicode hex="00C6"/>
  <outline>
    <contour>
      <point x="-52" y="0" type="line" name="hr00"/>
      <point x="128" y="0" type="line"/>
      <point x="132" y="18" type="line"/>
      <point x="32" y="18" type="line"/>
      <point x="207" y="234" type="line"/>
      <point x="465" y="234" type="line"/>
      <point x="411" y="18" type="line"/>
      <point x="331" y="18" type="line"/>
      <point x="327" y="0" type="line"/>
      <point x="791" y="0" type="line"/>
      <point x="828" y="148" type="line"/>
      <point x="808" y="148" type="line"/>
      <point x="775" y="18" type="line"/>
      <point x="433" y="18" type="line"/>
      <point x="518" y="359" type="line"/>
      <point x="760" y="359" type="line"/>
      <point x="738" y="274" type="line"/>
      <point x="758" y="274" type="line"/>
      <point x="805" y="462" type="line"/>
      <point x="785" y="462" type="line"/>
      <point x="764" y="377" type="line"/>
      <point x="522" y="377" type="line"/>
      <point x="598" y="680" type="line"/>
      <point x="920" y="680" type="line"/>
      <point x="887" y="550" type="line"/>
      <point x="907" y="550" type="line"/>
      <point x="944" y="698" type="line"/>
      <point x="450" y="698" type="line"/>
      <point x="446" y="680" type="line"/>
      <point x="543" y="680" type="line"/>
      <point x="8" y="18" type="line"/>
      <point x="-48" y="18" type="line"/>
    </contour>
    <contour>
      <point x="568" y="680" type="line"/>
      <point x="576" y="680" type="line"/>
      <point x="469" y="252" type="line"/>
      <point x="221" y="252" type="line"/>
    </contour>
    <contour>
      <point x="704" y="698" type="move" name="top"/>
    </contour>
  </outline>
</glyph>
<glyph name="Ccedilla" format="1">
  <advance width="603"/>
  <unicode hex="00C7"/>
  <outline>
    <contour>
      <point x="250" y="-202" type="curve" smooth="yes"/>
      <point x="310" y="-202"/>
      <point x="351" y="-160"/>
      <point x="351" y="-120" type="curve" smooth="yes"/>
      <point x="351" y="-92"/>
      <point x="330" y="-72"/>
      <point x="297" y="-72" type="curve" smooth="yes"/>
      <point x="288" y="-72"/>
      <point x="276" y="-73"/>
      <point x="266" y="-75" type="curve"/>
      <point x="265" y="-73" type="line"/>
      <point x="296" y="-12" type="line"/>
      <point x="406" y="-12"/>
      <point x="476" y="56"/>
      <point x="526" y="141" type="curve"/>
      <point x="511" y="148" type="line"/>
      <point x="461" y="64"/>
      <point x="392" y="6"/>
      <point x="292" y="6" type="curve" smooth="yes"/>
      <point x="166" y="6"/>
      <point x="102" y="73"/>
      <point x="102" y="215" type="curve" smooth="yes"/>
      <point x="102" y="242"/>
      <point x="103" y="291"/>
      <point x="129" y="394" type="curve" smooth="yes"/>
      <point x="176" y="583"/>
      <point x="282" y="692"/>
      <point x="426" y="692" type="curve" smooth="yes"/>
      <point x="508" y="692"/>
      <point x="576" y="656"/>
      <point x="576" y="589" type="curve" smooth="yes"/>
      <point x="576" y="581"/>
      <point x="575" y="575"/>
      <point x="573" y="566" type="curve" smooth="yes"/>
      <point x="555" y="493" type="line"/>
      <point x="575" y="493" type="line"/>
      <point x="626" y="698" type="line" name="hr01"/>
      <point x="606" y="698" type="line"/>
      <point x="587" y="621" type="line"/>
      <point x="584" y="621" type="line"/>
      <point x="567" y="680"/>
      <point x="504" y="710"/>
      <point x="426" y="710" type="curve" smooth="yes" name="hr02"/>
      <point x="178" y="710"/>
      <point x="80" y="419"/>
      <point x="80" y="216" type="curve" smooth="yes"/>
      <point x="80" y="60"/>
      <point x="155" y="-7"/>
      <point x="278" y="-12" type="curve"/>
      <point x="242" y="-83" type="line"/>
      <point x="275" y="-84" type="line" smooth="yes"/>
      <point x="313" y="-85"/>
      <point x="330" y="-96"/>
      <point x="330" y="-121" type="curve" smooth="yes"/>
      <point x="330" y="-154"/>
      <point x="298" y="-187"/>
      <point x="251" y="-187" type="curve" smooth="yes"/>
      <point x="222" y="-187"/>
      <point x="198" y="-177"/>
      <point x="188" y="-161" type="curve"/>
      <point x="180" y="-169" type="line"/>
      <point x="188" y="-185"/>
      <point x="213" y="-202"/>
    </contour>
  </outline>
</glyph>
<glyph name="multiply" format="1">
  <advance width="550"/>
  <unicode hex="00D7"/>
  <outline>
    <contour>
      <point x="61" y="110" type="line" name="hr00"/>
      <point x="287" y="293" type="line"/>
      <point x="421" y="110" type="line"/>
      <point x="435" y="120" type="line"/>
      <point x="301" y="304" type="line"/>
      <point x="529" y="488" type="line"/>
      <point x="517" y="500" type="line"/>
      <point x="291" y="317" type="line"/>
      <point x="157" y="500" type="line"/>
      <point x="143" y="490" type="line"/>
      <point x="277" y="306" type="line"/>
      <point x="49" y="122" type="line"/>
    </contour>
  </outline>
</glyph>
<glyph name="Oslash" format="1">
  <advance width="682"/>
  <unicode hex="00D8"/>
  <outline>
    <contour>
      <point x="46" y="-31" type="line" name="hr00"/>
      <point x="124" y="59" type="line"/>
      <point x="160" y="12"/>
      <point x="217" y="-12"/>
      <point x="293" y="-12" type="curve" smooth="yes"/>
      <point x="541" y="-12"/>
      <point x="640" y="279"/>
      <point x="640" y="482" type="curve" smooth="yes"/>
      <point x="640" y="540"/>
      <point x="629" y="587"/>
      <point x="607" y="623" type="curve"/>
      <point x="687" y="720" type="line"/>
      <point x="674" y="731" type="line"/>
      <point x="595" y="640" type="line"/>
      <point x="559" y="686"/>
      <point x="503" y="710"/>
      <point x="427" y="710" type="curve" smooth="yes"/>
      <point x="179" y="710"/>
      <point x="80" y="419"/>
      <point x="80" y="216" type="curve" smooth="yes"/>
      <point x="80" y="159"/>
      <point x="91" y="112"/>
      <point x="113" y="76" type="curve"/>
      <point x="33" y="-20" type="line"/>
    </contour>
    <contour>
      <point x="427" y="692" type="curve" smooth="yes"/>
      <point x="498" y="692"/>
      <point x="550" y="669"/>
      <point x="582" y="623" type="curve"/>
      <point x="128" y="93" type="line"/>
      <point x="111" y="125"/>
      <point x="102" y="166"/>
      <point x="102" y="215" type="curve" smooth="yes"/>
      <point x="102" y="242"/>
      <point x="103" y="287"/>
      <point x="129" y="394" type="curve" smooth="yes"/>
      <point x="174" y="581"/>
      <point x="282" y="692"/>
    </contour>
    <contour>
      <point x="293" y="6" type="curve" smooth="yes"/>
      <point x="222" y="6"/>
      <point x="169" y="30"/>
      <point x="138" y="76" type="curve"/>
      <point x="592" y="607" type="line"/>
      <point x="609" y="574"/>
      <point x="618" y="533"/>
      <point x="618" y="483" type="curve" smooth="yes"/>
      <point x="618" y="456"/>
      <point x="617" y="411"/>
      <point x="591" y="304" type="curve" smooth="yes"/>
      <point x="546" y="117"/>
      <point x="438" y="6"/>
    </contour>
    <contour>
      <point x="437" y="698" type="move" name="top"/>
    </contour>
  </outline>
</glyph>
<glyph name="Thorn" format="1">
  <advance width="568"/>
  <unicode hex="00DE"/>
  <outline>
    <contour>
      <point x="-3" y="0" type="line" name="hr00"/>
      <point x="179" y="0" type="line"/>
      <point x="183" y="18" type="line"/>
      <point x="103" y="18" type="line"/>
      <point x="140" y="166" type="line"/>
      <point x="334" y="166" type="line" smooth="yes"/>
      <point x="478" y="166"/>
      <point x="560" y="280"/>
      <point x="560" y="404" type="curve" smooth="yes"/>
      <point x="560" y="487"/>
      <point x="515" y="532"/>
      <point x="416" y="532" type="curve" smooth="yes"/>
      <point x="231" y="532" type="line"/>
      <point x="268" y="680" type="line"/>
      <point x="348" y="680" type="line"/>
      <point x="352" y="698" type="line"/>
      <point x="170" y="698" type="line"/>
      <point x="166" y="680" type="line"/>
      <point x="246" y="680" type="line"/>
      <point x="81" y="18" type="line"/>
      <point x="1" y="18" type="line"/>
    </contour>
    <contour>
      <point x="227" y="514" type="line"/>
      <point x="418" y="514" type="line" smooth="yes"/>
      <point x="505" y="514"/>
      <point x="538" y="473"/>
      <point x="538" y="408" type="curve" smooth="yes"/>
      <point x="538" y="383"/>
      <point x="531" y="352"/>
      <point x="525" y="328" type="curve" smooth="yes"/>
      <point x="502" y="236"/>
      <point x="428" y="184"/>
      <point x="333" y="184" type="curve" smooth="yes"/>
      <point x="144" y="184" type="line"/>
    </contour>
  </outline>
</glyph>
<glyph name="germandbls" format="1">
  <advance width="539"/>
  <unicode hex="00DF"/>
  <outline>
    <contour>
      <point x="-62" y="-212" type="curve" smooth="yes"/>
      <point x="1" y="-212"/>
      <point x="40" y="-167"/>
      <point x="60" y="-87" type="curve" smooth="yes"/>
      <point x="230" y="596" type="line" smooth="yes"/>
      <point x="255" y="698"/>
      <point x="323" y="753"/>
      <point x="404" y="753" type="curve" smooth="yes"/>
      <point x="478" y="753"/>
      <point x="523" y="713"/>
      <point x="523" y="626" type="curve" smooth="yes"/>
      <point x="523" y="603"/>
      <point x="518" y="577"/>
      <point x="511" y="548" type="curve" smooth="yes"/>
      <point x="503" y="513" type="line"/>
      <point x="405" y="513"/>
      <point x="314" y="468"/>
      <point x="314" y="377" type="curve" smooth="yes"/>
      <point x="314" y="325"/>
      <point x="338" y="295"/>
      <point x="383" y="250" type="curve" smooth="yes"/>
      <point x="440" y="193"/>
      <point x="453" y="172"/>
      <point x="453" y="127" type="curve" smooth="yes"/>
      <point x="453" y="28"/>
      <point x="358" y="0"/>
      <point x="295" y="0" type="curve" smooth="yes"/>
      <point x="280" y="0"/>
      <point x="266" y="1"/>
      <point x="257" y="4" type="curve"/>
      <point x="257" y="7" type="line"/>
      <point x="268" y="12"/>
      <point x="277" y="23"/>
      <point x="277" y="35" type="curve" smooth="yes"/>
      <point x="277" y="47"/>
      <point x="268" y="59"/>
      <point x="252" y="59" type="curve" smooth="yes"/>
      <point x="237" y="59"/>
      <point x="226" y="47"/>
      <point x="226" y="33" type="curve" smooth="yes"/>
      <point x="226" y="4"/>
      <point x="255" y="-12"/>
      <point x="302" y="-12" type="curve" smooth="yes"/>
      <point x="397" y="-12"/>
      <point x="474" y="38"/>
      <point x="474" y="129" type="curve" smooth="yes"/>
      <point x="474" y="178"/>
      <point x="453" y="208"/>
      <point x="405" y="256" type="curve" smooth="yes"/>
      <point x="347" y="315"/>
      <point x="335" y="334"/>
      <point x="335" y="379" type="curve" smooth="yes"/>
      <point x="335" y="461"/>
      <point x="419" y="499"/>
      <point x="499" y="499" type="curve" smooth="yes"/>
      <point x="518" y="499" type="line"/>
      <point x="530" y="548" type="line" smooth="yes"/>
      <point x="537" y="577"/>
      <point x="542" y="608"/>
      <point x="542" y="626" type="curve" smooth="yes"/>
      <point x="542" y="716"/>
      <point x="492" y="770"/>
      <point x="404" y="770" type="curve" smooth="yes"/>
      <point x="309" y="770"/>
      <point x="235" y="703"/>
      <point x="209" y="596" type="curve" smooth="yes"/>
      <point x="187" y="506" type="line" name="hr01"/>
      <point x="86" y="506" type="line"/>
      <point x="82" y="489" type="line"/>
      <point x="183" y="489" type="line"/>
      <point x="41" y="-80" type="line" smooth="yes"/>
      <point x="22" y="-157"/>
      <point x="-12" y="-201"/>
      <point x="-71" y="-201" type="curve" smooth="yes"/>
      <point x="-86" y="-201" type="line"/>
      <point x="-86" y="-198" type="line"/>
      <point x="-75" y="-193"/>
      <point x="-66" y="-182"/>
      <point x="-66" y="-170" type="curve" smooth="yes"/>
      <point x="-66" y="-158"/>
      <point x="-75" y="-146"/>
      <point x="-91" y="-146" type="curve" smooth="yes"/>
      <point x="-106" y="-146"/>
      <point x="-117" y="-158"/>
      <point x="-117" y="-172" type="curve" smooth="yes"/>
      <point x="-117" y="-196"/>
      <point x="-94" y="-212"/>
    </contour>
  </outline>
</glyph>
<glyph name="ae" format="1">
  <advance width="683"/>
  <unicode hex="00E6"/>
  <outline>
    <contour>
      <point x="115" y="-12" type="curve" smooth="yes"/>
      <point x="205" y="-12"/>
      <point x="280" y="105"/>
      <point x="309" y="174" type="curve"/>
      <point x="313" y="174" type="line"/>
      <point x="312" y="158"/>
      <point x="311" y="142"/>
      <point x="311" y="128" type="curve" smooth="yes"/>
      <point x="311" y="34"/>
      <point x="339" y="-12"/>
      <point x="412" y="-12" type="curve" smooth="yes"/>
      <point x="481" y="-12"/>
      <point x="552" y="31"/>
      <point x="616" y="156" type="curve"/>
      <point x="604" y="161" type="line"/>
      <point x="550" y="60"/>
      <point x="480" y="6"/>
      <point x="414" y="6" type="curve" smooth="yes"/>
      <point x="343" y="6"/>
      <point x="331" y="66"/>
      <point x="331" y="128" type="curve" smooth="yes"/>
      <point x="331" y="188"/>
      <point x="345" y="245"/>
      <point x="349" y="262" type="curve"/>
      <point x="566" y="281"/>
      <point x="651" y="336"/>
      <point x="651" y="426" type="curve" smooth="yes"/>
      <point x="651" y="495"/>
      <point x="601" y="518"/>
      <point x="549" y="518" type="curve" smooth="yes"/>
      <point x="479" y="518"/>
      <point x="416" y="463"/>
      <point x="380" y="390" type="curve"/>
      <point x="376" y="390" type="line"/>
      <point x="378" y="402"/>
      <point x="379" y="412"/>
      <point x="379" y="422" type="curve" smooth="yes"/>
      <point x="379" y="484"/>
      <point x="340" y="518"/>
      <point x="267" y="518" type="curve" smooth="yes"/>
      <point x="196" y="518"/>
      <point x="126" y="475"/>
      <point x="126" y="434" type="curve" smooth="yes"/>
      <point x="126" y="416"/>
      <point x="138" y="406"/>
      <point x="153" y="406" type="curve" smooth="yes"/>
      <point x="167" y="406"/>
      <point x="178" y="416"/>
      <point x="178" y="430" type="curve" smooth="yes"/>
      <point x="178" y="447"/>
      <point x="167" y="458"/>
      <point x="150" y="461" type="curve"/>
      <point x="150" y="464" type="line"/>
      <point x="177" y="489"/>
      <point x="222" y="501"/>
      <point x="266" y="501" type="curve" smooth="yes" name="hr01"/>
      <point x="333" y="501"/>
      <point x="361" y="471"/>
      <point x="361" y="419" type="curve" smooth="yes"/>
      <point x="361" y="399"/>
      <point x="357" y="380"/>
      <point x="352" y="360" type="curve" smooth="yes"/>
      <point x="335" y="291"/>
      <point x="332" y="282"/>
      <point x="329" y="272" type="curve"/>
      <point x="137" y="251"/>
      <point x="31" y="174"/>
      <point x="31" y="77" type="curve" smooth="yes"/>
      <point x="31" y="28"/>
      <point x="54" y="-12"/>
    </contour>
    <contour>
      <point x="119" y="6" type="curve"/>
      <point x="70" y="6"/>
      <point x="53" y="37"/>
      <point x="53" y="77" type="curve" smooth="yes"/>
      <point x="53" y="158"/>
      <point x="138" y="238"/>
      <point x="327" y="260" type="curve"/>
      <point x="324" y="249" type="line" smooth="yes"/>
      <point x="302" y="167"/>
      <point x="213" y="6"/>
    </contour>
    <contour>
      <point x="351" y="274" type="curve"/>
      <point x="387" y="424"/>
      <point x="466" y="502"/>
      <point x="551" y="502" type="curve" smooth="yes" name="hr02"/>
      <point x="612" y="502"/>
      <point x="630" y="462"/>
      <point x="630" y="424" type="curve" smooth="yes"/>
      <point x="630" y="331"/>
      <point x="525" y="293"/>
    </contour>
    <contour>
      <point x="415" y="540" type="move" name="top"/>
    </contour>
  </outline>
</glyph>
<glyph name="ccedilla" format="1">
  <advance width="395"/>
  <unicode hex="00E7"/>
  <outline>
    <contour>
      <point x="111" y="-202" type="curve" smooth="yes" name="hr00"/>
      <point x="171" y="-202"/>
      <point x="212" y="-160"/>
      <point x="212" y="-120" type="curve" smooth="yes"/>
      <point x="212" y="-92"/>
      <point x="191" y="-72"/>
      <point x="158" y="-72" type="curve" smooth="yes"/>
      <point x="149" y="-72"/>
      <point x="137" y="-73"/>
      <point x="127" y="-75" type="curve"/>
      <point x="126" y="-73" type="line"/>
      <point x="157" y="-12" type="line"/>
      <point x="219" y="-10"/>
      <point x="279" y="36"/>
      <point x="341" y="156" type="curve"/>
      <point x="329" y="161" type="line"/>
      <point x="276" y="62"/>
      <point x="215" y="6"/>
      <point x="154" y="6" type="curve" smooth="yes"/>
      <point x="84" y="6"/>
      <point x="72" y="66"/>
      <point x="72" y="127" type="curve" smooth="yes"/>
      <point x="72" y="188"/>
      <point x="85" y="249"/>
      <point x="88" y="262" type="curve" smooth="yes"/>
      <point x="122" y="420"/>
      <point x="200" y="502"/>
      <point x="280" y="502" type="curve" smooth="yes"/>
      <point x="321" y="502"/>
      <point x="348" y="490"/>
      <point x="363" y="475" type="curve"/>
      <point x="363" y="472" type="line"/>
      <point x="344" y="469"/>
      <point x="330" y="459"/>
      <point x="330" y="442" type="curve" smooth="yes"/>
      <point x="330" y="428"/>
      <point x="341" y="418"/>
      <point x="355" y="418" type="curve" smooth="yes"/>
      <point x="369" y="418"/>
      <point x="381" y="428"/>
      <point x="381" y="446" type="curve" smooth="yes"/>
      <point x="381" y="485"/>
      <point x="341" y="518"/>
      <point x="280" y="518" type="curve" smooth="yes"/>
      <point x="114" y="518"/>
      <point x="50" y="269"/>
      <point x="50" y="127" type="curve" smooth="yes"/>
      <point x="50" y="40"/>
      <point x="76" y="-6"/>
      <point x="139" y="-11" type="curve"/>
      <point x="103" y="-83" type="line"/>
      <point x="136" y="-84" type="line" smooth="yes"/>
      <point x="174" y="-85"/>
      <point x="191" y="-96"/>
      <point x="191" y="-121" type="curve" smooth="yes"/>
      <point x="191" y="-154"/>
      <point x="159" y="-187"/>
      <point x="112" y="-187" type="curve" smooth="yes"/>
      <point x="83" y="-187"/>
      <point x="59" y="-177"/>
      <point x="49" y="-161" type="curve"/>
      <point x="41" y="-169" type="line"/>
      <point x="49" y="-185"/>
      <point x="74" y="-202"/>
    </contour>
  </outline>
</glyph>
